<?xml version="1.0" standalone="no"?>
<!DOCTYPE svg PUBLIC "-//W3C//DTD SVG 1.1//EN" "http://www.w3.org/Graphics/SVG/1.1/DTD/svg11.dtd" >
<svg xmlns="http://www.w3.org/2000/svg" xmlns:xlink="http://www.w3.org/1999/xlink" version="1.1">
<metadata>
Created by FontForge 20190801 at Wed Oct 28 08:52:38 2020
 By www-data
Copyright (c) 2019 by Typedepot. All rights reserved.
</metadata>
<defs>
<font id="PlovdivDisplayLight" horiz-adv-x="0" >
  <font-face 
    font-family="PlovdivDisplayLight"
    font-weight="300"
    font-stretch="normal"
    units-per-em="1000"
    panose-1="0 0 4 0 0 0 0 0 0 0"
    ascent="775"
    descent="-225"
    x-height="473"
    cap-height="720"
    bbox="-529 -337 7141 1009"
    underline-thickness="50"
    underline-position="-100"
    unicode-range="U+0020-F8FF"
  />
<missing-glyph horiz-adv-x="470" 
d="M87 740h298v-940h-298v940zM313 646v31h-155v-31h61v-35h-62v-31h156v31h-62v35h62zM251 490v66h-94v-98h156v32h-62zM188 524h31v-34h-31v34zM313 402v31h-156v-31h62v-35h-62v-31h94v66h62zM313 282v94h-31v-62h-125v-32h156zM313 155v107h-94v-53h32v22h31v-45h-94v76
h-31v-107h156zM313 -7v106h-156v-106h156zM188 68h94v-44h-94v44zM313 -60v31h-156v-31h66l-66 -44v-31h156v31h-96l66 44h30z" />
    <glyph glyph-name="f_f" unicode="ff" horiz-adv-x="648" 
d="M649 728q24 -10 24 -26q0 -19 -13 -30q-48 31 -107 31q-84 0 -84 -88v-145l147 1q3 -20 -4 -29.5t-18 -9.5l-125 1l1 -218q0 -125 4 -215q-17 -5 -32 -5q-22 0 -22 22q-2 238 -1 414l-63 1l-188 1l1 -218q0 -125 4 -215q-17 -5 -32 -5q-22 0 -22 22q-2 238 -1 414l-95 2
q-3 14 1 25t14 11h80l1 97q1 148 143 148q39 0 76 -16q24 -10 24 -26q0 -19 -13 -30q-48 31 -97 31q-84 0 -84 -88v-115h251l1 126q1 148 143 148q49 0 86 -16z" />
    <glyph glyph-name="f_f_i" unicode="ffi" horiz-adv-x="836" 
d="M472 470q102 0 154 1q3 -20 -4 -29.5t-18 -9.5h-134q0 -272 5 -432q-17 -5 -32 -5q-22 0 -22 22q-3 201 -2 415l-251 1l1 -218q0 -125 4 -215q-17 -5 -32 -5q-22 0 -22 22q-2 238 -1 414l-95 2q-3 14 1 25t14 11h80l1 97q1 148 143 148q39 0 76 -16q24 -10 24 -26
q0 -19 -13 -30q-48 31 -97 31q-84 0 -84 -88v-115h251q0 15 0.5 43.5t0.5 43.5q1 89 48.5 138t133.5 49q73 0 134 -24q22 -8 22 -27q0 -23 -23 -36q-63 45 -135 45q-60 0 -95 -41.5t-35 -116.5v-74h2zM765 459q0 -340 4 -459q-17 -5 -32 -5q-22 0 -22 22q2 276 -5 453
q18 5 31 5q24 0 24 -16z" />
    <glyph glyph-name="f_i" unicode="fi" horiz-adv-x="535" 
d="M169 470q104 0 156 1q3 -20 -4 -29.5t-18 -9.5h-134q0 -272 5 -432q-17 -5 -32 -5q-22 0 -22 22q-3 202 -2 416h-95q-3 14 1 25t14 11q54 0 80 1q0 14 0.5 43t0.5 44q1 89 48.5 138t133.5 49q73 0 134 -24q22 -8 22 -27q0 -23 -23 -36q-63 45 -135 45q-60 0 -95 -41.5
t-35 -116.5v-74zM464 459q0 -340 4 -459q-17 -5 -32 -5q-22 0 -22 22q2 276 -5 453q17 5 31 5q24 0 24 -16z" />
    <glyph glyph-name="f_l" unicode="fl" horiz-adv-x="548" 
d="M464 710q0 -552 4 -710q-17 -5 -32 -5q-22 0 -22 22q0 457 -4 655q-53 30 -111 30q-60 0 -95 -41.5t-35 -116.5v-74q104 0 156 1q3 -20 -4 -29.5t-18 -9.5h-134q0 -272 5 -432q-17 -5 -32 -5q-22 0 -22 22q-3 202 -2 416h-95q-3 14 1 25t14 11q54 0 80 1q0 14 0.5 43
t0.5 44q1 89 48.5 138t133.5 49q66 0 122 -20q10 2 17 2q24 0 24 -16z" />
    <glyph glyph-name=".notdef" horiz-adv-x="470" 
d="M87 740h298v-940h-298v940zM313 646v31h-155v-31h61v-35h-62v-31h156v31h-62v35h62zM251 490v66h-94v-98h156v32h-62zM188 524h31v-34h-31v34zM313 402v31h-156v-31h62v-35h-62v-31h94v66h62zM313 282v94h-31v-62h-125v-32h156zM313 155v107h-94v-53h32v22h31v-45h-94v76
h-31v-107h156zM313 -7v106h-156v-106h156zM188 68h94v-44h-94v44zM313 -60v31h-156v-31h66l-66 -44v-31h156v31h-96l66 44h30z" />
    <glyph glyph-name=".null" 
 />
    <glyph glyph-name="nonmarkingreturn" horiz-adv-x="333" 
 />
    <glyph glyph-name="space" unicode=" " horiz-adv-x="208" 
 />
    <glyph glyph-name="exclam" unicode="!" horiz-adv-x="278" 
d="M174 708l-19 -508q-24 -2 -32 4t-8 27l-4 499q65 19 63 -22zM134 89q22 0 34 -13t12 -34q0 -47 -46 -47q-43 0 -43 47q0 21 11.5 34t31.5 13z" />
    <glyph glyph-name="quotedbl" unicode="&#x22;" horiz-adv-x="293" 
d="M81 494l-31 -5v247q54 13 54 -33q0 -99 -23 -209zM210 494l-31 -5v247q54 13 54 -33q0 -99 -23 -209z" />
    <glyph glyph-name="numbersign" unicode="#" horiz-adv-x="765" 
d="M700 436l-169 -2l-26 -196l148 1q31 0 31 -16q0 -9 -4 -21l-180 -3l-26 -197q-12 -5 -27 -5q-21 0 -15 49l20 152l-177 -2l-22 -167q-18 -5 -27 -5q-21 0 -16 42l17 129l-133 -2q-35 0 -35 21q0 13 1 20l172 1l25 195l-130 -2q-19 0 -26 3t-7 14q0 19 1 24l167 1l20 152
q16 3 28 3q21 0 17 -32l-16 -122l176 1l25 194q14 4 28 4q23 0 19 -28l-22 -169l143 1q24 0 24 -16q0 -10 -4 -22zM280 236l177 1l25 196l-176 -3z" />
    <glyph glyph-name="percent" unicode="%" horiz-adv-x="778" 
d="M216 736q65 0 106.5 -38.5t41.5 -103.5q0 -67 -41.5 -105.5t-106.5 -38.5t-106 38.5t-41 105.5q0 65 41.5 103.5t105.5 38.5zM124 17q-6 13 5 30l474 675q21 -6 28 -17q9 -17 -3 -35l-478 -671q-20 6 -26 18zM216 488q46 0 72 29t26 77q0 47 -25.5 75t-72.5 28
q-46 0 -71.5 -28t-25.5 -75q0 -48 25.5 -77t71.5 -29zM549 280q65 0 106.5 -38.5t41.5 -103.5q0 -67 -41.5 -105.5t-106.5 -38.5t-106 38.5t-41 105.5q0 65 41.5 103.5t105.5 38.5zM549 32q46 0 72 29t26 77q0 47 -25.5 75t-72.5 28q-46 0 -71.5 -28t-25.5 -75
q0 -48 25.5 -77t71.5 -29z" />
    <glyph glyph-name="ampersand" unicode="&#x26;" horiz-adv-x="642" 
d="M484 103q75 -57 118 -77q-3 -22 -10.5 -28.5t-23 -2t-46.5 23.5q-37 23 -69 48q-74 -72 -189 -72q-95 0 -149.5 44t-54.5 124q0 104 122 178q-76 107 -76 193q0 81 46.5 127t127.5 46q73 0 112.5 -37.5t39.5 -108.5q0 -43 -20 -79t-52.5 -64t-92.5 -68l-27 -17
q13 -17 39 -46q63 -72 166 -154q48 75 47 186q34 5 44 -7.5t5 -54.5q-10 -90 -57 -154zM156 522q0 -74 62 -160q4 2 25 14q140 84 140 186q0 49 -28.5 77t-78.5 28q-58 0 -89 -37t-31 -108zM266 38q91 0 150 59q-99 83 -165 159q-41 48 -47 56q-42 -26 -65.5 -57.5
t-23.5 -79.5q0 -67 40 -102t111 -35z" />
    <glyph glyph-name="quotesingle" unicode="'" horiz-adv-x="160" 
d="M87 494l-37 -5v247q60 13 60 -33q0 -99 -23 -209z" />
    <glyph glyph-name="parenleft" unicode="(" horiz-adv-x="306" 
d="M218 -159q-153 242 -153 521q0 226 131 469q8 14 27.5 14.5t39.5 -12.5q-149 -236 -149 -470q0 -283 150 -526q-9 -11 -21.5 -11.5t-24.5 15.5z" />
    <glyph glyph-name="parenright" unicode=")" horiz-adv-x="307" 
d="M89 831q153 -242 153 -521q0 -226 -131 -469q-8 -14 -27.5 -14.5t-39.5 12.5q149 236 149 470q0 283 -150 526q9 11 21.5 11.5t24.5 -15.5z" />
    <glyph glyph-name="comma" unicode="," horiz-adv-x="280" 
d="M102 84q20 16 42 16q30 0 30 -48q0 -36 -12 -96t-28 -102l-28 3q16 60 16 129q0 59 -20 98z" />
    <glyph glyph-name="hyphen" unicode="-" horiz-adv-x="408" 
d="M320 221h-237q-4 12 1 24t15 12h243q2 -13 -5 -24.5t-17 -11.5z" />
    <glyph glyph-name="period" unicode="." horiz-adv-x="317" 
d="M160 -10q-22 0 -34 15.5t-12 38.5q0 45 46 45q20 0 31.5 -13t11.5 -34q0 -23 -11.5 -37.5t-31.5 -14.5z" />
    <glyph glyph-name="slash" unicode="/" horiz-adv-x="430" 
d="M36 -134q-16 5 -11 23l282 860q21 0 34 -6t8 -23l-279 -858q-22 0 -34 4z" />
    <glyph glyph-name="zero" unicode="0" horiz-adv-x="622" 
d="M311 -6q-120 0 -184 95t-64 276t64.5 278t183.5 97t183.5 -97t64.5 -278t-64.5 -276t-183.5 -95zM311 40q91 0 142 84t51 241q0 161 -49 245t-144 84t-144 -84t-49 -245q0 -157 51 -241t142 -84z" />
    <glyph glyph-name="one" unicode="1" horiz-adv-x="371" 
d="M266 693l2 -430l5 -263q-13 -6 -31 -6q-29 0 -29 20l3 249v419l-153 -34q-17 -4 -21 14q-2 11 1 27l196 31q11 1 19 -7t8 -20z" />
    <glyph glyph-name="two" unicode="2" horiz-adv-x="547" 
d="M481 45q7 -19 2 -33t-19 -14q-99 0 -357 2q-12 0 -20 2t-13.5 14t-2.5 33q79 63 135.5 115.5t110 116t81.5 128t28 128.5q0 70 -41 108.5t-112 38.5q-81 0 -123.5 -47t-45.5 -129q-52 -10 -52 30q0 84 63 138t154 54q212 0 212 -195q0 -53 -22 -108.5t-52 -100.5
t-84 -101.5t-95 -94t-108 -94.5z" />
    <glyph glyph-name="three" unicode="3" horiz-adv-x="522" 
d="M242 -8q-90 0 -155 30q-31 14 -39 34t15 43q90 -61 176 -61q77 0 123 37t46 108q0 136 -186 141q-30 -7 -50 -7q-30 0 -37.5 19t7.5 31l109 -9q55 25 93.5 76.5t38.5 119.5q0 59 -35 95t-102 36q-60 0 -98 -31.5t-42 -96.5q-30 -6 -40.5 5t-4.5 42q11 58 63 92t124 34
q89 0 140 -47t51 -129q0 -70 -38 -123t-105 -82v-2q80 -14 124 -57t44 -114q0 -85 -59.5 -134.5t-162.5 -49.5z" />
    <glyph glyph-name="four" unicode="4" horiz-adv-x="581" 
d="M440 218l100 3q4 -27 -1.5 -36.5t-24.5 -9.5q-50 0 -74 -1q0 -40 2 -174q-14 -6 -26 -6q-27 0 -27 17q2 128 2 163q-194 -2 -293 -2q-21 0 -29.5 14t0.5 34q147 290 191 500q13 4 28 4q16 0 23.5 -12.5t1.5 -30.5q-33 -101 -96 -252t-99 -220l273 8l-3 165q-1 36 24 36
q20 0 32 -6q-4 -150 -4 -194z" />
    <glyph glyph-name="five" unicode="5" horiz-adv-x="572" 
d="M173 683l-10 -266q169 9 251.5 -51.5t82.5 -163.5q0 -101 -61 -156.5t-168 -55.5q-99 0 -167 49q-28 20 -28 39q0 18 21 36q43 -41 83 -61t91 -20q81 0 128 45t47 122q0 97 -77 140.5t-222 31.5q-27 -2 -27 21l8 248q0 26 9 40h-68q-11 39 13 39h299q56 0 84 2
q4 -13 4 -26q0 -17 -26 -17q-89 0 -267 4z" />
    <glyph glyph-name="six" unicode="6" horiz-adv-x="569" 
d="M319 407q88 0 148 -52.5t60 -146.5q0 -97 -63.5 -157.5t-159.5 -60.5q-108 0 -178.5 80t-70.5 230q0 100 33.5 183.5t88 137t121.5 83t137 29.5q23 0 29 -18t-2 -30q-162 0 -260 -108t-100 -289q29 50 86.5 84.5t130.5 34.5zM304 32q78 0 123.5 46.5t45.5 127.5
q0 80 -44.5 119.5t-116.5 39.5q-65 0 -111.5 -30.5t-87.5 -86.5q10 -106 59.5 -161t131.5 -55z" />
    <glyph glyph-name="seven" unicode="7" horiz-adv-x="469" 
d="M117 730h272q63 0 35 -62l-35 -77t-40 -88.5t-35.5 -84t-39.5 -103t-33.5 -104t-34.5 -125.5q-9 -38 -14 -86q-12 -4 -24 -4q-19 0 -25.5 15t-0.5 39q18 75 39.5 145t53 149.5t46.5 115.5t57 129.5t48 106.5l-332 -4q-27 0 -27 18q0 8 6 23q42 -3 84 -3z" />
    <glyph glyph-name="eight" unicode="8" horiz-adv-x="574" 
d="M352 360q36 -16 60 -30t50 -36.5t39 -53t13 -69.5q0 -82 -64 -129.5t-160 -47.5q-98 0 -161 48t-63 131q0 113 145 201q-133 69 -133 182q0 77 54.5 125.5t153.5 48.5q91 0 145.5 -46t54.5 -124q0 -108 -134 -200zM133 555q0 -56 41 -96t128 -78l13 -6q66 56 91 95.5
t25 83.5q0 59 -39 94.5t-105 35.5q-69 0 -111.5 -36t-42.5 -93zM290 40q73 0 121.5 33t48.5 101q0 32 -9 54.5t-34.5 42.5t-54 34t-83.5 38q-21 9 -31 13q-128 -74 -128 -179q0 -67 47 -102t123 -35z" />
    <glyph glyph-name="nine" unicode="9" horiz-adv-x="583" 
d="M273 733q108 0 178.5 -80t70.5 -230q0 -100 -33.5 -183.5t-88 -137t-121.5 -83t-137 -29.5q-23 0 -29 18t2 30q162 0 260 108t100 289q-29 -50 -86.5 -84.5t-130.5 -34.5q-88 0 -148 52.5t-60 146.5q0 97 63.5 157.5t159.5 60.5zM265 358q65 0 111.5 30.5t87.5 86.5
q-10 106 -59.5 161t-131.5 55q-78 0 -123.5 -46.5t-45.5 -127.5q0 -80 44.5 -119.5t116.5 -39.5z" />
    <glyph glyph-name="colon" unicode=":" horiz-adv-x="273" 
d="M136 386q-44 0 -44 50t44 50t44 -50t-44 -50zM136 -5q-44 0 -44 50t44 50q46 0 46 -50t-46 -50z" />
    <glyph glyph-name="semicolon" unicode=";" horiz-adv-x="312" 
d="M156 404q-44 0 -44 50t44 50q46 0 46 -50t-46 -50zM141 -147l-27 5q25 115 16 234q39 8 52 -3.5t13 -38.5q0 -96 -54 -197z" />
    <glyph glyph-name="less" unicode="&#x3c;" horiz-adv-x="453" 
d="M56 331q160 -71 233.5 -115t73.5 -78q0 -21 -32 -30q-18 45 -131 111t-190 98l6 29q139 63 187 94q77 51 113 111q16 0 25 -7.5t7 -18.5q-16 -83 -292 -194z" />
    <glyph glyph-name="equal" unicode="=" horiz-adv-x="498" 
d="M101 472h313q6 -22 3 -32t-19 -10h-316q-4 24 -0.5 33t19.5 9zM101 299h313q6 -23 3 -32.5t-19 -9.5h-316q-4 24 -0.5 33t19.5 9z" />
    <glyph glyph-name="greater" unicode="&#x3e;" horiz-adv-x="453" 
d="M122 551q18 -45 131 -111t190 -98l-6 -29q-55 -24 -72 -32t-63.5 -32t-68.5 -40.5t-50.5 -44t-45.5 -56.5q-15 0 -24 6t-8 20q2 24 35 54t82 57t93 47.5t82 35.5q-160 71 -233.5 115t-73.5 78q0 21 32 30z" />
    <glyph glyph-name="question" unicode="?" horiz-adv-x="596" 
d="M215 206q-12 20 -12 64q0 40 13 72.5t33 53t42.5 42.5t42.5 40.5t33 47.5t13 63q0 122 -127 122q-71 0 -107.5 -51.5t-7.5 -111.5q-28 -15 -45 -3.5t-17 44.5q0 75 50 117.5t134 42.5q82 0 127.5 -40t44.5 -118q0 -42 -19.5 -77t-47 -59.5l-55 -49t-46.5 -57t-19 -70.5
q0 -33 20 -67q-11 -17 -27.5 -16t-22.5 11zM240 -10q-22 0 -34 14.5t-12 36.5t12 35t35 13q46 0 46 -46q0 -22 -12.5 -37.5t-34.5 -15.5z" />
    <glyph glyph-name="at" unicode="@" horiz-adv-x="894" 
d="M417 -182q-168 0 -264 94.5t-96 260.5q0 90 28.5 170.5t81.5 142t135.5 98t182.5 36.5q162 0 257.5 -88t94.5 -236q-1 -118 -55.5 -198t-133.5 -80q-30 0 -51 11.5t-30.5 30t-13 36.5t-3.5 37q-61 -130 -160 -130q-68 0 -106 47t-38 132q0 104 57.5 168t149.5 64
q72 0 124 -46l5 52q9 4 21 4q21 0 21 -27q0 -31 -33 -142l-3 -122q-1 -36 15.5 -57t46.5 -21q61 0 100.5 70.5t39.5 176.5q0 134 -81 209.5t-225 75.5q-173 0 -276.5 -112.5t-103.5 -296.5q0 -155 82.5 -241t231.5 -86q113 0 203 56q9 -8 9.5 -22t-7.5 -20q-69 -47 -206 -47
zM403 39q44 0 75.5 36.5t75.5 116.5l16 147q-43 39 -104 39q-80 0 -125 -49.5t-45 -141.5q0 -76 26 -112t81 -36z" />
    <glyph glyph-name="A" unicode="A" horiz-adv-x="696" 
d="M397 698l184 -545q3 -9 9.5 -30.5t10.5 -33t10 -28t12 -29t13 -22.5q-16 -16 -37 -16q-22 0 -28 17l-73 225q-204 -8 -306 -5l-51 -148q-16 -48 -20 -83q-13 -6 -33 -6q-14 0 -21 8.5t-3 20.5l226 634q13 35 20 63q28 6 41 6q37 0 46 -28zM351 689l-146 -421l282 3z" />
    <glyph glyph-name="B" unicode="B" horiz-adv-x="625" 
d="M412 363q69 -14 109 -60.5t40 -114.5q0 -193 -260 -193q-82 0 -147 5q-17 1 -24.5 3.5t-13 11t-5.5 26.5q-5 300 0 600q0 28 11 43l-72 -8q-6 17 -2.5 30.5t16.5 14.5q111 9 195 9q266 0 266 -189q0 -114 -113 -178zM265 692q-57 0 -101 -4l-1 -311l217 -1
q44 26 68.5 68.5t24.5 92.5q0 155 -208 155zM299 35q210 0 210 149q0 99 -75.5 132.5t-270.5 18.5l1 -291q71 -9 135 -9z" />
    <glyph glyph-name="C" unicode="C" horiz-adv-x="649" 
d="M361 -5q-136 0 -213 90t-77 254q0 171 75.5 281t203.5 110q95 0 152 -64.5t57 -164.5q0 -37 -11.5 -47.5t-48.5 -3.5v57q0 92 -41 134.5t-107 42.5q-108 0 -167 -95.5t-59 -244.5q0 -148 65.5 -225.5t174.5 -77.5q104 0 203 124q44 -20 14 -63q-28 -41 -90.5 -74
t-130.5 -33z" />
    <glyph glyph-name="D" unicode="D" horiz-adv-x="724" 
d="M264 730q191 0 283.5 -88t92.5 -273q0 -186 -94.5 -280t-261.5 -94q-76 0 -115 5q-25 2 -33.5 10t-8.5 33q-3 251 0 598q0 21 5 32q-36 -4 -57 -7q-7 17 -3 34.5t17 18.5q108 11 175 11zM293 41q142 0 217.5 85.5t75.5 249.5q0 165 -78 236.5t-231 71.5q-38 0 -98 -6
l1 -629q61 -8 113 -8z" />
    <glyph glyph-name="E" unicode="E" horiz-adv-x="560" 
d="M523 44q4 -18 -3 -30.5t-27 -13.5q-163 -4 -327 0q-27 1 -39 11.5t-13 35.5q-4 297 0 591q0 25 7 40q-44 0 -66 1q-12 39 13 39q219 3 439 3q5 -23 -8.5 -34t-55.5 -11q-185 0 -277 1v-304q120 4 289 2q5 -19 -3.5 -29.5t-25.5 -10.5h-260v-295q247 0 357 4z" />
    <glyph glyph-name="F" unicode="F" horiz-adv-x="542" 
d="M433 676q-178 0 -266 1l1 -310q240 5 278 5q5 -20 -3.5 -31.5t-25.5 -11.5h-249l1 -160q0 -59 4 -169q-13 -6 -32 -6q-14 0 -22 9.5t-6 23.5v614q0 24 8 37q-44 0 -66 1q-12 39 13 39q219 3 429 3q5 -23 -8.5 -34t-55.5 -11z" />
    <glyph glyph-name="G" unicode="G" horiz-adv-x="716" 
d="M626 272l1 -144v-7v-8t-0.5 -7t-2.5 -8t-4.5 -8t-7 -9t-10.5 -9q-98 -77 -211 -77q-152 0 -230 92t-78 256q0 177 81.5 282t222.5 105q103 0 161.5 -60.5t58.5 -166.5q0 -36 -10 -46.5t-44 -2.5v45q0 97 -41.5 141t-126.5 44q-116 0 -182 -89.5t-66 -250.5
q0 -144 67 -223.5t188 -79.5q94 0 182 73l1 144l-176 -4q-26 0 -22 47l221 -1q28 0 28 -28z" />
    <glyph glyph-name="H" unicode="H" horiz-adv-x="709" 
d="M602 690q-1 -513 3 -690q-17 -5 -32 -5q-22 0 -22 22v289q-241 -15 -392 -9q0 -155 3 -297q-17 -5 -32 -5q-22 0 -22 22v141v136v114t-0.5 108.5t-1.5 83t-3 73.5t-4 47q12 6 33 6q16 0 22 -8t5 -28q0 -85 -0.5 -201t-0.5 -152q126 -3 393 7q0 300 -9 376q12 6 33 6
q16 0 22 -8t5 -28z" />
    <glyph glyph-name="I" unicode="I" horiz-adv-x="388" 
d="M220 36q34 -1 103 -1q5 -14 0.5 -24.5t-16.5 -10.5q-35 0 -121 0.5t-121 -0.5q-5 12 -0.5 23.5t15.5 11.5q29 1 88 1v324.5v325.5q-69 0 -103 -1q-5 12 -0.5 23.5t15.5 11.5h243q5 -14 0.5 -24.5t-16.5 -10.5h-87v-324.5v-324.5z" />
    <glyph glyph-name="J" unicode="J" horiz-adv-x="255" 
d="M12 -200q-27 0 -34.5 16.5t3.5 35.5q23 -5 43.5 -1t37 15.5t26 42t9.5 77.5v734q4 6 23 6q29 0 29 -16v-714q0 -98 -36 -147t-101 -49z" />
    <glyph glyph-name="K" unicode="K" horiz-adv-x="687" 
d="M613 702l-230 -367q100 -175 266 -305q-7 -37 -37 -37q-28 0 -62 33q-50 48 -106.5 132.5t-81.5 143.5l-175 -279q-17 -27 -41 -27q-18 0 -28.5 11.5t-10.5 26.5v686q13 6 29 6q23 0 23 -16v-328q0 -136 -4 -337l203 323q18 50 74 149t107 174q14 21 21.5 28t20.5 7
q22 0 32 -24z" />
    <glyph glyph-name="L" unicode="L" horiz-adv-x="502" 
d="M428 -2q-121 -1 -271 2q-26 1 -38 10t-12 33q0 97 -2 325.5t-1 351.5q16 6 29 6q27 0 27 -34l-1 -652q196 0 301 3q9 -45 -32 -45z" />
    <glyph glyph-name="M" unicode="M" horiz-adv-x="947" 
d="M784 679l61 -519q11 -101 28 -151q-20 -14 -40 -14q-14 0 -21 4t-8 8t-2 12q-12 114 -36 337t-35 325l-187 -547q-13 -39 -34 -128q-12 -6 -38 -6q-31 0 -41 29l-222 647l-58 -544q-9 -81 -6 -129q-17 -8 -30 -8q-20 0 -25.5 11t-2.5 37l58 530q13 127 13 147q22 6 50 6
q24 0 36 -9.5t20 -32.5l138 -408q48 -140 71 -220q25 89 69 218l108 325q22 65 33 120q37 7 53 7q43 0 48 -47z" />
    <glyph glyph-name="N" unicode="N" horiz-adv-x="707" 
d="M579 727q11 0 17.5 -6t6.5 -14v-671q0 -24 -15 -32t-47 -8l-391 671q2 -75 5.5 -358.5t4.5 -308.5q-16 -6 -32 -6q-11 0 -17.5 7.5t-6.5 19.5v89t0.5 220t0.5 390q25 5 35 5q28 0 41 -23l378 -644q-5 125 -7.5 373.5t-3.5 288.5q16 7 31 7z" />
    <glyph glyph-name="O" unicode="O" horiz-adv-x="777" 
d="M388 -10q-142 0 -223 98.5t-81 268.5q0 171 82 272t222 101q141 0 223 -101t82 -272q0 -170 -81.5 -268.5t-223.5 -98.5zM399 36q114 4 179 91.5t60 238.5t-76 236.5t-185 81.5q-115 -5 -179 -95t-59 -241t75.5 -233.5t184.5 -78.5z" />
    <glyph glyph-name="P" unicode="P" horiz-adv-x="578" 
d="M231 728q151 0 229.5 -50.5t78.5 -168.5q0 -111 -69 -172.5t-195 -61.5q-55 0 -115 12q0 -229 5 -286q-19 -7 -32 -7q-27 0 -27 21q-4 274 1 625q0 26 9 40q-49 -5 -67 -7q-5 17 0 31.5t18 15.5q101 8 164 8zM285 317q91 0 145.5 49.5t54.5 139.5q0 91 -55.5 135.5
t-200.5 44.5q-33 0 -70 -3v-352q64 -14 126 -14z" />
    <glyph glyph-name="Q" unicode="Q" horiz-adv-x="727" 
d="M693 357q0 -163 -75.5 -260.5t-206.5 -105.5l260 -103q-3 -17 -12 -26.5t-18 -9.5q-31 0 -116 44t-164 95q-130 10 -203.5 107t-73.5 259q0 171 82 272t222 101q141 0 223 -101t82 -272zM139 348q5 -151 75.5 -233.5t184.5 -78.5t179 91.5t60 238.5t-76 236.5t-185 81.5
q-115 -5 -179 -95t-59 -241z" />
    <glyph glyph-name="R" unicode="R" horiz-adv-x="675" 
d="M422 285q27 -60 79.5 -134t103.5 -129q-13 -27 -36 -27q-21 0 -41 25q-72 90 -155 255h-190v-107q0 -105 8 -166q-18 -8 -32 -8q-30 0 -30 32v615q0 17 4 27q-26 -4 -67 -11q-12 44 12 47q113 16 234 16q130 0 201 -57.5t71 -150.5q0 -169 -162 -227zM183 673v-360h205
q2 1 19.5 8.5t22 10t20 11t21 14.5t17.5 17.5t17 23.5t11.5 28.5t9 36.5t2.5 44q0 77 -56.5 125t-149.5 48q-75 0 -139 -7z" />
    <glyph glyph-name="S" unicode="S" horiz-adv-x="567" 
d="M298 -5q-126 0 -225 91q-37 33 15 66q35 -44 91 -77.5t123 -33.5q74 0 119 31t45 92q0 18 -3 33.5t-11.5 28.5t-16 23t-22.5 19.5t-24.5 16t-29.5 14t-30.5 11.5t-34 12t-32.5 11q-184 65 -184 210q0 41 13.5 73t34.5 52t49.5 33.5t56.5 18.5t57 5q82 0 136 -46t54 -128
q0 -28 -13.5 -36.5t-47.5 -2.5q15 167 -133 167q-71 0 -111 -36t-42 -97q-2 -64 38 -102t125 -70q34 -13 45.5 -17.5t40.5 -16.5t39.5 -19t32 -20t29.5 -24.5t19 -27.5t15 -34.5t4 -40.5q0 -85 -57.5 -132t-164.5 -47z" />
    <glyph glyph-name="T" unicode="T" horiz-adv-x="550" 
d="M509 722q6 -18 2.5 -29t-15.5 -11q-66 -1 -199 -1q1 -65 1.5 -241.5t2 -286.5t3.5 -148q-17 -10 -33 -10q-25 0 -25 22q-2 423 1 636q0 15 10 28q-145 0 -217 1q-11 38 19 38q85 1 242.5 1.5t207.5 0.5z" />
    <glyph glyph-name="U" unicode="U" horiz-adv-x="723" 
d="M363 -10q-122 0 -187.5 70t-65.5 191q0 372 -6 469q20 6 32 6q26 0 26 -19q3 -54 2 -233t-1 -222q1 -102 54 -159t146 -57t145.5 56.5t53.5 159.5q3 282 -6 468q20 6 34 6q25 0 25 -21q3 0 1 -223l-1 -223q0 -125 -64.5 -197t-187.5 -72z" />
    <glyph glyph-name="V" unicode="V" horiz-adv-x="678" 
d="M563 730q30 1 43 -7.5t8 -26.5q-16 -61 -56 -183.5t-103.5 -308t-69.5 -204.5q-23 -8 -46 -8q-31 0 -44 40q-83 258 -131.5 397t-107.5 282q20 14 41.5 13t27.5 -18q120 -326 222 -668q58 164 124.5 373t91.5 319z" />
    <glyph glyph-name="W" unicode="W" horiz-adv-x="1100" 
d="M975 713q42 -156 42 -373q0 -172 -59 -258.5t-186 -86.5q-81 0 -133 40t-92 118q-61 -158 -235 -158q-224 0 -223 311q0 329 -6 414q58 17 58 -13q1 -47 1 -389q0 -277 179 -277q79 0 128.5 45t80.5 151v483q28 8 44.5 3t16.5 -29v-76v-81t-0.5 -68.5t-2.5 -75t-5 -62
t-7.5 -67t-10.5 -54.5q43 -90 84.5 -129.5t121.5 -39.5q192 0 192 296q0 28 -0.5 51.5t-2.5 48.5t-3 40.5t-5 41t-5.5 35.5t-7.5 39.5t-8 37.5t-10 44l-10 45q24 12 42 10.5t22 -17.5z" />
    <glyph glyph-name="X" unicode="X" horiz-adv-x="653" 
d="M578 662l-224 -302q210 -291 254 -340q-16 -29 -41 -29q-14 -1 -31 26q-104 155 -216 310l-153 -213q-58 -80 -79 -124q-35 1 -38 24q-3 14 11 34l234 314q-189 261 -258 344q15 23 42 23q2 0 4 -0.5l4 -1t4 -1.5t3 -2l3 -3l3 -3t3 -3.5t2.5 -3.5t2.5 -4t3 -4
q111 -159 217 -308l144 201q60 83 79 124q33 -2 38 -23q3 -16 -11 -35z" />
    <glyph glyph-name="Y" unicode="Y" horiz-adv-x="586" 
d="M500 737q28 1 38 -13.5t1 -35.5q-17 -38 -101 -214.5t-108 -223.5l3 -250q-17 -5 -25 -5q-16 0 -22 5.5t-6 18.5v237q-154 305 -242 455q18 24 39 24q14 0 21 -13q25 -42 54.5 -99.5t49.5 -99.5l55 -115.5t50 -104.5q88 156 193 434z" />
    <glyph glyph-name="Z" unicode="Z" horiz-adv-x="608" 
d="M550 663l-439 -623q74 0 221.5 2t221.5 3q1 -29 -8.5 -39t-35.5 -10q-28 0 -440 4q-23 34 -5 61l439 622q-260 -9 -425 -8q-23 0 -29.5 10.5t-0.5 36.5q181 -6 500 -2q9 -11 9.5 -27.5t-8.5 -29.5z" />
    <glyph glyph-name="bracketleft" unicode="[" horiz-adv-x="336" 
d="M263 -158q-43 0 -119 6q-25 2 -33.5 13.5t-8.5 42.5v917q0 33 30 34q4 0 66.5 2.5t92.5 4.5q3 -14 3 -27q0 -10 -4 -13t-16 -3q-80 0 -127 1l-1 -934q45 -1 139 3q3 -11 3 -22q0 -15 -5 -20t-20 -5z" />
    <glyph glyph-name="backslash" unicode="\" horiz-adv-x="395" 
d="M359 -134q-12 -4 -34 -4l-279 858q-5 17 8 23t34 6l282 -860q5 -18 -11 -23z" />
    <glyph glyph-name="bracketright" unicode="]" horiz-adv-x="308" 
d="M45 857q43 0 119 -6q25 -2 33.5 -13.5t8.5 -42.5v-917q0 -33 -30 -34q-4 0 -66.5 -2.5t-92.5 -4.5q-3 13 -3 27q0 10 4 13t16 3q80 0 127 -1l1 934q-45 1 -139 -3q-3 10 -3 22q0 15 5 20t20 5z" />
    <glyph glyph-name="asciicircum" unicode="^" horiz-adv-x="462" 
d="M273 641q50 -64 105 -122q-23 -33 -39 -33q-7 0 -20 16q-38 44 -80 129q-47 -71 -103 -130q-17 -19 -25.5 -20.5t-19.5 12.5q-9 10 -15 29q23 19 65 58t61 56q34 30 42 30q10 0 29 -25z" />
    <glyph glyph-name="underscore" unicode="_" horiz-adv-x="469" 
d="M70 -36h315q12 0 14.5 -9t-0.5 -37h-313q-13 0 -16 9t0 37z" />
    <glyph glyph-name="grave" unicode="`" horiz-adv-x="330" 
d="M203 557l-103 119q-14 16 -14 30t10 21q11 9 31 12q16 -31 52 -81.5t45 -64.5q8 -13 0 -22.5t-21 -13.5z" />
    <glyph glyph-name="a" unicode="a" horiz-adv-x="561" 
d="M466 255q10 -188 20 -251q-18 -9 -32 -9q-13 0 -20 4.5t-7.5 8t-0.5 9.5q-3 56 -1 133q-42 -90 -83.5 -125t-104.5 -35q-82 0 -131.5 60.5t-49.5 167.5q0 122 58 192t152 70q44 0 78 -18.5t76 -58.5l-2 80q16 4 34 4q26 0 26 -40q0 -24 -5.5 -97.5t-6.5 -94.5zM247 33
q55 0 91 41t85 141l-3 148q-44 38 -77.5 56t-73.5 18q-75 0 -120.5 -57t-40.5 -160q10 -187 139 -187z" />
    <glyph glyph-name="b" unicode="b" horiz-adv-x="555" 
d="M326 480q82 0 127.5 -60t45.5 -170q0 -121 -56.5 -190.5t-150.5 -69.5t-156 83l1 -69q-20 -9 -34 -9q-11 0 -19 5t-7 17l15 261l-14 442q24 6 33 6q27 0 27 -30q0 -168 -6 -338v-29q49 88 91 119.5t103 31.5zM290 33q76 0 117 54.5t39 160.5q-2 97 -36 143t-89 46
q-57 0 -95.5 -38.5t-92.5 -137.5l2 -148q41 -42 76 -61t79 -19z" />
    <glyph glyph-name="c" unicode="c" horiz-adv-x="477" 
d="M255 -5q-89 0 -144 61.5t-55 174.5q0 110 53 179.5t148 69.5q69 0 112 -38.5t43 -111.5q0 -36 -12.5 -44.5t-44.5 0.5l1 41q0 42 -24.5 75.5t-77.5 33.5q-70 0 -108 -57t-38 -143q0 -93 41 -144.5t111 -51.5q46 0 79.5 20t64.5 66q42 -18 20 -52t-67.5 -56.5
t-101.5 -22.5z" />
    <glyph glyph-name="d" unicode="d" horiz-adv-x="553" 
d="M462 358q10 -222 25 -354q-20 -9 -34 -9q-26 0 -26 22l-2 123q-38 -83 -81.5 -116.5t-105.5 -33.5q-82 0 -132 60.5t-50 167.5q0 123 59 192.5t153 69.5q47 0 81 -18t70 -56l-6 314q24 6 37 6q23 0 23 -30q0 -114 -11 -338zM248 33q54 0 92.5 41.5t82.5 139.5l-1 64
l-2 81q-76 78 -153 78q-74 0 -119.5 -57t-40.5 -158q5 -104 42 -146.5t99 -42.5z" />
    <glyph glyph-name="e" unicode="e" horiz-adv-x="486" 
d="M408 102q15 -10 16.5 -27t-9.5 -27q-53 -53 -148 -53q-98 0 -157.5 60.5t-59.5 172.5q0 111 57 181.5t156 70.5q92 0 136.5 -72t22.5 -170h-319v-4q0 -93 45 -143.5t121 -50.5q77 0 139 62zM254 435q-66 0 -103.5 -44.5t-45.5 -116.5l269 4q6 69 -25 113t-95 44z" />
    <glyph glyph-name="f" unicode="f" horiz-adv-x="347" 
d="M141 -5q-22 0 -22 22q-2 238 -1 414l-95 2q-3 14 1 25t14 11h80l1 127q1 148 143 148q49 0 86 -16q24 -10 24 -26q0 -19 -13 -30q-48 31 -107 31q-84 0 -84 -88v-145l147 1q3 -20 -4 -29.5t-18 -9.5l-125 1l1 -218q0 -125 4 -215q-17 -5 -32 -5z" />
    <glyph glyph-name="g" unicode="g" horiz-adv-x="559" 
d="M464 264l17 -224q8 -114 -52.5 -173.5t-149.5 -59.5q-51 0 -103.5 18.5t-74.5 39.5q-12 12 -12 26q0 22 18 35q73 -76 166 -76q72 0 118.5 45t42.5 124l-8 144q-40 -79 -83 -111.5t-100 -32.5q-84 0 -135.5 57.5t-51.5 159.5q0 109 59 176.5t155 67.5q85 0 149 -67l-1 70
q18 4 31 4q17 0 23 -10t6 -34q0 -11 -14 -179zM248 63q56 0 94.5 37t80.5 124l-3 147q-42 37 -72.5 51t-70.5 14q-79 0 -125 -51t-43 -150q2 -88 40.5 -130t98.5 -42z" />
    <glyph glyph-name="h" unicode="h" horiz-adv-x="531" 
d="M450 354l-2 -193q0 -95 9 -158q-17 -8 -32 -8q-27 0 -27 35q0 54 1 161t1 161q0 40 -23 61.5t-58 21.5q-87 0 -185 -214l3 -221q-18 -5 -31 -5q-32 0 -32 57q0 20 3 45.5t8.5 64l7.5 52.5l-17 506q12 6 33 6q16 0 22 -8t5 -28q0 -1 -3 -182l-3 -214q99 186 197 186
q58 0 91 -31.5t32 -94.5z" />
    <glyph glyph-name="i" unicode="i" horiz-adv-x="218" 
d="M112 599q-17 0 -29.5 10.5t-12.5 31.5t11.5 34t28.5 13t29 -11.5t12 -33.5q0 -19 -11.5 -31.5t-27.5 -12.5zM106 -5q-22 0 -22 22q2 276 -5 453q17 5 31 5q24 0 24 -21q-2 -287 4 -454q-17 -5 -32 -5z" />
    <glyph glyph-name="j" unicode="j" horiz-adv-x="207" 
d="M101 599q-17 0 -29 10t-12 31t11 34.5t28 13.5t29 -11.5t12 -33.5q0 -19 -11.5 -31.5t-27.5 -12.5zM-19 -200q-41 0 -29 46q25 -5 58 -5q32 1 53 27.5t20 76.5l-4 286q-3 207 -5 239q18 5 31 5q24 0 24 -19v-226v-245q0 -96 -33.5 -140.5t-114.5 -44.5z" />
    <glyph glyph-name="k" unicode="k" horiz-adv-x="502" 
d="M450 453l-150 -225q75 -116 172 -202q-10 -31 -37 -31q-14 0 -31 17q-29 28 -67 85t-58 100l-121 -181q-14 -21 -38 -21q-35 0 -35 41v389q0 220 -9 295q12 6 33 6q17 0 23 -8t5 -28l-1 -297q0 -56 -1.5 -121t-3.5 -133.5t-3 -97.5l148 219q53 114 109 196q13 19 30 19
q19 0 35 -22z" />
    <glyph glyph-name="l" unicode="l" horiz-adv-x="218" 
d="M135 690q-1 -513 3 -690q-17 -5 -32 -5q-22 0 -22 22v141v136v114t-0.5 108.5t-1.5 83t-3 73.5t-4 47q12 6 33 6q16 0 22 -8t5 -28z" />
    <glyph glyph-name="m" unicode="m" horiz-adv-x="846" 
d="M111 -5q-34 0 -34 47q0 32 16 149q-5 147 -20 279q15 5 36 5q20 0 24 -17q3 -12 1 -132v-33q98 187 196 187q53 0 84.5 -34.5t31.5 -103.5v-49q95 187 196 187q57 0 90 -31.5t33 -94.5l-1 -212q0 -80 8 -139q-21 -8 -32 -8q-27 0 -27 34q0 42 1 147.5t1 175.5
q0 40 -23 62t-58 22q-81 0 -185 -215q0 -148 8 -221q-20 -5 -34 -5q-30 0 -30 41q0 20 4.5 81t5.5 86v149q0 41 -22.5 62.5t-58.5 21.5q-43 0 -87.5 -54t-97.5 -161l3 -221q-15 -5 -29 -5z" />
    <glyph glyph-name="n" unicode="n" horiz-adv-x="536" 
d="M111 -5q-32 0 -32 57q0 29 16 139q-5 147 -20 279q15 5 36 5q20 0 24 -17q3 -12 1 -132v-33q100 187 196 187q57 0 90.5 -32t32.5 -94l-2 -193q0 -95 9 -158q-17 -8 -32 -8q-27 0 -27 35q0 54 1 161t1 161q0 40 -23 62t-58 22q-87 0 -185 -215l3 -221q-18 -5 -31 -5z" />
    <glyph glyph-name="o" unicode="o" horiz-adv-x="532" 
d="M266 -10q-97 0 -155 62.5t-58 180.5q0 107 60 177t153 70q97 0 155 -62.5t58 -180.5q0 -107 -60 -177t-153 -70zM266 34q73 0 117 52.5t44 148.5t-44 148.5t-117 52.5t-117 -52.5t-44 -148.5t44 -148.5t117 -52.5z" />
    <glyph glyph-name="p" unicode="p" horiz-adv-x="544" 
d="M327 480q69 0 115 -56t46 -172q0 -120 -54 -191t-164 -71q-84 0 -143 42l1 -221q-12 -4 -27 -4q-20 0 -27 11.5t-7 45.5q0 57 17 318l-21 288q24 6 34 6q28 0 28 -26q0 -82 -1 -155q42 87 88.5 136t114.5 49zM268 34q82 0 124.5 55.5t42.5 159.5q0 98 -34.5 142.5
t-84.5 44.5q-54 0 -98.5 -53t-90.5 -162v-142q76 -45 141 -45z" />
    <glyph glyph-name="q" unicode="q" horiz-adv-x="545" 
d="M437 -180q-16 0 -20.5 4t-4.5 14l8 303q-35 -83 -76.5 -117t-104.5 -34q-183 0 -183 231q0 124 57 191.5t155 67.5q92 0 149 -57v48q15 4 24 4q29 0 29 -25q0 -61 -10 -175q1 -75 2.5 -224.5t1.5 -224.5q-18 -6 -27 -6zM242 28q33 0 58 11.5t45.5 37t34 50.5t33.5 68v202
q-44 24 -73 34.5t-67 10.5q-76 0 -121.5 -58t-45.5 -162q0 -103 37.5 -148.5t98.5 -45.5z" />
    <glyph glyph-name="r" unicode="r" horiz-adv-x="346" 
d="M287 480q33 0 33 -24q0 -12 -6 -26q-61 4 -95 -35t-83 -156v-2l3 -237q-18 -5 -31 -5q-32 0 -32 57q0 29 16 139q-5 147 -20 279q15 5 36 5q20 0 24 -17q3 -11 1 -129v-32q67 183 154 183z" />
    <glyph glyph-name="s" unicode="s" horiz-adv-x="426" 
d="M223 -5q-47 0 -90.5 14t-62.5 33q-32 31 11 57q57 -62 146 -62q46 0 73.5 18.5t27.5 57.5q0 33 -27.5 52t-96.5 47q-76 31 -106 61.5t-30 82.5q0 57 36.5 90.5t110.5 33.5q64 0 100 -31t36 -79q0 -26 -11 -31.5t-45 -2.5q10 102 -84 102q-91 0 -91 -76q0 -39 22.5 -60
t85.5 -47q80 -32 115.5 -60.5t35.5 -75.5q0 -57 -42.5 -90.5t-113.5 -33.5z" />
    <glyph glyph-name="t" unicode="t" horiz-adv-x="354" 
d="M311 60q28 -31 -13 -50q-32 -15 -81 -15q-112 0 -112 129q2 168 1 306l-82 2q-2 12 4.5 24t19.5 12q39 0 58 1q0 22 -0.5 64.5t-1.5 61.5q0 16 17.5 22t38.5 -1l-4 -147q26 1 77 1t76 1q3 -19 -4 -29t-18 -10h-131v-309q0 -25 2.5 -41t18 -32.5t45.5 -16.5q39 0 89 27z
" />
    <glyph glyph-name="u" unicode="u" horiz-adv-x="528" 
d="M433 253l20 -248q-15 -5 -26 -5q-28 0 -28 24l-1 132q-46 -89 -92 -125t-104 -36q-120 0 -120 131v191q0 64 -7 153q18 5 34 5q24 0 24 -22v-321q0 -93 73 -93q53 0 96.5 43.5t87.5 133.5l-3 254q25 5 34 5q16 0 21.5 -8t5.5 -32q0 -39 -15 -182z" />
    <glyph glyph-name="v" unicode="v" horiz-adv-x="472" 
d="M393 474q22 4 35.5 -4t6.5 -30q-60 -189 -156 -434q-22 -11 -36 -11q-18 0 -27.5 6t-16.5 26q-80 225 -170 431q16 15 35.5 16.5t29.5 -17.5q68 -173 155 -421q102 286 144 438z" />
    <glyph glyph-name="w" unicode="w" horiz-adv-x="769" 
d="M683 457q31 -75 31 -194q0 -134 -48 -201.5t-138 -67.5q-52 0 -90 26.5t-58 71.5q-48 -98 -155 -98q-156 0 -156 168v148q0 107 -7 160q18 5 33 5q25 0 25 -28l-1 -288q0 -124 109 -124q47 0 77 22.5t55 72.5l-8 340q24 7 34 5q23 -4 23 -33q0 -129 -11 -268
q15 -73 44 -106t87 -33q133 0 133 220q0 109 -37 212q16 8 29 8q22 0 29 -18z" />
    <glyph glyph-name="x" unicode="x" horiz-adv-x="456" 
d="M414 429l-158 -189q91 -127 168 -222q-16 -24 -38 -24q-14 0 -30 22q-15 21 -41 58.5t-48 69t-42 58.5l-96 -120q-39 -49 -58 -89q-37 3 -37 26q0 10 9 22l160 192q-84 116 -167 220q15 23 37 23q17 0 30 -20q6 -8 55 -78.5t76 -107.5l94 118q40 52 58 89q37 -3 37 -26
q0 -12 -9 -22z" />
    <glyph glyph-name="y" unicode="y" horiz-adv-x="523" 
d="M435 275l19 -231q9 -105 -49 -169t-152 -64q-45 0 -88 14t-70 36q-20 15 -20 33q0 21 27 34q20 -27 58.5 -50t90.5 -23q82 0 122.5 51t33.5 135l-11 139q-81 -164 -181 -164q-125 0 -125 127q0 238 -7 327q18 5 33 5q24 0 24 -22v-303q0 -44 17 -66.5t59 -22.5
q53 0 89 41.5t84 140.5l-3 227q15 5 31 5q18 0 23.5 -7.5t5.5 -32.5q0 -13 -2 -38.5t-5 -62.5t-4 -59z" />
    <glyph glyph-name="z" unicode="z" horiz-adv-x="446" 
d="M407 43q11 -45 -24 -45q-205 0 -332 2q-16 27 -2 45q159 203 293 392q-163 -7 -277 -6q-31 0 -15 42q145 -8 348 -1q9 -32 -4 -48q-133 -164 -293 -389q205 0 306 8z" />
    <glyph glyph-name="braceleft" unicode="{" horiz-adv-x="355" 
d="M275 -105q15 0 56 13q12 -28 0 -43t-57 -15q-141 0 -141 126q0 43 24.5 130t24.5 116q0 64 -27 89.5t-82 25.5h-11q-4 16 -4 21q0 21 14 21q57 0 83.5 27t26.5 89q0 29 -24.5 116t-24.5 130q0 126 141 126q45 0 57 -14.5t0 -43.5q-42 12 -56 13q-99 3 -99 -80
q0 -40 27.5 -129.5t27.5 -113.5q0 -119 -113 -140q113 -23 113 -141q0 -24 -27.5 -113.5t-27.5 -129.5q0 -83 99 -80z" />
    <glyph glyph-name="bar" unicode="|" horiz-adv-x="248" 
d="M123 -43q-23 0 -23 20t2.5 407.5t-1.5 415.5q16 6 26 6q19 0 19 -15q0 -726 2 -828q-14 -6 -25 -6z" />
    <glyph glyph-name="braceright" unicode="}" horiz-adv-x="347" 
d="M312 380h11q4 -16 4 -21q0 -21 -14 -21q-57 0 -83.5 -27t-26.5 -89q0 -29 24.5 -116t24.5 -130q0 -126 -141 -126q-45 0 -57 15t0 43q42 -12 56 -13q99 -3 99 80q0 40 -27.5 129.5t-27.5 113.5q0 119 113 140q-113 23 -113 141q0 24 27.5 113.5t27.5 129.5q0 83 -99 80
q-15 0 -56 -13q-12 29 0 43.5t57 14.5q141 0 141 -126q0 -43 -24.5 -130t-24.5 -116q0 -64 27 -89.5t82 -25.5z" />
    <glyph glyph-name="exclamdown" unicode="&#xa1;" horiz-adv-x="251" 
d="M117 392q-22 0 -34 13t-12 34q0 47 46 47q43 0 43 -47q0 -21 -11.5 -34t-31.5 -13zM77 -227l19 508q24 2 32 -3.5t8 -27.5l4 -499q-65 -19 -63 22z" />
    <glyph glyph-name="cent" unicode="&#xa2;" horiz-adv-x="550" 
d="M470 171q0 -10 -8 -18q-55 -55 -146 -61q0 -51 3 -99q-13 -6 -30 -6q-27 0 -27 20q0 43 3 86q-93 11 -145 81.5t-52 190.5q0 114 53 188t147 81q-1 26 -5 95q16 6 27 6q24 0 26 -15q4 -28 -2 -86q62 -6 96 -38.5t38 -72.5q6 -62 -7 -71t-47 -1q3 15 0 59q-2 32 -26 57.5
t-80 25.5q-80 0 -122 -63t-42 -165q0 -113 45.5 -172.5t130.5 -59.5q43 0 77 16t76 52q17 -15 17 -30z" />
    <glyph glyph-name="sterling" unicode="&#xa3;" horiz-adv-x="614" 
d="M538 46q7 -35 -2 -45t-39 -10q-60 0 -196.5 6t-213.5 2q-12 37 13 39q30 2 47 2q74 74 74 167q0 58 -24 128l-120 -3q-3 24 3 33t31 9h72q-1 3 -11 28.5t-12 31.5t-9 26.5t-9 30.5t-4.5 25t-2.5 28q0 91 51.5 138.5t144.5 47.5q81 0 129 -42.5t45 -118.5q-2 -39 -22 -42
q-16 -2 -33 2q15 96 -20 131t-105 35q-143 0 -143 -146q0 -18 2.5 -34.5t9.5 -38t10.5 -32t15.5 -38t14 -33.5q35 0 113.5 -0.5t121.5 -0.5q1 -21 -2.5 -28.5t-15.5 -7.5q-134 0 -202 -1q19 -55 19 -101q0 -117 -77 -193q38 0 119 -1.5t136.5 -0.5t91.5 7z" />
    <glyph glyph-name="currency" unicode="&#xa4;" horiz-adv-x="606" 
d="M441 249l62 -59q-9 -17 -16 -22q-13 -11 -28 4l-44 47q-48 -41 -113 -41q-74 0 -116 36l-49 -51q-15 9 -20 16q-11 13 5 27l40 34q-29 41 -29 101q0 63 36 112l-60 55q5 18 15 25q13 10 27 -6l42 -47q48 42 116 42q69 0 111 -34l47 48q9 -4 16 -11q15 -15 -2 -33l-35 -32
q29 -43 29 -103q0 -62 -34 -108zM306 211q62 0 94 38.5t30 105.5q-1 66 -34 100t-90 34q-59 0 -92.5 -36.5t-34.5 -103.5q-1 -66 33 -102t94 -36z" />
    <glyph glyph-name="yen" unicode="&#xa5;" horiz-adv-x="653" 
d="M551 733q17 0 23.5 -11t-0.5 -24q-58 -110 -202 -391h175q2 -22 -2 -30t-16 -8q-107 0 -167 -1l1 -83h184q2 -22 -2 -30t-16 -8q-106 0 -166 -1l2 -146q-17 -5 -26 -5q-31 0 -29 24v127q-135 -2 -183 -3q-2 27 3 35t31 8h149v82q-135 -2 -183 -3q-2 27 3 35t31 8h136
q-193 343 -228 403q18 24 39 24q15 0 26 -19q15 -27 52 -97.5t84 -162t67 -130.5q79 156 193 404q9 3 21 3z" />
    <glyph glyph-name="brokenbar" unicode="&#xa6;" horiz-adv-x="245" 
d="M145 791q0 -188 -1 -290q0 -40 1 -59q-16 -6 -24 -6q-21 0 -21 21v137v132.5v73.5q16 6 26 6q19 0 19 -15zM145 313q0 -43 -0.5 -140t-0.5 -150q0 -40 1 -59q-16 -6 -24 -6q-21 0 -21 21v137v132.5v73.5q16 6 26 6q19 0 19 -15z" />
    <glyph glyph-name="section" unicode="&#xa7;" horiz-adv-x="568" 
d="M284 740q68 0 114.5 -33.5t48.5 -94.5q2 -51 -11 -57q-14 -6 -44 -2q1 13 1 41q0 56 -30 82t-77 26q-55 0 -84 -24.5t-29 -67.5q0 -70 85 -115l98 -52q104 -55 104 -140q0 -42 -26 -72t-60 -43l-5 3q41 36 41 99q0 71 -70 109l-99 55q-62 35 -89.5 68.5t-27.5 82.5
q0 64 41.5 99.5t118.5 35.5zM271 -94q-68 0 -114.5 33.5t-48.5 94.5q-2 51 11 57q14 6 44 2q-1 -13 -1 -41q0 -56 30 -82t77 -26q55 0 84 24.5t29 67.5q0 70 -85 115l-98 52q-104 55 -104 140q0 42 26 72t60 43l5 -3q-41 -36 -41 -99q0 -71 70 -109l99 -55
q62 -35 89.5 -68.5t27.5 -82.5q0 -64 -41.5 -99.5t-118.5 -35.5z" />
    <glyph glyph-name="dieresis" unicode="&#xa8;" horiz-adv-x="428" 
d="M118 603q-39 0 -39 44t39 44t39 -44t-39 -44zM312 603q-39 0 -39 44t39 44t39 -44t-39 -44z" />
    <glyph glyph-name="copyright" unicode="&#xa9;" horiz-adv-x="888" 
d="M444 735q169 0 269 -101t100 -267q0 -167 -100 -267.5t-269 -100.5t-269 100.5t-100 267.5q0 166 100 267t269 101zM444 25q157 0 247.5 93t90.5 249t-90.5 249t-247.5 93t-247.5 -93t-90.5 -249t90.5 -249t247.5 -93zM452 182q-73 0 -114.5 49.5t-41.5 138.5
q0 81 40 132.5t110 51.5q50 0 77 -23t31 -54q7 -42 -4 -48q-8 -6 -31 -1v40q-5 57 -73 57q-55 0 -83.5 -42.5t-28.5 -112.5q0 -77 31 -117.5t89 -40.5q53 0 105 45q11 -9 11 -20q0 -6 -5 -12q-15 -18 -46.5 -30.5t-66.5 -12.5z" />
    <glyph glyph-name="guillemotleft" unicode="&#xab;" horiz-adv-x="621" 
d="M98 218q76 -41 128.5 -89t52.5 -90q0 -39 -38 -39q-7 38 -26 70.5t-47.5 57.5t-47 37.5t-45.5 28.5l-5 46q175 94 194 227q42 -3 42 -32q0 -52 -68 -114.5t-140 -102.5zM318 218q76 -41 128.5 -89t52.5 -90q0 -39 -38 -39q-7 38 -26 70.5t-47.5 57.5t-47 37.5t-45.5 28.5
l-5 46q175 94 194 227q42 -3 42 -32q0 -52 -68 -114.5t-140 -102.5z" />
    <glyph glyph-name="registered" unicode="&#xae;" horiz-adv-x="713" 
d="M356 200q-118 0 -192.5 73t-74.5 189q0 115 75 188.5t192 73.5q119 0 193.5 -73t74.5 -189q0 -115 -75 -188.5t-193 -73.5zM356 223q109 0 174.5 66t65.5 173t-66 173t-174 66t-173.5 -66t-65.5 -173q0 -106 66 -172.5t173 -66.5zM447 320q-8 0 -15 11l-62 109h-22h-38
v-50q0 -45 1 -67q-6 -2 -10 -2q-11 0 -11 5v250q0 10 4 15h-27q-5 16 5 16h91q44 0 68 -20.5t24 -57.5q0 -67 -68 -85q30 -55 74 -114q-6 -10 -14 -10zM310 591v-136h39q82 0 82 76q0 60 -70 60h-51z" />
    <glyph glyph-name="macron" unicode="&#xaf;" horiz-adv-x="442" 
d="M99 628q-4 25 2 35t32 10q39 0 115.5 -0.5t94.5 -0.5q6 -17 1.5 -28t-25.5 -11q-140 0 -220 -5z" />
    <glyph glyph-name="degree" unicode="&#xb0;" horiz-adv-x="462" 
d="M231 730q64 0 106.5 -36t42.5 -97t-42.5 -97t-106.5 -36t-106.5 36t-42.5 97t42.5 97t106.5 36zM231 500q47 0 74 26t27 71t-27 71t-74 26t-74 -26t-27 -71t27 -71t74 -26z" />
    <glyph glyph-name="acute" unicode="&#xb4;" horiz-adv-x="341" 
d="M228 676l-103 -119q-13 4 -21 13.5t0 22.5q9 14 45 64.5t52 81.5q20 -3 31 -12q10 -7 10 -21t-14 -30z" />
    <glyph glyph-name="paragraph" unicode="&#xb6;" horiz-adv-x="608" 
d="M547 730q4 -20 4 -30q0 -20 -27 -20h-39v-747q0 -16 -14 -16q-5 0 -26 3q0 134 2 387t2 373q-16 0 -46 0.5t-50 0.5q0 -127 -1 -367t-1 -374q0 -23 -23 -23q-10 0 -30 4l4 429q-29 -8 -69 -8q-73 0 -113 49.5t-40 130.5q0 90 40.5 141t112.5 61q44 6 152 6q8 0 39 -0.5
t63 -0.5t60 1z" />
    <glyph glyph-name="periodcentered" unicode="&#xb7;" horiz-adv-x="210" 
d="M107 230q-22 0 -34 15.5t-12 38.5q0 45 46 45q20 0 31.5 -13t11.5 -34q0 -23 -11.5 -37.5t-31.5 -14.5z" />
    <glyph glyph-name="cedilla" unicode="&#xb8;" horiz-adv-x="400" 
d="M119 -229q-20 0 -28.5 5t-8.5 18q0 6 3 17q64 -5 100.5 11.5t36.5 49.5q0 52 -92 37l-1 21q35 8 64 8q73 0 73 -69q0 -46 -43.5 -72t-103.5 -26z" />
    <glyph glyph-name="guillemotright" unicode="&#xbb;" horiz-adv-x="621" 
d="M325 273l5 -46q-175 -94 -194 -227q-42 3 -42 32q0 52 68 114.5t140 102.5q-76 41 -128.5 89t-52.5 90q0 39 38 39q7 -38 26 -70.5t47.5 -57.5t47 -37.5t45.5 -28.5zM545 273l5 -46q-175 -94 -194 -227q-42 3 -42 32q0 52 68 114.5t140 102.5q-76 41 -128.5 89t-52.5 90
q0 39 38 39q7 -38 26 -70.5t47.5 -57.5t47 -37.5t45.5 -28.5z" />
    <glyph glyph-name="questiondown" unicode="&#xbf;" horiz-adv-x="576" 
d="M291 491q22 0 34 -14.5t12 -36.5t-12 -35t-35 -13q-46 0 -46 46q0 22 12.5 37.5t34.5 15.5zM316 275q12 -20 12 -64q0 -47 -18 -83.5t-44 -60.5t-52.5 -47t-44.5 -55.5t-18 -72.5q0 -122 127 -122q71 0 107.5 51.5t7.5 111.5q29 15 45.5 3.5t16.5 -44.5q0 -75 -50 -117.5
t-134 -42.5q-82 0 -127.5 40t-44.5 118q0 42 19.5 77t47 59.5l55 49t46.5 57t19 70.5q0 33 -20 67q11 17 27.5 16t22.5 -11z" />
    <glyph glyph-name="Agrave" unicode="&#xc0;" horiz-adv-x="696" 
d="M368 807l-103 119q-14 16 -14 30q0 13 10 21q11 9 31 12q16 -31 52 -81.5t45 -64.5q8 -13 0 -22.5t-21 -13.5zM397 698l184 -545q3 -9 9.5 -30.5t10.5 -33t10 -28t12 -29t13 -22.5q-16 -16 -37 -16q-22 0 -28 17l-73 225q-204 -8 -306 -5l-51 -148q-16 -48 -20 -83
q-13 -6 -33 -6q-14 0 -21 8.5t-3 20.5l226 634q13 35 20 63q28 6 41 6q37 0 46 -28zM351 689l-146 -421l282 3z" />
    <glyph glyph-name="Aacute" unicode="&#xc1;" horiz-adv-x="696" 
d="M421 926l-103 -119q-13 4 -21 13.5t0 22.5q9 14 45 64.5t52 81.5q20 -3 31 -12q10 -8 10 -21q0 -14 -14 -30zM397 698l184 -545q3 -9 9.5 -30.5t10.5 -33t10 -28t12 -29t13 -22.5q-16 -16 -37 -16q-22 0 -28 17l-73 225q-204 -8 -306 -5l-51 -148q-16 -48 -20 -83
q-13 -6 -33 -6q-14 0 -21 8.5t-3 20.5l226 634q13 35 20 63q28 6 41 6q37 0 46 -28zM351 689l-146 -421l282 3z" />
    <glyph glyph-name="Acircumflex" unicode="&#xc2;" horiz-adv-x="696" 
d="M212 820q-5 4 -16 23q17 14 31.5 28t24 24.5l28.5 31.5t34 37q20 21 35 21q14 0 32 -21q90 -102 111 -122q-15 -26 -35 -26q-10 0 -24 16q-42 47 -86 119q-36 -55 -93 -120q-22 -25 -42 -11zM397 698l184 -545q3 -9 9.5 -30.5t10.5 -33t10 -28t12 -29t13 -22.5
q-16 -16 -37 -16q-22 0 -28 17l-73 225q-204 -8 -306 -5l-51 -148q-16 -48 -20 -83q-13 -6 -33 -6q-14 0 -21 8.5t-3 20.5l226 634q13 35 20 63q28 6 41 6q37 0 46 -28zM351 689l-146 -421l282 3z" />
    <glyph glyph-name="Atilde" unicode="&#xc3;" horiz-adv-x="696" 
d="M217 828q-28 0 -28 36q0 39 25.5 58t56.5 19q24 0 46.5 -13t36 -28.5t32 -28.5t35.5 -13q32 0 32 36q0 16 -8 37q17 7 30 7q28 0 28 -34q0 -38 -25 -58.5t-58 -20.5q-24 0 -45.5 13t-35.5 28.5t-32.5 28.5t-35.5 13q-32 0 -32 -36q0 -18 8 -37q-18 -7 -30 -7zM397 698
l184 -545q3 -9 9.5 -30.5t10.5 -33t10 -28t12 -29t13 -22.5q-16 -16 -37 -16q-22 0 -28 17l-73 225q-204 -8 -306 -5l-51 -148q-16 -48 -20 -83q-13 -6 -33 -6q-14 0 -21 8.5t-3 20.5l226 634q13 35 20 63q28 6 41 6q37 0 46 -28zM351 689l-146 -421l282 3z" />
    <glyph glyph-name="Adieresis" unicode="&#xc4;" horiz-adv-x="696" 
d="M253 833q-39 0 -39 44t39 44t39 -44t-39 -44zM447 833q-39 0 -39 44t39 44t39 -44t-39 -44zM397 698l184 -545q3 -9 9.5 -30.5t10.5 -33t10 -28t12 -29t13 -22.5q-16 -16 -37 -16q-22 0 -28 17l-73 225q-204 -8 -306 -5l-51 -148q-16 -48 -20 -83q-13 -6 -33 -6
q-14 0 -21 8.5t-3 20.5l226 634q13 35 20 63q28 6 41 6q37 0 46 -28zM351 689l-146 -421l282 3z" />
    <glyph glyph-name="Aring" unicode="&#xc5;" horiz-adv-x="696" 
d="M346 810q-50 0 -78 24.5t-28 68.5q0 43 28.5 67.5t77.5 24.5q50 0 78 -24.5t28 -67.5t-29 -68t-77 -25zM346 964q-26 0 -41.5 -16t-15.5 -45t15.5 -45.5t41.5 -16.5t41.5 16.5t15.5 45.5t-15.5 45t-41.5 16zM397 698l184 -545q3 -9 9.5 -30.5t10.5 -33t10 -28t12 -29
t13 -22.5q-16 -16 -37 -16q-22 0 -28 17l-73 225q-204 -8 -306 -5l-51 -148q-16 -48 -20 -83q-13 -6 -33 -6q-14 0 -21 8.5t-3 20.5l226 634q13 35 20 63q28 6 41 6q37 0 46 -28zM351 689l-146 -421l282 3z" />
    <glyph glyph-name="Ccedilla" unicode="&#xc7;" horiz-adv-x="649" 
d="M361 -5q-136 0 -213 90t-77 254q0 171 75.5 281t203.5 110q95 0 152 -64.5t57 -164.5q0 -37 -11.5 -47.5t-48.5 -3.5v57q0 92 -41 134.5t-107 42.5q-108 0 -167 -95.5t-59 -244.5q0 -148 65.5 -225.5t174.5 -77.5q104 0 203 124q44 -20 14 -63q-28 -41 -90.5 -74
t-130.5 -33zM262 -229q-20 0 -28.5 5t-8.5 18q0 6 3 17q64 -5 100.5 11.5t36.5 49.5q0 52 -92 37l-1 21q35 8 64 8q73 0 73 -69q0 -46 -43.5 -72t-103.5 -26z" />
    <glyph glyph-name="Egrave" unicode="&#xc8;" horiz-adv-x="560" 
d="M324 807l-103 119q-14 16 -14 30q0 13 10 21q11 9 31 12q16 -31 52 -81.5t45 -64.5q8 -13 0 -22.5t-21 -13.5zM523 44q4 -18 -3 -30.5t-27 -13.5q-163 -4 -327 0q-27 1 -39 11.5t-13 35.5q-4 297 0 591q0 25 7 40q-44 0 -66 1q-12 39 13 39q219 3 439 3q5 -23 -8.5 -34
t-55.5 -11q-185 0 -277 1v-304q120 4 289 2q5 -19 -3.5 -29.5t-25.5 -10.5h-260v-295q247 0 357 4z" />
    <glyph glyph-name="Eacute" unicode="&#xc9;" horiz-adv-x="560" 
d="M377 926l-103 -119q-13 4 -21 13.5t0 22.5q9 14 45 64.5t52 81.5q20 -3 31 -12q10 -8 10 -21q0 -14 -14 -30zM523 44q4 -18 -3 -30.5t-27 -13.5q-163 -4 -327 0q-27 1 -39 11.5t-13 35.5q-4 297 0 591q0 25 7 40q-44 0 -66 1q-12 39 13 39q219 3 439 3q5 -23 -8.5 -34
t-55.5 -11q-185 0 -277 1v-304q120 4 289 2q5 -19 -3.5 -29.5t-25.5 -10.5h-260v-295q247 0 357 4z" />
    <glyph glyph-name="Ecircumflex" unicode="&#xca;" horiz-adv-x="560" 
d="M168 820q-5 4 -16 23q17 14 31.5 28t24 24.5l28.5 31.5t34 37q20 21 35 21q14 0 32 -21q90 -102 111 -122q-15 -26 -35 -26q-10 0 -24 16q-42 47 -86 119q-36 -55 -93 -120q-22 -25 -42 -11zM523 44q4 -18 -3 -30.5t-27 -13.5q-163 -4 -327 0q-27 1 -39 11.5t-13 35.5
q-4 297 0 591q0 25 7 40q-44 0 -66 1q-12 39 13 39q219 3 439 3q5 -23 -8.5 -34t-55.5 -11q-185 0 -277 1v-304q120 4 289 2q5 -19 -3.5 -29.5t-25.5 -10.5h-260v-295q247 0 357 4z" />
    <glyph glyph-name="Edieresis" unicode="&#xcb;" horiz-adv-x="560" 
d="M209 833q-39 0 -39 44t39 44t39 -44t-39 -44zM403 833q-39 0 -39 44t39 44t39 -44t-39 -44zM523 44q4 -18 -3 -30.5t-27 -13.5q-163 -4 -327 0q-27 1 -39 11.5t-13 35.5q-4 297 0 591q0 25 7 40q-44 0 -66 1q-12 39 13 39q219 3 439 3q5 -23 -8.5 -34t-55.5 -11
q-185 0 -277 1v-304q120 4 289 2q5 -19 -3.5 -29.5t-25.5 -10.5h-260v-295q247 0 357 4z" />
    <glyph glyph-name="Igrave" unicode="&#xcc;" horiz-adv-x="388" 
d="M198 807l-103 119q-14 16 -14 30q0 13 10 21q11 9 31 12q16 -31 52 -81.5t45 -64.5q8 -13 0 -22.5t-21 -13.5zM220 36q34 -1 103 -1q5 -14 0.5 -24.5t-16.5 -10.5q-35 0 -121 0.5t-121 -0.5q-5 12 -0.5 23.5t15.5 11.5q29 1 88 1v324.5v325.5q-69 0 -103 -1
q-5 12 -0.5 23.5t15.5 11.5h243q5 -14 0.5 -24.5t-16.5 -10.5h-87v-324.5v-324.5z" />
    <glyph glyph-name="Iacute" unicode="&#xcd;" horiz-adv-x="388" 
d="M251 926l-103 -119q-13 4 -21 13.5t0 22.5q9 14 45 64.5t52 81.5q20 -3 31 -12q10 -8 10 -21q0 -14 -14 -30zM220 36q34 -1 103 -1q5 -14 0.5 -24.5t-16.5 -10.5q-35 0 -121 0.5t-121 -0.5q-5 12 -0.5 23.5t15.5 11.5q29 1 88 1v324.5v325.5q-69 0 -103 -1
q-5 12 -0.5 23.5t15.5 11.5h243q5 -14 0.5 -24.5t-16.5 -10.5h-87v-324.5v-324.5z" />
    <glyph glyph-name="Icircumflex" unicode="&#xce;" horiz-adv-x="388" 
d="M84 831q-22 -25 -42 -11q-5 4 -16 23q17 14 31.5 28t24 24.5l28.5 31.5t34 37q20 21 35 21q14 0 32 -21q90 -102 111 -122q-15 -26 -35 -26q-10 0 -24 16q-42 47 -86 119q-36 -55 -93 -120zM220 36q34 -1 103 -1q5 -14 0.5 -24.5t-16.5 -10.5q-35 0 -121 0.5t-121 -0.5
q-5 12 -0.5 23.5t15.5 11.5q29 1 88 1v324.5v325.5q-69 0 -103 -1q-5 12 -0.5 23.5t15.5 11.5h243q5 -14 0.5 -24.5t-16.5 -10.5h-87v-324.5v-324.5z" />
    <glyph glyph-name="Idieresis" unicode="&#xcf;" horiz-adv-x="388" 
d="M122 877q0 -44 -39 -44t-39 44t39 44t39 -44zM277 833q-39 0 -39 44t39 44t39 -44t-39 -44zM220 36q34 -1 103 -1q5 -14 0.5 -24.5t-16.5 -10.5q-35 0 -121 0.5t-121 -0.5q-5 12 -0.5 23.5t15.5 11.5q29 1 88 1v324.5v325.5q-69 0 -103 -1q-5 12 -0.5 23.5t15.5 11.5h243
q5 -14 0.5 -24.5t-16.5 -10.5h-87v-324.5v-324.5z" />
    <glyph glyph-name="Eth" unicode="&#xd0;" horiz-adv-x="666" 
d="M270 730q191 0 283.5 -88t92.5 -273q0 -186 -94.5 -280t-261.5 -94q-76 0 -115 5q-25 2 -33.5 10t-8.5 33q-2 252 -2 289q-20 -1 -64 -1q-21 0 -14 33q55 0 78 1q0 40 2 276q0 21 5 32q-36 -4 -57 -7q-7 17 -3 34.5t17 18.5q108 11 175 11zM299 41q142 0 217.5 85.5
t75.5 249.5q0 165 -78 236.5t-231 71.5q-38 0 -98 -6l1 -311q46 3 87 3q11 0 13.5 -12.5t-4.5 -20.5q-44 0 -96 -3v-285q61 -8 113 -8z" />
    <glyph glyph-name="Ntilde" unicode="&#xd1;" horiz-adv-x="707" 
d="M224 827q-28 0 -28 36q0 39 25.5 58t56.5 19t57.5 -21t49 -41.5t43.5 -20.5q32 0 32 36q0 16 -8 37q17 7 30 7q28 0 28 -34q0 -38 -25 -58.5t-58 -20.5q-30 0 -56 21t-49 41.5t-44 20.5q-32 0 -32 -36q0 -18 8 -37q-17 -7 -30 -7zM579 727q11 0 17.5 -6t6.5 -14v-671
q0 -24 -15 -32t-47 -8l-391 671q2 -75 5.5 -358.5t4.5 -308.5q-16 -6 -32 -6q-11 0 -17.5 7.5t-6.5 19.5v89t0.5 220t0.5 390q25 5 35 5q28 0 41 -23l378 -644q-5 125 -7.5 373.5t-3.5 288.5q16 7 31 7z" />
    <glyph glyph-name="Ograve" unicode="&#xd2;" horiz-adv-x="777" 
d="M396 807l-103 119q-14 16 -14 30q0 13 10 21q11 9 31 12q16 -31 52 -81.5t45 -64.5q8 -13 0 -22.5t-21 -13.5zM388 -10q-142 0 -223 98.5t-81 268.5q0 171 82 272t222 101q141 0 223 -101t82 -272q0 -170 -81.5 -268.5t-223.5 -98.5zM399 36q114 4 179 91.5t60 238.5
t-76 236.5t-185 81.5q-115 -5 -179 -95t-59 -241t75.5 -233.5t184.5 -78.5z" />
    <glyph glyph-name="Oacute" unicode="&#xd3;" horiz-adv-x="777" 
d="M449 926l-103 -119q-13 4 -21 13.5t0 22.5q9 14 45 64.5t52 81.5q20 -3 31 -12q10 -8 10 -21q0 -14 -14 -30zM388 -10q-142 0 -223 98.5t-81 268.5q0 171 82 272t222 101q141 0 223 -101t82 -272q0 -170 -81.5 -268.5t-223.5 -98.5zM399 36q114 4 179 91.5t60 238.5
t-76 236.5t-185 81.5q-115 -5 -179 -95t-59 -241t75.5 -233.5t184.5 -78.5z" />
    <glyph glyph-name="Ocircumflex" unicode="&#xd4;" horiz-adv-x="777" 
d="M240 820q-5 4 -16 23q17 14 31.5 28t24 24.5l28.5 31.5t34 37q20 21 35 21q14 0 32 -21q90 -102 111 -122q-15 -26 -35 -26q-10 0 -24 16q-42 47 -86 119q-36 -55 -93 -120q-22 -25 -42 -11zM388 730q141 0 223 -101t82 -272q0 -170 -81.5 -268.5t-223.5 -98.5t-223 98.5
t-81 268.5q0 171 82 272t222 101zM399 36q114 4 179 91.5t60 238.5t-76 236.5t-185 81.5q-115 -5 -179 -95t-59 -241t75.5 -233.5t184.5 -78.5z" />
    <glyph glyph-name="Otilde" unicode="&#xd5;" horiz-adv-x="777" 
d="M245 828q-28 0 -28 36q0 39 25.5 58t56.5 19q24 0 46.5 -13t36 -28.5t32 -28.5t35.5 -13q32 0 32 36q0 16 -8 37q18 7 30 7q28 0 28 -34q0 -38 -25 -58.5t-58 -20.5q-24 0 -45.5 13t-35.5 28.5t-32.5 28.5t-35.5 13q-32 0 -32 -36q0 -18 8 -37q-17 -7 -30 -7zM388 -10
q-142 0 -223 98.5t-81 268.5q0 171 82 272t222 101q141 0 223 -101t82 -272q0 -170 -81.5 -268.5t-223.5 -98.5zM399 36q114 4 179 91.5t60 238.5t-76 236.5t-185 81.5q-115 -5 -179 -95t-59 -241t75.5 -233.5t184.5 -78.5z" />
    <glyph glyph-name="Odieresis" unicode="&#xd6;" horiz-adv-x="777" 
d="M281 833q-39 0 -39 44t39 44t39 -44t-39 -44zM475 833q-39 0 -39 44t39 44t39 -44t-39 -44zM388 -10q-142 0 -223 98.5t-81 268.5q0 171 82 272t222 101q141 0 223 -101t82 -272q0 -170 -81.5 -268.5t-223.5 -98.5zM399 36q114 4 179 91.5t60 238.5t-76 236.5t-185 81.5
q-115 -5 -179 -95t-59 -241t75.5 -233.5t184.5 -78.5z" />
    <glyph glyph-name="Oslash" unicode="&#xd8;" horiz-adv-x="753" 
d="M513 704q85 -38 132.5 -129t47.5 -218q0 -170 -81.5 -268.5t-223.5 -98.5q-57 0 -102 16l-27 -90q-25 -4 -38 3.5t-7 23.5q20 54 29 81q-76 42 -117.5 127.5t-41.5 205.5q0 171 82 272t222 101q40 0 82 -10q5 15 13.5 43.5t12.5 39.5q23 4 35.5 -4.5t6.5 -24.5
q-3 -9 -12 -33t-13 -37zM139 348q7 -198 122 -274q85 245 195 600q-35 12 -79 10q-115 -5 -179 -95t-59 -241zM399 36q114 4 179 91.5t60 238.5q-8 218 -142 291q-78 -225 -195 -605q42 -18 98 -16z" />
    <glyph glyph-name="Ugrave" unicode="&#xd9;" horiz-adv-x="723" 
d="M384 817l-103 119q-14 16 -14 30t10 21q11 9 31 12q16 -31 52 -81.5t45 -64.5q8 -13 0 -22.5t-21 -13.5zM363 -10q-122 0 -187.5 70t-65.5 191q0 372 -6 469q20 6 32 6q26 0 26 -19q3 -54 2 -233t-1 -222q1 -102 54 -159t146 -57t145.5 56.5t53.5 159.5q3 282 -6 468
q20 6 34 6q25 0 25 -21q3 0 1 -223l-1 -223q0 -125 -64.5 -197t-187.5 -72z" />
    <glyph glyph-name="Uacute" unicode="&#xda;" horiz-adv-x="723" 
d="M437 936l-103 -119q-13 4 -21 13.5t0 22.5q9 14 45 64.5t52 81.5q20 -3 31 -12q10 -7 10 -21t-14 -30zM363 -10q-122 0 -187.5 70t-65.5 191q0 372 -6 469q20 6 32 6q26 0 26 -19q3 -54 2 -233t-1 -222q1 -102 54 -159t146 -57t145.5 56.5t53.5 159.5q3 282 -6 468
q20 6 34 6q25 0 25 -21q3 0 1 -223l-1 -223q0 -125 -64.5 -197t-187.5 -72z" />
    <glyph glyph-name="Ucircumflex" unicode="&#xdb;" horiz-adv-x="723" 
d="M228 830q-5 4 -16 23q17 14 31.5 28t24 24.5l28.5 31.5t34 37q20 21 35 21q14 0 32 -21q90 -102 111 -122q-15 -26 -35 -26q-10 0 -24 16q-42 47 -86 119q-36 -55 -93 -120q-22 -25 -42 -11zM615 705q3 0 1 -223l-1 -223q0 -125 -64.5 -197t-187.5 -72q-122 0 -187.5 70
t-65.5 191q0 372 -6 469q20 6 32 6q26 0 26 -19q3 -54 2 -233t-1 -222q1 -102 54 -159t146 -57t145.5 56.5t53.5 159.5q3 282 -6 468q20 6 34 6q25 0 25 -21z" />
    <glyph glyph-name="Udieresis" unicode="&#xdc;" horiz-adv-x="723" 
d="M269 843q-39 0 -39 44t39 44t39 -44t-39 -44zM463 843q-39 0 -39 44t39 44t39 -44t-39 -44zM363 -10q-122 0 -187.5 70t-65.5 191q0 372 -6 469q20 6 32 6q26 0 26 -19q3 -54 2 -233t-1 -222q1 -102 54 -159t146 -57t145.5 56.5t53.5 159.5q3 282 -6 468q20 6 34 6
q25 0 25 -21q3 0 1 -223l-1 -223q0 -125 -64.5 -197t-187.5 -72z" />
    <glyph glyph-name="Yacute" unicode="&#xdd;" horiz-adv-x="586" 
d="M337 936l-103 -119q-13 4 -21 13.5t0 22.5q9 14 45 64.5t52 81.5q20 -3 31 -12q10 -7 10 -21t-14 -30zM500 737q28 1 38 -13.5t1 -35.5q-17 -38 -101 -214.5t-108 -223.5l3 -250q-17 -5 -25 -5q-16 0 -22 5.5t-6 18.5v237q-154 305 -242 455q18 24 39 24q14 0 21 -13
q25 -42 54.5 -99.5t49.5 -99.5l55 -115.5t50 -104.5q88 156 193 434z" />
    <glyph glyph-name="Thorn" unicode="&#xde;" horiz-adv-x="578" 
d="M231 603q151 0 229.5 -50.5t78.5 -168.5q0 -111 -69 -172.5t-195 -61.5q-47 0 -96 7v-157q-12 -6 -26 -6q-26 0 -26 14v549q-15 -1 -78 -8q-5 17 0 31t18 15q20 2 60 4v121q16 6 23 6q28 0 28 -15v-109q18 1 53 1zM285 188q91 0 145.5 51.5t54.5 141.5q0 91 -55.5 136
t-200.5 45q-8 0 -25 -0.5t-26 -0.5l1 -363q62 -10 106 -10z" />
    <glyph glyph-name="germandbls" unicode="&#xdf;" horiz-adv-x="600" 
d="M117 -3q-13 0 -18 6t-5 22v498q0 99 46.5 153t130.5 54q74 0 115 -34.5t41 -95.5q0 -41 -41.5 -105.5t-41.5 -106.5q0 -33 36 -60l28 -21t27.5 -20.5t23 -19t22.5 -21.5t17 -22t14.5 -25.5t8 -26.5t3.5 -32q0 -145 -168 -145q-58 0 -99 19q-27 13 -9 53q57 -33 107 -33
q117 0 117 106q0 15 -6.5 31t-14 27t-25 27t-26 23.5t-32.5 25.5t-31 23q-40 31 -40 78q0 40 19.5 75t39.5 68.5t20 69.5q0 46 -30.5 75t-77.5 29q-60 0 -92 -37t-32 -107v-351q0 -127 7 -191q-17 -9 -34 -9z" />
    <glyph glyph-name="agrave" unicode="&#xe0;" horiz-adv-x="561" 
d="M300 567l-103 119q-14 16 -14 30t10 21q11 9 31 12q16 -31 52 -81.5t45 -64.5q8 -13 0 -22.5t-21 -13.5zM466 255q10 -188 20 -251q-18 -9 -32 -9q-13 0 -20 4.5t-7.5 8t-0.5 9.5q-3 56 -1 133q-42 -90 -83.5 -125t-104.5 -35q-82 0 -131.5 60.5t-49.5 167.5
q0 122 58 192t152 70q44 0 78 -18.5t76 -58.5l-2 80q16 4 34 4q26 0 26 -40q0 -24 -5.5 -97.5t-6.5 -94.5zM247 33q55 0 91 41t85 141l-3 148q-44 38 -77.5 56t-73.5 18q-75 0 -120.5 -57t-40.5 -160q10 -187 139 -187z" />
    <glyph glyph-name="aacute" unicode="&#xe1;" horiz-adv-x="561" 
d="M353 686l-103 -119q-13 4 -21 13.5t0 22.5q9 14 45 64.5t52 81.5q20 -3 31 -12q10 -8 10 -21q0 -14 -14 -30zM466 255q10 -188 20 -251q-18 -9 -32 -9q-13 0 -20 4.5t-7.5 8t-0.5 9.5q-3 56 -1 133q-42 -90 -83.5 -125t-104.5 -35q-82 0 -131.5 60.5t-49.5 167.5
q0 122 58 192t152 70q44 0 78 -18.5t76 -58.5l-2 80q16 4 34 4q26 0 26 -40q0 -24 -5.5 -97.5t-6.5 -94.5zM247 33q55 0 91 41t85 141l-3 148q-44 38 -77.5 56t-73.5 18q-75 0 -120.5 -57t-40.5 -160q10 -187 139 -187z" />
    <glyph glyph-name="acircumflex" unicode="&#xe2;" horiz-adv-x="561" 
d="M144 580q-5 4 -16 23q17 14 31.5 28t24 24.5l28.5 31.5t34 37q20 21 35 21q14 0 32 -21q90 -102 111 -122q-15 -26 -35 -26q-10 0 -24 16q-42 47 -86 119q-36 -55 -93 -120q-22 -25 -42 -11zM466 255q10 -188 20 -251q-18 -9 -32 -9q-13 0 -20 4.5t-7.5 8t-0.5 9.5
q-3 56 -1 133q-42 -90 -83.5 -125t-104.5 -35q-82 0 -131.5 60.5t-49.5 167.5q0 122 58 192t152 70q44 0 78 -18.5t76 -58.5l-2 80q16 4 34 4q26 0 26 -40q0 -24 -5.5 -97.5t-6.5 -94.5zM247 33q55 0 91 41t85 141l-3 148q-44 38 -77.5 56t-73.5 18q-75 0 -120.5 -57
t-40.5 -160q10 -187 139 -187z" />
    <glyph glyph-name="atilde" unicode="&#xe3;" horiz-adv-x="561" 
d="M149 588q-28 0 -28 36q0 39 25.5 58t56.5 19q24 0 46.5 -13t36 -28.5t32 -28.5t35.5 -13q32 0 32 36q0 16 -8 37q17 7 30 7q28 0 28 -34q0 -38 -25 -58.5t-58 -20.5q-24 0 -45.5 13t-35.5 28.5t-32.5 28.5t-35.5 13q-32 0 -32 -36q0 -18 8 -37q-17 -7 -30 -7zM466 255
q10 -188 20 -251q-18 -9 -32 -9q-13 0 -20 4.5t-7.5 8t-0.5 9.5q-3 56 -1 133q-42 -90 -83.5 -125t-104.5 -35q-82 0 -131.5 60.5t-49.5 167.5q0 122 58 192t152 70q44 0 78 -18.5t76 -58.5l-2 80q16 4 34 4q26 0 26 -40q0 -24 -5.5 -97.5t-6.5 -94.5zM247 33q55 0 91 41
t85 141l-3 148q-44 38 -77.5 56t-73.5 18q-75 0 -120.5 -57t-40.5 -160q10 -187 139 -187z" />
    <glyph glyph-name="adieresis" unicode="&#xe4;" horiz-adv-x="561" 
d="M185 593q-39 0 -39 44t39 44t39 -44t-39 -44zM379 593q-39 0 -39 44t39 44t39 -44t-39 -44zM466 255q10 -188 20 -251q-18 -9 -32 -9q-13 0 -20 4.5t-7.5 8t-0.5 9.5q-3 56 -1 133q-42 -90 -83.5 -125t-104.5 -35q-82 0 -131.5 60.5t-49.5 167.5q0 122 58 192t152 70
q44 0 78 -18.5t76 -58.5l-2 80q16 4 34 4q26 0 26 -40q0 -24 -5.5 -97.5t-6.5 -94.5zM247 33q55 0 91 41t85 141l-3 148q-44 38 -77.5 56t-73.5 18q-75 0 -120.5 -57t-40.5 -160q10 -187 139 -187z" />
    <glyph glyph-name="aring" unicode="&#xe5;" horiz-adv-x="561" 
d="M278 570q-50 0 -78 24.5t-28 68.5q0 43 28.5 67.5t77.5 24.5q50 0 78 -24.5t28 -67.5t-29 -68t-77 -25zM278 724q-26 0 -41.5 -16t-15.5 -45t15.5 -45.5t41.5 -16.5t41.5 16.5t15.5 45.5t-15.5 45t-41.5 16zM466 255q10 -188 20 -251q-18 -9 -32 -9q-13 0 -20 4.5t-7.5 8
t-0.5 9.5q-3 56 -1 133q-42 -90 -83.5 -125t-104.5 -35q-82 0 -131.5 60.5t-49.5 167.5q0 122 58 192t152 70q44 0 78 -18.5t76 -58.5l-2 80q16 4 34 4q26 0 26 -40q0 -24 -5.5 -97.5t-6.5 -94.5zM247 33q55 0 91 41t85 141l-3 148q-44 38 -77.5 56t-73.5 18
q-75 0 -120.5 -57t-40.5 -160q10 -187 139 -187z" />
    <glyph glyph-name="ccedilla" unicode="&#xe7;" horiz-adv-x="477" 
d="M255 -5q-89 0 -144 61.5t-55 174.5q0 110 53 179.5t148 69.5q69 0 112 -38.5t43 -111.5q0 -36 -12.5 -44.5t-44.5 0.5l1 41q0 42 -24.5 75.5t-77.5 33.5q-70 0 -108 -57t-38 -143q0 -93 41 -144.5t111 -51.5q46 0 79.5 20t64.5 66q42 -18 20 -52t-67.5 -56.5
t-101.5 -22.5zM209 -229q-20 0 -28.5 5t-8.5 18q0 6 3 17q64 -5 100.5 11.5t36.5 49.5q0 52 -92 37l-1 21q35 8 64 8q73 0 73 -69q0 -46 -43.5 -72t-103.5 -26z" />
    <glyph glyph-name="egrave" unicode="&#xe8;" horiz-adv-x="486" 
d="M300 535l-103 119q-14 16 -14 30t10 21q11 9 31 12q16 -31 52 -81.5t45 -64.5q8 -13 0 -22.5t-21 -13.5zM408 102q15 -10 16.5 -27t-9.5 -27q-53 -53 -148 -53q-98 0 -157.5 60.5t-59.5 172.5q0 111 57 181.5t156 70.5q92 0 136.5 -72t22.5 -170h-319v-4q0 -93 45 -143.5
t121 -50.5q77 0 139 62zM254 435q-66 0 -103.5 -44.5t-45.5 -116.5l269 4q6 69 -25 113t-95 44z" />
    <glyph glyph-name="eacute" unicode="&#xe9;" horiz-adv-x="486" 
d="M353 654l-103 -119q-13 4 -21 13.5t0 22.5q9 14 45 64.5t52 81.5q20 -3 31 -12q10 -7 10 -21t-14 -30zM408 102q15 -10 16.5 -27t-9.5 -27q-53 -53 -148 -53q-98 0 -157.5 60.5t-59.5 172.5q0 111 57 181.5t156 70.5q92 0 136.5 -72t22.5 -170h-319v-4q0 -93 45 -143.5
t121 -50.5q77 0 139 62zM254 435q-66 0 -103.5 -44.5t-45.5 -116.5l269 4q6 69 -25 113t-95 44z" />
    <glyph glyph-name="ecircumflex" unicode="&#xea;" horiz-adv-x="486" 
d="M144 548q-5 4 -16 23q17 14 31.5 28t24 24.5l28.5 31.5t34 37q20 21 35 21q14 0 32 -21q90 -102 111 -122q-15 -26 -35 -26q-10 0 -24 16q-42 47 -86 119q-36 -55 -93 -120q-22 -25 -42 -11zM408 102q15 -10 16.5 -27t-9.5 -27q-53 -53 -148 -53q-98 0 -157.5 60.5
t-59.5 172.5q0 111 57 181.5t156 70.5q92 0 136.5 -72t22.5 -170h-319v-4q0 -93 45 -143.5t121 -50.5q77 0 139 62zM254 435q-66 0 -103.5 -44.5t-45.5 -116.5l269 4q6 69 -25 113t-95 44z" />
    <glyph glyph-name="edieresis" unicode="&#xeb;" horiz-adv-x="486" 
d="M185 561q-39 0 -39 44t39 44t39 -44t-39 -44zM379 561q-39 0 -39 44t39 44t39 -44t-39 -44zM408 102q15 -10 16.5 -27t-9.5 -27q-53 -53 -148 -53q-98 0 -157.5 60.5t-59.5 172.5q0 111 57 181.5t156 70.5q92 0 136.5 -72t22.5 -170h-319v-4q0 -93 45 -143.5t121 -50.5
q77 0 139 62zM254 435q-66 0 -103.5 -44.5t-45.5 -116.5l269 4q6 69 -25 113t-95 44z" />
    <glyph glyph-name="igrave" unicode="&#xec;" horiz-adv-x="226" 
d="M135 557l-103 119q-14 16 -14 30t10 21q11 9 31 12q16 -31 52 -81.5t45 -64.5q8 -13 0 -22.5t-21 -13.5zM113 -4q-15 0 -20 5t-5 16v453q15 5 26 5q24 0 24 -16v-459q-16 -4 -25 -4z" />
    <glyph glyph-name="iacute" unicode="&#xed;" horiz-adv-x="226" 
d="M188 676l-103 -119q-13 4 -21 13.5t0 22.5q9 14 45 64.5t52 81.5q20 -3 31 -12q10 -7 10 -21t-14 -30zM113 -4q-15 0 -20 5t-5 16v453q15 5 26 5q24 0 24 -16v-459q-16 -4 -25 -4z" />
    <glyph glyph-name="icircumflex" unicode="&#xee;" horiz-adv-x="226" 
d="M148 714q90 -102 111 -122q-15 -26 -35 -26q-10 0 -24 16q-42 47 -86 119q-36 -55 -93 -120q-22 -25 -42 -11q-5 4 -16 23q17 14 31.5 28t24 24.5l28.5 31.5t34 37q20 21 35 21q14 0 32 -21zM114 475q24 0 24 -16v-459q-16 -4 -25 -4q-15 0 -20 5t-5 16v453q15 5 26 5z
" />
    <glyph glyph-name="idieresis" unicode="&#xef;" horiz-adv-x="226" 
d="M20 583q-39 0 -39 44t39 44t39 -44t-39 -44zM214 583q-39 0 -39 44t39 44t39 -44t-39 -44zM113 -4q-15 0 -20 5t-5 16v453q15 5 26 5q24 0 24 -16v-459q-16 -4 -25 -4z" />
    <glyph glyph-name="ntilde" unicode="&#xf1;" horiz-adv-x="536" 
d="M134 578q-28 0 -28 36q0 39 25.5 58t56.5 19q24 0 46.5 -13t36 -28.5t32 -28.5t35.5 -13q32 0 32 36q0 16 -8 37q17 7 30 7q28 0 28 -34q0 -38 -25 -58.5t-58 -20.5q-24 0 -45.5 13t-35.5 28.5t-32.5 28.5t-35.5 13q-32 0 -32 -36q0 -18 8 -37q-17 -7 -30 -7zM111 -5
q-32 0 -32 57q0 29 16 139q-5 147 -20 279q15 5 36 5q20 0 24 -17q3 -12 1 -132v-33q100 187 196 187q57 0 90.5 -32t32.5 -94l-2 -193q0 -95 9 -158q-17 -8 -32 -8q-27 0 -27 35q0 54 1 161t1 161q0 40 -23 62t-58 22q-87 0 -185 -215l3 -221q-18 -5 -31 -5z" />
    <glyph glyph-name="ograve" unicode="&#xf2;" horiz-adv-x="532" 
d="M289 567l-103 119q-14 16 -14 30t10 21q11 9 31 12q16 -31 52 -81.5t45 -64.5q8 -13 0 -22.5t-21 -13.5zM266 -10q-97 0 -155 62.5t-58 180.5q0 107 60 177t153 70q97 0 155 -62.5t58 -180.5q0 -107 -60 -177t-153 -70zM266 34q73 0 117 52.5t44 148.5t-44 148.5
t-117 52.5t-117 -52.5t-44 -148.5t44 -148.5t117 -52.5z" />
    <glyph glyph-name="oacute" unicode="&#xf3;" horiz-adv-x="532" 
d="M342 686l-103 -119q-13 4 -21 13.5t0 22.5q9 14 45 64.5t52 81.5q20 -3 31 -12q10 -8 10 -21q0 -14 -14 -30zM266 -10q-97 0 -155 62.5t-58 180.5q0 107 60 177t153 70q97 0 155 -62.5t58 -180.5q0 -107 -60 -177t-153 -70zM266 34q73 0 117 52.5t44 148.5t-44 148.5
t-117 52.5t-117 -52.5t-44 -148.5t44 -148.5t117 -52.5z" />
    <glyph glyph-name="ocircumflex" unicode="&#xf4;" horiz-adv-x="532" 
d="M133 580q-5 4 -16 23q17 14 31.5 28t24 24.5l28.5 31.5t34 37q20 21 35 21q14 0 32 -21q90 -102 111 -122q-15 -26 -35 -26q-10 0 -24 16q-42 47 -86 119q-36 -55 -93 -120q-22 -25 -42 -11zM266 480q97 0 155 -62.5t58 -180.5q0 -107 -60 -177t-153 -70q-97 0 -155 62.5
t-58 180.5q0 107 60 177t153 70zM266 34q73 0 117 52.5t44 148.5t-44 148.5t-117 52.5t-117 -52.5t-44 -148.5t44 -148.5t117 -52.5z" />
    <glyph glyph-name="otilde" unicode="&#xf5;" horiz-adv-x="532" 
d="M138 588q-28 0 -28 36q0 39 25.5 58t56.5 19q24 0 46.5 -13t36 -28.5t32 -28.5t35.5 -13q32 0 32 36q0 16 -8 37q17 7 30 7q28 0 28 -34q0 -38 -25 -58.5t-58 -20.5q-24 0 -45.5 13t-35.5 28.5t-32.5 28.5t-35.5 13q-32 0 -32 -36q0 -18 8 -37q-17 -7 -30 -7zM266 -10
q-97 0 -155 62.5t-58 180.5q0 107 60 177t153 70q97 0 155 -62.5t58 -180.5q0 -107 -60 -177t-153 -70zM266 34q73 0 117 52.5t44 148.5t-44 148.5t-117 52.5t-117 -52.5t-44 -148.5t44 -148.5t117 -52.5z" />
    <glyph glyph-name="odieresis" unicode="&#xf6;" horiz-adv-x="532" 
d="M174 593q-39 0 -39 44t39 44t39 -44t-39 -44zM368 593q-39 0 -39 44t39 44t39 -44t-39 -44zM266 -10q-97 0 -155 62.5t-58 180.5q0 107 60 177t153 70q97 0 155 -62.5t58 -180.5q0 -107 -60 -177t-153 -70zM266 34q73 0 117 52.5t44 148.5t-44 148.5t-117 52.5
t-117 -52.5t-44 -148.5t44 -148.5t117 -52.5z" />
    <glyph glyph-name="divide" unicode="&#xf7;" horiz-adv-x="518" 
d="M257 452q-24 0 -27 22q-1 8 -3 83q18 8 33 8q29 0 30 -25q1 -27 -5 -80q-13 -8 -28 -8zM82 344q-4 24 -0.5 33t19.5 9h333q6 -22 3 -32t-19 -10h-336zM257 162q-24 0 -27 22q-1 8 -3 83q18 8 33 8q29 0 30 -25q1 -27 -5 -80q-13 -8 -28 -8z" />
    <glyph glyph-name="oslash" unicode="&#xf8;" horiz-adv-x="538" 
d="M369 457q110 -55 110 -220q0 -107 -60 -177t-153 -70q-34 0 -62 7q-4 -12 -12.5 -37t-12.5 -38q-18 -4 -29 3.5t-5 23.5q13 33 23 61q-54 25 -84.5 82t-30.5 141q0 107 60 177t153 70q38 0 69 -9q18 50 26 75q16 4 26.5 -4.5t4.5 -24.5q-4 -10 -11.5 -30t-11.5 -30z
M105 235q0 -131 81 -180q77 207 134 372q-24 9 -54 9q-73 0 -117 -52.5t-44 -148.5zM266 34q73 0 117 52.5t44 148.5q0 125 -75 176q-78 -208 -133 -371q23 -6 47 -6z" />
    <glyph glyph-name="ugrave" unicode="&#xf9;" horiz-adv-x="528" 
d="M271 567l-103 119q-14 16 -14 30t10 21q11 9 31 12q16 -31 52 -81.5t45 -64.5q8 -13 0 -22.5t-21 -13.5zM433 253l20 -248q-15 -5 -26 -5q-28 0 -28 24l-1 132q-46 -89 -92 -125t-104 -36q-120 0 -120 131v191q0 64 -7 153q18 5 34 5q24 0 24 -22v-321q0 -93 73 -93
q53 0 96.5 43.5t87.5 133.5l-3 254q25 5 34 5q16 0 21.5 -8t5.5 -32q0 -39 -15 -182z" />
    <glyph glyph-name="uacute" unicode="&#xfa;" horiz-adv-x="528" 
d="M324 686l-103 -119q-13 4 -21 13.5t0 22.5q9 14 45 64.5t52 81.5q20 -3 31 -12q10 -8 10 -21q0 -14 -14 -30zM433 253l20 -248q-15 -5 -26 -5q-28 0 -28 24l-1 132q-46 -89 -92 -125t-104 -36q-120 0 -120 131v191q0 64 -7 153q18 5 34 5q24 0 24 -22v-321q0 -93 73 -93
q53 0 96.5 43.5t87.5 133.5l-3 254q25 5 34 5q16 0 21.5 -8t5.5 -32q0 -39 -15 -182z" />
    <glyph glyph-name="ucircumflex" unicode="&#xfb;" horiz-adv-x="528" 
d="M115 580q-5 4 -16 23q17 14 31.5 28t24 24.5l28.5 31.5t34 37q20 21 35 21q14 0 32 -21q90 -102 111 -122q-15 -26 -35 -26q-10 0 -24 16q-42 47 -86 119q-36 -55 -93 -120q-22 -25 -42 -11zM433 253l20 -248q-15 -5 -26 -5q-28 0 -28 24l-1 132q-46 -89 -92 -125
t-104 -36q-120 0 -120 131v191q0 64 -7 153q18 5 34 5q24 0 24 -22v-321q0 -93 73 -93q53 0 96.5 43.5t87.5 133.5l-3 254q25 5 34 5q16 0 21.5 -8t5.5 -32q0 -39 -15 -182z" />
    <glyph glyph-name="udieresis" unicode="&#xfc;" horiz-adv-x="528" 
d="M156 593q-39 0 -39 44t39 44t39 -44t-39 -44zM350 593q-39 0 -39 44t39 44t39 -44t-39 -44zM433 253l20 -248q-15 -5 -26 -5q-28 0 -28 24l-1 132q-46 -89 -92 -125t-104 -36q-120 0 -120 131v191q0 64 -7 153q18 5 34 5q24 0 24 -22v-321q0 -93 73 -93q53 0 96.5 43.5
t87.5 133.5l-3 254q25 5 34 5q16 0 21.5 -8t5.5 -32q0 -39 -15 -182z" />
    <glyph glyph-name="yacute" unicode="&#xfd;" horiz-adv-x="523" 
d="M327 676l-103 -119q-13 4 -21 13.5t0 22.5q9 14 45 64.5t52 81.5q20 -3 31 -12q10 -7 10 -21t-14 -30zM435 275l19 -231q9 -105 -49 -169t-152 -64q-45 0 -88 14t-70 36q-20 15 -20 33q0 21 27 34q20 -27 58.5 -50t90.5 -23q82 0 122.5 51t33.5 135l-11 139
q-81 -164 -181 -164q-125 0 -125 127q0 238 -7 327q18 5 33 5q24 0 24 -22v-303q0 -44 17 -66.5t59 -22.5q53 0 89 41.5t84 140.5l-3 227q15 5 31 5q18 0 23.5 -7.5t5.5 -32.5q0 -13 -2 -38.5t-5 -62.5t-4 -59z" />
    <glyph glyph-name="thorn" unicode="&#xfe;" horiz-adv-x="538" 
d="M326 480q69 0 115 -56t46 -172q0 -120 -54 -191t-164 -71q-84 0 -143 42l1 -221q-12 -4 -27 -4q-20 0 -27 11.5t-7 45.5q0 60 17 324l-21 532q24 6 34 6q28 0 28 -26q0 -296 -1 -405q42 87 88.5 136t114.5 49zM267 28q81 0 124 58.5t43 162.5q0 97 -34.5 141.5
t-84.5 44.5q-54 0 -98.5 -52.5t-90.5 -161.5v-148q76 -45 141 -45z" />
    <glyph glyph-name="ydieresis" unicode="&#xff;" horiz-adv-x="523" 
d="M159 583q-39 0 -39 44t39 44t39 -44t-39 -44zM353 583q-39 0 -39 44t39 44t39 -44t-39 -44zM435 275l19 -231q9 -105 -49 -169t-152 -64q-45 0 -88 14t-70 36q-20 15 -20 33q0 21 27 34q20 -27 58.5 -50t90.5 -23q82 0 122.5 51t33.5 135l-11 139q-81 -164 -181 -164
q-125 0 -125 127q0 238 -7 327q18 5 33 5q24 0 24 -22v-303q0 -44 17 -66.5t59 -22.5q53 0 89 41.5t84 140.5l-3 227q15 5 31 5q18 0 23.5 -7.5t5.5 -32.5q0 -13 -2 -38.5t-5 -62.5t-4 -59z" />
    <glyph glyph-name="Amacron" unicode="&#x100;" horiz-adv-x="696" 
d="M443 833q-140 0 -220 -5q-4 25 2 35t32 10q39 0 115.5 -0.5t94.5 -0.5q6 -17 1.5 -28t-25.5 -11zM397 698l184 -545q3 -9 9.5 -30.5t10.5 -33t10 -28t12 -29t13 -22.5q-16 -16 -37 -16q-22 0 -28 17l-73 225q-204 -8 -306 -5l-51 -148q-16 -48 -20 -83q-13 -6 -33 -6
q-14 0 -21 8.5t-3 20.5l226 634q13 35 20 63q28 6 41 6q37 0 46 -28zM351 689l-146 -421l282 3z" />
    <glyph glyph-name="amacron" unicode="&#x101;" horiz-adv-x="561" 
d="M375 593q-140 0 -220 -5q-4 25 2 35t32 10q39 0 115.5 -0.5t94.5 -0.5q6 -17 1.5 -28t-25.5 -11zM466 255q10 -188 20 -251q-18 -9 -32 -9q-13 0 -20 4.5t-7.5 8t-0.5 9.5q-3 56 -1 133q-42 -90 -83.5 -125t-104.5 -35q-82 0 -131.5 60.5t-49.5 167.5q0 122 58 192
t152 70q44 0 78 -18.5t76 -58.5l-2 80q16 4 34 4q26 0 26 -40q0 -24 -5.5 -97.5t-6.5 -94.5zM247 33q55 0 91 41t85 141l-3 148q-44 38 -77.5 56t-73.5 18q-75 0 -120.5 -57t-40.5 -160q10 -187 139 -187z" />
    <glyph glyph-name="Abreve" unicode="&#x102;" horiz-adv-x="696" 
d="M342 818q-51 0 -89.5 28t-46.5 75q-5 29 4.5 40t39.5 11q0 -117 92 -117q93 0 93 133q32 0 42 -9t10 -31q0 -57 -40.5 -93.5t-104.5 -36.5zM397 698l184 -545q3 -9 9.5 -30.5t10.5 -33t10 -28t12 -29t13 -22.5q-16 -16 -37 -16q-22 0 -28 17l-73 225q-204 -8 -306 -5
l-51 -148q-16 -48 -20 -83q-13 -6 -33 -6q-14 0 -21 8.5t-3 20.5l226 634q13 35 20 63q28 6 41 6q37 0 46 -28zM351 689l-146 -421l282 3z" />
    <glyph glyph-name="abreve" unicode="&#x103;" horiz-adv-x="561" 
d="M274 578q-51 0 -89.5 28t-46.5 75q-5 29 4.5 40t39.5 11q0 -117 92 -117q93 0 93 133q32 0 42 -9t10 -31q0 -57 -40.5 -93.5t-104.5 -36.5zM466 255q10 -188 20 -251q-18 -9 -32 -9q-13 0 -20 4.5t-7.5 8t-0.5 9.5q-3 56 -1 133q-42 -90 -83.5 -125t-104.5 -35
q-82 0 -131.5 60.5t-49.5 167.5q0 122 58 192t152 70q44 0 78 -18.5t76 -58.5l-2 80q16 4 34 4q26 0 26 -40q0 -24 -5.5 -97.5t-6.5 -94.5zM247 33q55 0 91 41t85 141l-3 148q-44 38 -77.5 56t-73.5 18q-75 0 -120.5 -57t-40.5 -160q10 -187 139 -187z" />
    <glyph glyph-name="Cacute" unicode="&#x106;" horiz-adv-x="649" 
d="M400 936l-103 -119q-13 4 -21 13.5t0 22.5q9 14 45 64.5t52 81.5q20 -3 31 -12q10 -7 10 -21t-14 -30zM361 -5q-136 0 -213 90t-77 254q0 171 75.5 281t203.5 110q95 0 152 -64.5t57 -164.5q0 -37 -11.5 -47.5t-48.5 -3.5v57q0 92 -41 134.5t-107 42.5q-108 0 -167 -95.5
t-59 -244.5q0 -148 65.5 -225.5t174.5 -77.5q104 0 203 124q44 -20 14 -63q-28 -41 -90.5 -74t-130.5 -33z" />
    <glyph glyph-name="cacute" unicode="&#x107;" horiz-adv-x="477" 
d="M313 676l-103 -119q-13 4 -21 13.5t0 22.5q9 14 45 64.5t52 81.5q20 -3 31 -12q10 -7 10 -21t-14 -30zM255 -5q-89 0 -144 61.5t-55 174.5q0 110 53 179.5t148 69.5q69 0 112 -38.5t43 -111.5q0 -36 -12.5 -44.5t-44.5 0.5l1 41q0 42 -24.5 75.5t-77.5 33.5
q-70 0 -108 -57t-38 -143q0 -93 41 -144.5t111 -51.5q46 0 79.5 20t64.5 66q42 -18 20 -52t-67.5 -56.5t-101.5 -22.5z" />
    <glyph glyph-name="Ccaron" unicode="&#x10c;" horiz-adv-x="649" 
d="M294 847q-90 102 -111 122q15 26 35 26q10 0 24 -16q43 -51 86 -119q36 55 93 120q22 25 42 11q5 -4 16 -23q-17 -14 -31.5 -28t-24 -24.5l-28.5 -31.5t-34 -37q-20 -21 -35 -21q-14 0 -32 21zM568 165q44 -20 14 -63q-28 -41 -90.5 -74t-130.5 -33q-136 0 -213 90
t-77 254q0 171 75.5 281t203.5 110q95 0 152 -64.5t57 -164.5q0 -37 -11.5 -47.5t-48.5 -3.5v57q0 92 -41 134.5t-107 42.5q-108 0 -167 -95.5t-59 -244.5q0 -148 65.5 -225.5t174.5 -77.5q104 0 203 124z" />
    <glyph glyph-name="ccaron" unicode="&#x10d;" horiz-adv-x="477" 
d="M207 587q-90 102 -111 122q15 26 35 26q10 0 24 -16q43 -51 86 -119q36 55 93 120q22 25 42 11q5 -4 16 -23q-17 -14 -31.5 -28t-24 -24.5l-28.5 -31.5t-34 -37q-20 -21 -35 -21q-14 0 -32 21zM404 126q42 -18 20 -52t-67.5 -56.5t-101.5 -22.5q-89 0 -144 61.5
t-55 174.5q0 110 53 179.5t148 69.5q69 0 112 -38.5t43 -111.5q0 -36 -12.5 -44.5t-44.5 0.5l1 41q0 42 -24.5 75.5t-77.5 33.5q-70 0 -108 -57t-38 -143q0 -93 41 -144.5t111 -51.5q46 0 79.5 20t64.5 66z" />
    <glyph glyph-name="Dcaron" unicode="&#x10e;" horiz-adv-x="724" 
d="M330 837q-90 102 -111 122q15 26 35 26q10 0 24 -16q43 -51 86 -119q36 55 93 120q22 25 42 11q5 -4 16 -23q-17 -14 -31.5 -28t-24 -24.5l-28.5 -31.5t-34 -37q-20 -21 -35 -21q-14 0 -32 21zM264 730q191 0 283.5 -88t92.5 -273q0 -186 -94.5 -280t-261.5 -94
q-76 0 -115 5q-25 2 -33.5 10t-8.5 33q-3 251 0 598q0 21 5 32q-36 -4 -57 -7q-7 17 -3 34.5t17 18.5q108 11 175 11zM293 41q142 0 217.5 85.5t75.5 249.5q0 165 -78 236.5t-231 71.5q-38 0 -98 -6l1 -629q61 -8 113 -8z" />
    <glyph glyph-name="Dcroat" unicode="&#x110;" horiz-adv-x="666" 
d="M270 730q191 0 283.5 -88t92.5 -273q0 -186 -94.5 -280t-261.5 -94q-76 0 -115 5q-25 2 -33.5 10t-8.5 33q-2 252 -2 289q-20 -1 -64 -1q-21 0 -14 33q55 0 78 1q0 40 2 276q0 21 5 32q-36 -4 -57 -7q-7 17 -3 34.5t17 18.5q108 11 175 11zM299 41q142 0 217.5 85.5
t75.5 249.5q0 165 -78 236.5t-231 71.5q-38 0 -98 -6l1 -311q46 3 87 3q11 0 13.5 -12.5t-4.5 -20.5q-44 0 -96 -3v-285q61 -8 113 -8z" />
    <glyph glyph-name="Emacron" unicode="&#x112;" horiz-adv-x="560" 
d="M399 833q-140 0 -220 -5q-4 25 2 35t32 10q39 0 115.5 -0.5t94.5 -0.5q6 -17 1.5 -28t-25.5 -11zM523 44q4 -18 -3 -30.5t-27 -13.5q-163 -4 -327 0q-27 1 -39 11.5t-13 35.5q-4 297 0 591q0 25 7 40q-44 0 -66 1q-12 39 13 39q219 3 439 3q5 -23 -8.5 -34t-55.5 -11
q-185 0 -277 1v-304q120 4 289 2q5 -19 -3.5 -29.5t-25.5 -10.5h-260v-295q247 0 357 4z" />
    <glyph glyph-name="emacron" unicode="&#x113;" horiz-adv-x="486" 
d="M375 561q-140 0 -220 -5q-4 25 2 35t32 10q39 0 115.5 -0.5t94.5 -0.5q6 -17 1.5 -28t-25.5 -11zM408 102q15 -10 16.5 -27t-9.5 -27q-53 -53 -148 -53q-98 0 -157.5 60.5t-59.5 172.5q0 111 57 181.5t156 70.5q92 0 136.5 -72t22.5 -170h-319v-4q0 -93 45 -143.5
t121 -50.5q77 0 139 62zM254 435q-66 0 -103.5 -44.5t-45.5 -116.5l269 4q6 69 -25 113t-95 44z" />
    <glyph glyph-name="Edotaccent" unicode="&#x116;" horiz-adv-x="560" 
d="M312 853q-46 0 -46 50q0 48 47 48t47 -51q0 -47 -48 -47zM523 44q4 -18 -3 -30.5t-27 -13.5q-163 -4 -327 0q-27 1 -39 11.5t-13 35.5q-4 297 0 591q0 25 7 40q-44 0 -66 1q-12 39 13 39q219 3 439 3q5 -23 -8.5 -34t-55.5 -11q-185 0 -277 1v-304q120 4 289 2
q5 -19 -3.5 -29.5t-25.5 -10.5h-260v-295q247 0 357 4z" />
    <glyph glyph-name="edotaccent" unicode="&#x117;" horiz-adv-x="486" 
d="M288 581q-46 0 -46 50q0 48 47 48t47 -51q0 -47 -48 -47zM408 102q15 -10 16.5 -27t-9.5 -27q-53 -53 -148 -53q-98 0 -157.5 60.5t-59.5 172.5q0 111 57 181.5t156 70.5q92 0 136.5 -72t22.5 -170h-319v-4q0 -93 45 -143.5t121 -50.5q77 0 139 62zM254 435
q-66 0 -103.5 -44.5t-45.5 -116.5l269 4q6 69 -25 113t-95 44z" />
    <glyph glyph-name="Ecaron" unicode="&#x11a;" horiz-adv-x="560" 
d="M271 837q-90 102 -111 122q15 26 35 26q10 0 24 -16q43 -51 86 -119q36 55 93 120q22 25 42 11q5 -4 16 -23q-17 -14 -31.5 -28t-24 -24.5l-28.5 -31.5t-34 -37q-20 -21 -35 -21q-14 0 -32 21zM523 44q4 -18 -3 -30.5t-27 -13.5q-163 -4 -327 0q-27 1 -39 11.5t-13 35.5
q-4 297 0 591q0 25 7 40q-44 0 -66 1q-12 39 13 39q219 3 439 3q5 -23 -8.5 -34t-55.5 -11q-185 0 -277 1v-304q120 4 289 2q5 -19 -3.5 -29.5t-25.5 -10.5h-260v-295q247 0 357 4z" />
    <glyph glyph-name="ecaron" unicode="&#x11b;" horiz-adv-x="486" 
d="M247 565q-90 102 -111 122q15 26 35 26q10 0 24 -16q43 -51 86 -119q36 55 93 120q22 25 42 11q5 -4 16 -23q-17 -14 -31.5 -28t-24 -24.5l-28.5 -31.5t-34 -37q-20 -21 -35 -21q-14 0 -32 21zM422 238h-319v-4q0 -93 45 -143.5t121 -50.5q77 0 139 62q15 -10 16.5 -27
t-9.5 -27q-53 -53 -148 -53q-98 0 -157.5 60.5t-59.5 172.5q0 111 57 181.5t156 70.5q92 0 136.5 -72t22.5 -170zM254 435q-66 0 -103.5 -44.5t-45.5 -116.5l269 4q6 69 -25 113t-95 44z" />
    <glyph glyph-name="uni0122" unicode="&#x122;" horiz-adv-x="716" 
d="M626 272l1 -144v-7v-8t-0.5 -7t-2.5 -8t-4.5 -8t-7 -9t-10.5 -9q-98 -77 -211 -77q-152 0 -230 92t-78 256q0 177 81.5 282t222.5 105q103 0 161.5 -60.5t58.5 -166.5q0 -36 -10 -46.5t-44 -2.5v45q0 97 -41.5 141t-126.5 44q-116 0 -182 -89.5t-66 -250.5
q0 -144 67 -223.5t188 -79.5q94 0 182 73l1 144l-176 -4q-26 0 -22 47l221 -1q28 0 28 -28zM409 -92q12 0 16 -10t4 -34q0 -36 -10.5 -97.5t-23.5 -103.5l-24 3q10 59 10 129q0 63 -12 104q22 9 40 9z" />
    <glyph glyph-name="uni0123" unicode="&#x123;" horiz-adv-x="559" 
d="M258 588q-12 0 -16 10t-4 34q0 36 10.5 97.5t23.5 103.5l24 -3q-10 -59 -10 -129q0 -63 12 -104q-23 -9 -40 -9zM464 264l17 -224q8 -114 -52.5 -173.5t-149.5 -59.5q-51 0 -103.5 18.5t-74.5 39.5q-12 12 -12 26q0 22 18 35q73 -76 166 -76q72 0 118.5 45t42.5 124
l-8 144q-40 -79 -83 -111.5t-100 -32.5q-84 0 -135.5 57.5t-51.5 159.5q0 109 59 176.5t155 67.5q85 0 149 -67l-1 70q18 4 31 4q17 0 23 -10t6 -34q0 -11 -14 -179zM248 63q56 0 94.5 37t80.5 124l-3 147q-42 37 -72.5 51t-70.5 14q-79 0 -125 -51t-43 -150
q2 -88 40.5 -130t98.5 -42z" />
    <glyph glyph-name="Imacron" unicode="&#x12a;" horiz-adv-x="388" 
d="M297 872q6 -17 1.5 -28t-25.5 -11q-140 0 -220 -5q-4 25 2 35t32 10q39 0 115.5 -0.5t94.5 -0.5zM220 36q34 -1 103 -1q5 -14 0.5 -24.5t-16.5 -10.5q-35 0 -121 0.5t-121 -0.5q-5 12 -0.5 23.5t15.5 11.5q29 1 88 1v324.5v325.5q-69 0 -103 -1q-5 12 -0.5 23.5
t15.5 11.5h243q5 -14 0.5 -24.5t-16.5 -10.5h-87v-324.5v-324.5z" />
    <glyph glyph-name="imacron" unicode="&#x12b;" horiz-adv-x="226" 
d="M-10 578q-4 25 2 35t32 10q39 0 115.5 -0.5t94.5 -0.5q6 -17 1.5 -28t-25.5 -11q-140 0 -220 -5zM113 -4q-15 0 -20 5t-5 16v453q15 5 26 5q24 0 24 -16v-459q-16 -4 -25 -4z" />
    <glyph glyph-name="dotlessi" unicode="&#x131;" horiz-adv-x="226" 
d="M113 -4q-15 0 -20 5t-5 16v453q15 5 26 5q24 0 24 -16v-459q-16 -4 -25 -4z" />
    <glyph glyph-name="uni0136" unicode="&#x136;" horiz-adv-x="687" 
d="M613 702l-230 -367q100 -175 266 -305q-7 -37 -37 -37q-28 0 -62 33q-50 48 -106.5 132.5t-81.5 143.5l-175 -279q-17 -27 -41 -27q-18 0 -28.5 11.5t-10.5 26.5v686q13 6 29 6q23 0 23 -16v-328q0 -136 -4 -337l203 323q18 50 74 149t107 174q14 21 21.5 28t20.5 7
q22 0 32 -24zM359 -92q12 0 16 -10t4 -34q0 -36 -10.5 -97.5t-23.5 -103.5l-24 3q10 59 10 129q0 63 -12 104q23 9 40 9z" />
    <glyph glyph-name="uni0137" unicode="&#x137;" horiz-adv-x="502" 
d="M222 -101q23 9 40 9q12 0 16 -10t4 -34q0 -36 -10.5 -97.5t-23.5 -103.5l-24 3q10 59 10 129q0 63 -12 104z" />
    <glyph glyph-name="Lacute" unicode="&#x139;" horiz-adv-x="502" 
d="M210 932l-103 -119q-13 4 -21 13.5t0 22.5q9 14 45 64.5t52 81.5q20 -3 31 -12q10 -8 10 -21q0 -14 -14 -30zM428 -2q-121 -1 -271 2q-26 1 -38 10t-12 33q0 97 -2 325.5t-1 351.5q16 6 29 6q27 0 27 -34l-1 -652q196 0 301 3q9 -45 -32 -45z" />
    <glyph glyph-name="lacute" unicode="&#x13a;" horiz-adv-x="218" 
d="M185 946l-103 -119q-13 4 -21 13.5t0 22.5q9 14 45 64.5t52 81.5q20 -3 31 -12q10 -7 10 -21t-14 -30zM135 690q-1 -513 3 -690q-17 -5 -32 -5q-22 0 -22 22v141v136v114t-0.5 108.5t-1.5 83t-3 73.5t-4 47q12 6 33 6q16 0 22 -8t5 -28z" />
    <glyph glyph-name="uni013B" unicode="&#x13b;" horiz-adv-x="502" 
d="M428 -2q-121 -1 -271 2q-26 1 -38 10t-12 33q0 97 -2 325.5t-1 351.5q16 6 29 6q27 0 27 -34l-1 -652q196 0 301 3q9 -45 -32 -45zM224 -101q23 9 40 9q12 0 16 -10t4 -34q0 -36 -10.5 -97.5t-23.5 -103.5l-24 3q10 59 10 129q0 63 -12 104z" />
    <glyph glyph-name="uni013C" unicode="&#x13c;" horiz-adv-x="218" 
d="M135 690q-1 -513 3 -690q-17 -5 -32 -5q-22 0 -22 22v141v136v114t-0.5 108.5t-1.5 83t-3 73.5t-4 47q12 6 33 6q16 0 22 -8t5 -28zM84 -101q22 9 40 9q12 0 16 -10t4 -34q0 -36 -10.5 -97.5t-23.5 -103.5l-24 3q10 59 10 129q0 63 -12 104z" />
    <glyph glyph-name="Lcaron" unicode="&#x13d;" horiz-adv-x="502" 
d="M428 -2q-121 -1 -271 2q-26 1 -38 10t-12 33q0 97 -2 325.5t-1 351.5q16 6 29 6q27 0 27 -34l-1 -652q196 0 301 3q9 -45 -32 -45zM330 452v268q30 10 50 -7l-13 -211q-3 -40 -9 -46q-7 -6 -28 -4z" />
    <glyph glyph-name="lcaron" unicode="&#x13e;" horiz-adv-x="268" 
d="M243 719q23 9 40 9q12 0 16 -10t4 -34q0 -36 -10.5 -97.5t-23.5 -103.5l-24 3q10 59 10 129q0 63 -12 104zM135 690q-1 -513 3 -690q-17 -5 -32 -5q-22 0 -22 22v141v136v114t-0.5 108.5t-1.5 83t-3 73.5t-4 47q12 6 33 6q16 0 22 -8t5 -28z" />
    <glyph glyph-name="Lslash" unicode="&#x141;" horiz-adv-x="516" 
d="M474 43q9 -45 -32 -45q-121 -1 -271 2q-26 1 -38 10t-12 33q0 159 -1 238l-53 -18q-9 -3 -14 7t-2 24l69 24q-2 335 -2 402q16 6 29 6q27 0 27 -34l-1 -356l178 61q9 3 14 -11.5t0 -22.5l-192 -64v-259q196 0 301 3z" />
    <glyph glyph-name="lslash" unicode="&#x142;" horiz-adv-x="250" 
d="M156 385l70 31v-45l-70 -31q2 -259 4 -340q-17 -5 -32 -5q-22 0 -22 22v301l-82 -37v45l82 37q0 284 -9 357q12 6 33 6q16 0 22 -8t5 -28q0 -69 -0.5 -170t-0.5 -135z" />
    <glyph glyph-name="Nacute" unicode="&#x143;" horiz-adv-x="707" 
d="M428 925l-103 -119q-13 4 -21 13.5t0 22.5q9 14 45 64.5t52 81.5q20 -3 31 -12q10 -8 10 -21q0 -14 -14 -30zM579 727q11 0 17.5 -6t6.5 -14v-671q0 -24 -15 -32t-47 -8l-391 671q2 -75 5.5 -358.5t4.5 -308.5q-16 -6 -32 -6q-11 0 -17.5 7.5t-6.5 19.5v89t0.5 220
t0.5 390q25 5 35 5q28 0 41 -23l378 -644q-5 125 -7.5 373.5t-3.5 288.5q16 7 31 7z" />
    <glyph glyph-name="nacute" unicode="&#x144;" horiz-adv-x="536" 
d="M338 676l-103 -119q-13 4 -21 13.5t0 22.5q9 14 45 64.5t52 81.5q20 -3 31 -12q10 -7 10 -21t-14 -30zM111 -5q-32 0 -32 57q0 29 16 139q-5 147 -20 279q15 5 36 5q20 0 24 -17q3 -12 1 -132v-33q100 187 196 187q57 0 90.5 -32t32.5 -94l-2 -193q0 -95 9 -158
q-17 -8 -32 -8q-27 0 -27 35q0 54 1 161t1 161q0 40 -23 62t-58 22q-87 0 -185 -215l3 -221q-18 -5 -31 -5z" />
    <glyph glyph-name="uni0145" unicode="&#x145;" horiz-adv-x="707" 
d="M579 727q11 0 17.5 -6t6.5 -14v-671q0 -24 -15 -32t-47 -8l-391 671q2 -75 5.5 -358.5t4.5 -308.5q-16 -6 -32 -6q-11 0 -17.5 7.5t-6.5 19.5v89t0.5 220t0.5 390q25 5 35 5q28 0 41 -23l378 -644q-5 125 -7.5 373.5t-3.5 288.5q16 7 31 7zM327 -101q23 9 40 9
q12 0 16 -10t4 -34q0 -36 -10.5 -97.5t-23.5 -103.5l-24 3q10 59 10 129q0 63 -12 104z" />
    <glyph glyph-name="uni0146" unicode="&#x146;" horiz-adv-x="536" 
d="M111 -5q-32 0 -32 57q0 29 16 139q-5 147 -20 279q15 5 36 5q20 0 24 -17q3 -12 1 -132v-33q100 187 196 187q57 0 90.5 -32t32.5 -94l-2 -193q0 -95 9 -158q-17 -8 -32 -8q-27 0 -27 35q0 54 1 161t1 161q0 40 -23 62t-58 22q-87 0 -185 -215l3 -221q-18 -5 -31 -5z
M237 -101q23 9 40 9q12 0 16 -10t4 -34q0 -36 -10.5 -97.5t-23.5 -103.5l-24 3q10 59 10 129q0 63 -12 104z" />
    <glyph glyph-name="Ncaron" unicode="&#x147;" horiz-adv-x="707" 
d="M322 836q-90 102 -111 122q15 26 35 26q10 0 24 -16q43 -51 86 -119q36 55 93 120q22 25 42 11q5 -4 16 -23q-17 -14 -31.5 -28t-24 -24.5l-28.5 -31.5t-34 -37q-20 -21 -35 -21q-14 0 -32 21zM579 727q11 0 17.5 -6t6.5 -14v-671q0 -24 -15 -32t-47 -8l-391 671
q2 -75 5.5 -358.5t4.5 -308.5q-16 -6 -32 -6q-11 0 -17.5 7.5t-6.5 19.5v89t0.5 220t0.5 390q25 5 35 5q28 0 41 -23l378 -644q-5 125 -7.5 373.5t-3.5 288.5q16 7 31 7z" />
    <glyph glyph-name="ncaron" unicode="&#x148;" horiz-adv-x="536" 
d="M232 587q-90 102 -111 122q15 26 35 26q10 0 24 -16q43 -51 86 -119q36 55 93 120q22 25 42 11q5 -4 16 -23q-17 -14 -31.5 -28t-24 -24.5l-28.5 -31.5t-34 -37q-20 -21 -35 -21q-14 0 -32 21zM455 354l-2 -193q0 -95 9 -158q-17 -8 -32 -8q-27 0 -27 35q0 54 1 161
t1 161q0 40 -23 62t-58 22q-87 0 -185 -215l3 -221q-18 -5 -31 -5q-32 0 -32 57q0 29 16 139q-5 147 -20 279q15 5 36 5q20 0 24 -17q3 -12 1 -132v-33q100 187 196 187q57 0 90.5 -32t32.5 -94z" />
    <glyph glyph-name="Omacron" unicode="&#x14c;" horiz-adv-x="777" 
d="M251 828q-4 25 2 35t32 10q39 0 115.5 -0.5t94.5 -0.5q6 -17 1.5 -28t-25.5 -11q-140 0 -220 -5zM388 -10q-142 0 -223 98.5t-81 268.5q0 171 82 272t222 101q141 0 223 -101t82 -272q0 -170 -81.5 -268.5t-223.5 -98.5zM399 36q114 4 179 91.5t60 238.5t-76 236.5
t-185 81.5q-115 -5 -179 -95t-59 -241t75.5 -233.5t184.5 -78.5z" />
    <glyph glyph-name="omacron" unicode="&#x14d;" horiz-adv-x="532" 
d="M144 588q-4 25 2 35t32 10q39 0 115.5 -0.5t94.5 -0.5q6 -17 1.5 -28t-25.5 -11q-140 0 -220 -5zM266 -10q-97 0 -155 62.5t-58 180.5q0 107 60 177t153 70q97 0 155 -62.5t58 -180.5q0 -107 -60 -177t-153 -70zM266 34q73 0 117 52.5t44 148.5t-44 148.5t-117 52.5
t-117 -52.5t-44 -148.5t44 -148.5t117 -52.5z" />
    <glyph glyph-name="Ohungarumlaut" unicode="&#x150;" horiz-adv-x="777" 
d="M425 926l-103 -119q-13 4 -21 13.5t0 22.5q9 14 45 64.5t52 81.5q20 -3 31 -12q10 -8 10 -21q0 -14 -14 -30zM548 926l-103 -119q-13 4 -21 13.5t0 22.5q9 14 45 64.5t52 81.5q20 -3 31 -12q10 -8 10 -21q0 -14 -14 -30zM388 -10q-142 0 -223 98.5t-81 268.5
q0 171 82 272t222 101q141 0 223 -101t82 -272q0 -170 -81.5 -268.5t-223.5 -98.5zM399 36q114 4 179 91.5t60 238.5t-76 236.5t-185 81.5q-115 -5 -179 -95t-59 -241t75.5 -233.5t184.5 -78.5z" />
    <glyph glyph-name="ohungarumlaut" unicode="&#x151;" horiz-adv-x="532" 
d="M318 686l-103 -119q-13 4 -21 13.5t0 22.5q9 14 45 64.5t52 81.5q20 -3 31 -12q10 -8 10 -21q0 -14 -14 -30zM441 686l-103 -119q-13 4 -21 13.5t0 22.5q9 14 45 64.5t52 81.5q20 -3 31 -12q10 -8 10 -21q0 -14 -14 -30zM266 -10q-97 0 -155 62.5t-58 180.5q0 107 60 177
t153 70q97 0 155 -62.5t58 -180.5q0 -107 -60 -177t-153 -70zM266 34q73 0 117 52.5t44 148.5t-44 148.5t-117 52.5t-117 -52.5t-44 -148.5t44 -148.5t117 -52.5z" />
    <glyph glyph-name="OE" unicode="&#x152;" horiz-adv-x="979" 
d="M930 0h-461q-189 0 -287 91.5t-98 265.5q0 173 98.5 267.5t286.5 95.5l466 1q5 -27 0 -35q-4 -6 -10 -6h-331v-314q5 10 17 10l272 2q3 -22 -3 -33q-4 -7 -17 -7h-269v-298h273q53 0 74 4q7 -27 1 -36q-4 -8 -12 -8zM469 40h73v598q0 27 9 42h-82q-157 0 -244 -80.5
t-87 -242.5q0 -155 88.5 -236t242.5 -81z" />
    <glyph glyph-name="oe" unicode="&#x153;" horiz-adv-x="837" 
d="M765 89q15 -12 15 -27q0 -9 -7 -16q-23 -23 -63.5 -39.5t-85.5 -16.5q-129 0 -179 115q-25 -56 -72.5 -85.5t-109.5 -29.5q-93 0 -150 63.5t-57 181.5t57 181.5t150 63.5q63 0 111 -30t73 -88q52 118 182 118q66 0 104.5 -32.5t38.5 -93.5q0 -115 -132 -135
q-72 -11 -145 -6q-20 1 -23 13q1 -98 41 -148t114 -50q67 0 138 61zM263 28q71 0 114 53t43 154t-43 154t-114 53t-114 -53t-43 -154t43 -154t114 -53zM628 442q-71 0 -112 -50.5t-44 -147.5q56 -2 97.5 1t78 14t55.5 34.5t19 58.5q0 90 -94 90z" />
    <glyph glyph-name="Racute" unicode="&#x154;" horiz-adv-x="675" 
d="M415 936l-103 -119q-13 4 -21 13.5t0 22.5q9 14 45 64.5t52 81.5q20 -3 31 -12q10 -7 10 -21t-14 -30zM422 285q27 -60 79.5 -134t103.5 -129q-13 -27 -36 -27q-21 0 -41 25q-72 90 -155 255h-190v-107q0 -105 8 -166q-18 -8 -32 -8q-30 0 -30 32v615q0 17 4 27
q-26 -4 -67 -11q-12 44 12 47q113 16 234 16q130 0 201 -57.5t71 -150.5q0 -169 -162 -227zM183 673v-360h205q2 1 19.5 8.5t22 10t20 11t21 14.5t17.5 17.5t17 23.5t11.5 28.5t9 36.5t2.5 44q0 77 -56.5 125t-149.5 48q-75 0 -139 -7z" />
    <glyph glyph-name="racute" unicode="&#x155;" horiz-adv-x="346" 
d="M253 676l-103 -119q-13 4 -21 13.5t0 22.5q9 14 45 64.5t52 81.5q20 -3 31 -12q10 -7 10 -21t-14 -30zM287 480q33 0 33 -24q0 -12 -6 -26q-61 4 -95 -35t-83 -156v-2l3 -237q-18 -5 -31 -5q-32 0 -32 57q0 29 16 139q-5 147 -20 279q15 5 36 5q20 0 24 -17q3 -11 1 -129
v-32q67 183 154 183z" />
    <glyph glyph-name="uni0156" unicode="&#x156;" horiz-adv-x="675" 
d="M422 285q27 -60 79.5 -134t103.5 -129q-13 -27 -36 -27q-21 0 -41 25q-72 90 -155 255h-190v-107q0 -105 8 -166q-18 -8 -32 -8q-30 0 -30 32v615q0 17 4 27q-26 -4 -67 -11q-12 44 12 47q113 16 234 16q130 0 201 -57.5t71 -150.5q0 -169 -162 -227zM183 673v-360h205
q2 1 19.5 8.5t22 10t20 11t21 14.5t17.5 17.5t17 23.5t11.5 28.5t9 36.5t2.5 44q0 77 -56.5 125t-149.5 48q-75 0 -139 -7zM353 -92q12 0 16 -10t4 -34q0 -36 -10.5 -97.5t-23.5 -103.5l-24 3q10 59 10 129q0 63 -12 104q22 9 40 9z" />
    <glyph glyph-name="uni0157" unicode="&#x157;" horiz-adv-x="346" 
d="M287 480q33 0 33 -24q0 -12 -6 -26q-61 4 -95 -35t-83 -156v-2l3 -237q-18 -5 -31 -5q-32 0 -32 57q0 29 16 139q-5 147 -20 279q15 5 36 5q20 0 24 -17q3 -11 1 -129v-32q67 183 154 183zM131 -92q12 0 16 -10t4 -34q0 -36 -10.5 -97.5t-23.5 -103.5l-24 3q10 59 10 129
q0 63 -12 104q23 9 40 9z" />
    <glyph glyph-name="Rcaron" unicode="&#x158;" horiz-adv-x="675" 
d="M309 847q-90 102 -111 122q15 26 35 26q10 0 24 -16q43 -51 86 -119q36 55 93 120q22 25 42 11q5 -4 16 -23q-17 -14 -31.5 -28t-24 -24.5l-28.5 -31.5t-34 -37q-20 -21 -35 -21q-14 0 -32 21zM422 285q27 -60 79.5 -134t103.5 -129q-13 -27 -36 -27q-21 0 -41 25
q-72 90 -155 255h-190v-107q0 -105 8 -166q-18 -8 -32 -8q-30 0 -30 32v615q0 17 4 27q-26 -4 -67 -11q-12 44 12 47q113 16 234 16q130 0 201 -57.5t71 -150.5q0 -169 -162 -227zM183 673v-360h205q2 1 19.5 8.5t22 10t20 11t21 14.5t17.5 17.5t17 23.5t11.5 28.5t9 36.5
t2.5 44q0 77 -56.5 125t-149.5 48q-75 0 -139 -7z" />
    <glyph glyph-name="rcaron" unicode="&#x159;" horiz-adv-x="346" 
d="M179 566q-14 0 -32 21q-90 102 -111 122q15 26 35 26q10 0 24 -16q43 -51 86 -119q36 55 93 120q22 25 42 11q5 -4 16 -23q-17 -14 -31.5 -28t-24 -24.5l-28.5 -31.5t-34 -37q-20 -21 -35 -21zM287 480q33 0 33 -24q0 -12 -6 -26q-61 4 -95 -35t-83 -156v-2l3 -237
q-18 -5 -31 -5q-32 0 -32 57q0 29 16 139q-5 147 -20 279q15 5 36 5q20 0 24 -17q3 -11 1 -129v-32q67 183 154 183z" />
    <glyph glyph-name="Sacute" unicode="&#x15a;" horiz-adv-x="567" 
d="M359 936l-103 -119q-13 4 -21 13.5t0 22.5q9 14 45 64.5t52 81.5q20 -3 31 -12q10 -7 10 -21t-14 -30zM298 -5q-126 0 -225 91q-37 33 15 66q35 -44 91 -77.5t123 -33.5q74 0 119 31t45 92q0 18 -3 33.5t-11.5 28.5t-16 23t-22.5 19.5t-24.5 16t-29.5 14t-30.5 11.5
t-34 12t-32.5 11q-184 65 -184 210q0 41 13.5 73t34.5 52t49.5 33.5t56.5 18.5t57 5q82 0 136 -46t54 -128q0 -28 -13.5 -36.5t-47.5 -2.5q15 167 -133 167q-71 0 -111 -36t-42 -97q-2 -64 38 -102t125 -70q34 -13 45.5 -17.5t40.5 -16.5t39.5 -19t32 -20t29.5 -24.5
t19 -27.5t15 -34.5t4 -40.5q0 -85 -57.5 -132t-164.5 -47z" />
    <glyph glyph-name="sacute" unicode="&#x15b;" horiz-adv-x="426" 
d="M284 676l-103 -119q-13 4 -21 13.5t0 22.5q9 14 45 64.5t52 81.5q20 -3 31 -12q10 -7 10 -21t-14 -30zM223 -5q-47 0 -90.5 14t-62.5 33q-32 31 11 57q57 -62 146 -62q46 0 73.5 18.5t27.5 57.5q0 33 -27.5 52t-96.5 47q-76 31 -106 61.5t-30 82.5q0 57 36.5 90.5
t110.5 33.5q64 0 100 -31t36 -79q0 -26 -11 -31.5t-45 -2.5q10 102 -84 102q-91 0 -91 -76q0 -39 22.5 -60t85.5 -47q80 -32 115.5 -60.5t35.5 -75.5q0 -57 -42.5 -90.5t-113.5 -33.5z" />
    <glyph glyph-name="Scedilla" unicode="&#x15e;" horiz-adv-x="567" 
d="M298 -5q-126 0 -225 91q-37 33 15 66q35 -44 91 -77.5t123 -33.5q74 0 119 31t45 92q0 18 -3 33.5t-11.5 28.5t-16 23t-22.5 19.5t-24.5 16t-29.5 14t-30.5 11.5t-34 12t-32.5 11q-184 65 -184 210q0 41 13.5 73t34.5 52t49.5 33.5t56.5 18.5t57 5q82 0 136 -46t54 -128
q0 -28 -13.5 -36.5t-47.5 -2.5q15 167 -133 167q-71 0 -111 -36t-42 -97q-2 -64 38 -102t125 -70q34 -13 45.5 -17.5t40.5 -16.5t39.5 -19t32 -20t29.5 -24.5t19 -27.5t15 -34.5t4 -40.5q0 -85 -57.5 -132t-164.5 -47zM221 -229q-20 0 -28.5 5t-8.5 18q0 6 3 17
q64 -5 100.5 11.5t36.5 49.5q0 52 -92 37l-1 21q35 8 64 8q73 0 73 -69q0 -46 -43.5 -72t-103.5 -26z" />
    <glyph glyph-name="scedilla" unicode="&#x15f;" horiz-adv-x="426" 
d="M223 -5q-47 0 -90.5 14t-62.5 33q-32 31 11 57q57 -62 146 -62q46 0 73.5 18.5t27.5 57.5q0 33 -27.5 52t-96.5 47q-76 31 -106 61.5t-30 82.5q0 57 36.5 90.5t110.5 33.5q64 0 100 -31t36 -79q0 -26 -11 -31.5t-45 -2.5q10 102 -84 102q-91 0 -91 -76q0 -39 22.5 -60
t85.5 -47q80 -32 115.5 -60.5t35.5 -75.5q0 -57 -42.5 -90.5t-113.5 -33.5zM146 -229q-20 0 -28.5 5t-8.5 18q0 6 3 17q64 -5 100.5 11.5t36.5 49.5q0 52 -92 37l-1 21q35 8 64 8q73 0 73 -69q0 -46 -43.5 -72t-103.5 -26z" />
    <glyph glyph-name="Scaron" unicode="&#x160;" horiz-adv-x="567" 
d="M253 847q-90 102 -111 122q15 26 35 26q10 0 24 -16q43 -51 86 -119q36 55 93 120q22 25 42 11q5 -4 16 -23q-17 -14 -31.5 -28t-24 -24.5l-28.5 -31.5t-34 -37q-20 -21 -35 -21q-14 0 -32 21zM295 374q34 -13 45.5 -17.5t40.5 -16.5t39.5 -19t32 -20t29.5 -24.5
t19 -27.5t15 -34.5t4 -40.5q0 -85 -57.5 -132t-164.5 -47q-126 0 -225 91q-37 33 15 66q35 -44 91 -77.5t123 -33.5q74 0 119 31t45 92q0 18 -3 33.5t-11.5 28.5t-16 23t-22.5 19.5t-24.5 16t-29.5 14t-30.5 11.5t-34 12t-32.5 11q-184 65 -184 210q0 41 13.5 73t34.5 52
t49.5 33.5t56.5 18.5t57 5q82 0 136 -46t54 -128q0 -28 -13.5 -36.5t-47.5 -2.5q15 167 -133 167q-71 0 -111 -36t-42 -97q-2 -64 38 -102t125 -70z" />
    <glyph glyph-name="scaron" unicode="&#x161;" horiz-adv-x="426" 
d="M178 587q-90 102 -111 122q15 26 35 26q10 0 24 -16q43 -51 86 -119q36 55 93 120q22 25 42 11q5 -4 16 -23q-17 -14 -31.5 -28t-24 -24.5l-28.5 -31.5t-34 -37q-20 -21 -35 -21q-14 0 -32 21zM228 255q80 -32 115.5 -60.5t35.5 -75.5q0 -57 -42.5 -90.5t-113.5 -33.5
q-47 0 -90.5 14t-62.5 33q-32 31 11 57q57 -62 146 -62q46 0 73.5 18.5t27.5 57.5q0 33 -27.5 52t-96.5 47q-76 31 -106 61.5t-30 82.5q0 57 36.5 90.5t110.5 33.5q64 0 100 -31t36 -79q0 -26 -11 -31.5t-45 -2.5q10 102 -84 102q-91 0 -91 -76q0 -39 22.5 -60t85.5 -47z
" />
    <glyph glyph-name="uni0162" unicode="&#x162;" horiz-adv-x="550" 
d="M509 722q6 -18 2.5 -29t-15.5 -11q-66 -1 -199 -1q1 -65 1.5 -241.5t2 -286.5t3.5 -148q-17 -10 -33 -10q-25 0 -25 22q-2 423 1 636q0 15 10 28q-145 0 -217 1q-11 38 19 38q85 1 242.5 1.5t207.5 0.5zM286 -62q73 0 73 -69q0 -46 -43.5 -72t-103.5 -26q-20 0 -28.5 5
t-8.5 18q0 6 3 17q64 -5 100.5 11.5t36.5 49.5q0 52 -92 37l-1 21q35 8 64 8z" />
    <glyph glyph-name="uni0163" unicode="&#x163;" horiz-adv-x="354" 
d="M311 60q28 -31 -13 -50q-32 -15 -81 -15q-112 0 -112 129q2 168 1 306l-82 2q-2 12 4.5 24t19.5 12q39 0 58 1q0 22 -0.5 64.5t-1.5 61.5q0 16 17.5 22t38.5 -1l-4 -147q26 1 77 1t76 1q3 -19 -4 -29t-18 -10h-131v-309q0 -25 2.5 -41t18 -32.5t45.5 -16.5q39 0 89 27z
M190 -62q73 0 73 -69q0 -46 -43.5 -72t-103.5 -26q-20 0 -28.5 5t-8.5 18q0 6 3 17q64 -5 100.5 11.5t36.5 49.5q0 52 -92 37l-1 21q35 8 64 8z" />
    <glyph glyph-name="Tcaron" unicode="&#x164;" horiz-adv-x="550" 
d="M244 837q-90 102 -111 122q15 26 35 26q10 0 24 -16q43 -51 86 -119q36 55 93 120q22 25 42 11q5 -4 16 -23q-17 -14 -31.5 -28t-24 -24.5l-28.5 -31.5t-34 -37q-20 -21 -35 -21q-14 0 -32 21zM509 722q6 -18 2.5 -29t-15.5 -11q-66 -1 -199 -1q1 -65 1.5 -241.5
t2 -286.5t3.5 -148q-17 -10 -33 -10q-25 0 -25 22q-2 423 1 636q0 15 10 28q-145 0 -217 1q-11 38 19 38q85 1 242.5 1.5t207.5 0.5z" />
    <glyph glyph-name="tcaron" unicode="&#x165;" horiz-adv-x="353" 
d="M314 753l-13 -121q0 -4 -1 -11.5t-1 -10t-1 -8t-1.5 -6.5t-2 -5.5t-3 -4t-4.5 -2.5t-6 -1.5t-7.5 -0.5t-9.5 0v178q30 10 50 -7zM311 60q28 -31 -13 -50q-32 -15 -81 -15q-112 0 -112 129q2 168 1 306l-82 2q-2 12 4.5 24t19.5 12q39 0 58 1q0 22 -0.5 64.5t-1.5 61.5
q0 16 17.5 22t38.5 -1l-4 -147q26 1 77 1t76 1q3 -19 -4 -29t-18 -10h-131v-309q0 -25 2.5 -41t18 -32.5t45.5 -16.5q39 0 89 27z" />
    <glyph glyph-name="Tbar" unicode="&#x166;" horiz-adv-x="550" 
d="M509 722q6 -18 2.5 -29t-15.5 -11q-66 -1 -199 -1q1 -39 1.5 -125.5t0.5 -129.5h149q15 0 7 -31h-156q2 -336 5 -390q-17 -10 -33 -10q-25 0 -25 22q-1 127 -1 378h-140q-16 0 -9 31h149q0 75 2 227q0 15 10 28q-145 0 -217 1q-11 38 19 38q85 1 242.5 1.5t207.5 0.5z
" />
    <glyph glyph-name="tbar" unicode="&#x167;" horiz-adv-x="361" 
d="M316 57h2q9 -11 9 -25q0 -10 -11 -15q-43 -23 -102 -23q-31 0 -53 10t-32 20.5t-15 30t-5.5 27t-0.5 22.5v183l-81 1q-3 9 0 18.5t11 9.5l70 3v118l-81 1q-3 9 0 18.5t11 9.5l70 3l5 132q1 20 25 20q6 0 18 -2l2 -3v-146l150 1q4 -22 -1.5 -29t-17.5 -7l-131 2v-117
l140 1q4 -22 -1.5 -29t-17.5 -7l-121 1v-183q0 -13 0.5 -19.5t4 -18t10 -17.5t19.5 -10.5t32 -4.5q47 0 92 24z" />
    <glyph glyph-name="Umacron" unicode="&#x16a;" horiz-adv-x="723" 
d="M239 838q-4 25 2 35t32 10q39 0 115.5 -0.5t94.5 -0.5q6 -17 1.5 -28t-25.5 -11q-140 0 -220 -5zM363 -10q-122 0 -187.5 70t-65.5 191q0 372 -6 469q20 6 32 6q26 0 26 -19q3 -54 2 -233t-1 -222q1 -102 54 -159t146 -57t145.5 56.5t53.5 159.5q3 282 -6 468q20 6 34 6
q25 0 25 -21q3 0 1 -223l-1 -223q0 -125 -64.5 -197t-187.5 -72z" />
    <glyph glyph-name="umacron" unicode="&#x16b;" horiz-adv-x="528" 
d="M346 593q-140 0 -220 -5q-4 25 2 35t32 10q39 0 115.5 -0.5t94.5 -0.5q6 -17 1.5 -28t-25.5 -11zM433 253l20 -248q-15 -5 -26 -5q-28 0 -28 24l-1 132q-46 -89 -92 -125t-104 -36q-120 0 -120 131v191q0 64 -7 153q18 5 34 5q24 0 24 -22v-321q0 -93 73 -93
q53 0 96.5 43.5t87.5 133.5l-3 254q25 5 34 5q16 0 21.5 -8t5.5 -32q0 -39 -15 -182z" />
    <glyph glyph-name="Uring" unicode="&#x16e;" horiz-adv-x="723" 
d="M362 820q-50 0 -78 24.5t-28 68.5q0 43 28.5 67.5t77.5 24.5q50 0 78 -24.5t28 -67.5t-29 -68t-77 -25zM362 974q-26 0 -41.5 -16t-15.5 -45t15.5 -45.5t41.5 -16.5t41.5 16.5t15.5 45.5t-15.5 45t-41.5 16zM363 -10q-122 0 -187.5 70t-65.5 191q0 372 -6 469q20 6 32 6
q26 0 26 -19q3 -54 2 -233t-1 -222q1 -102 54 -159t146 -57t145.5 56.5t53.5 159.5q3 282 -6 468q20 6 34 6q25 0 25 -21q3 0 1 -223l-1 -223q0 -125 -64.5 -197t-187.5 -72z" />
    <glyph glyph-name="uring" unicode="&#x16f;" horiz-adv-x="528" 
d="M249 570q-50 0 -78 24.5t-28 68.5q0 43 28.5 67.5t77.5 24.5q50 0 78 -24.5t28 -67.5t-29 -68t-77 -25zM249 724q-26 0 -41.5 -16t-15.5 -45t15.5 -45.5t41.5 -16.5t41.5 16.5t15.5 45.5t-15.5 45t-41.5 16zM433 253l20 -248q-15 -5 -26 -5q-28 0 -28 24l-1 132
q-46 -89 -92 -125t-104 -36q-120 0 -120 131v191q0 64 -7 153q18 5 34 5q24 0 24 -22v-321q0 -93 73 -93q53 0 96.5 43.5t87.5 133.5l-3 254q25 5 34 5q16 0 21.5 -8t5.5 -32q0 -39 -15 -182z" />
    <glyph glyph-name="Uhungarumlaut" unicode="&#x170;" horiz-adv-x="723" 
d="M413 936l-103 -119q-13 4 -21 13.5t0 22.5q9 14 45 64.5t52 81.5q20 -3 31 -12q10 -7 10 -21t-14 -30zM536 936l-103 -119q-13 4 -21 13.5t0 22.5q9 14 45 64.5t52 81.5q20 -3 31 -12q10 -7 10 -21t-14 -30zM363 -10q-122 0 -187.5 70t-65.5 191q0 372 -6 469q20 6 32 6
q26 0 26 -19q3 -54 2 -233t-1 -222q1 -102 54 -159t146 -57t145.5 56.5t53.5 159.5q3 282 -6 468q20 6 34 6q25 0 25 -21q3 0 1 -223l-1 -223q0 -125 -64.5 -197t-187.5 -72z" />
    <glyph glyph-name="uhungarumlaut" unicode="&#x171;" horiz-adv-x="528" 
d="M300 686l-103 -119q-13 4 -21 13.5t0 22.5q9 14 45 64.5t52 81.5q20 -3 31 -12q10 -8 10 -21q0 -14 -14 -30zM423 686l-103 -119q-13 4 -21 13.5t0 22.5q9 14 45 64.5t52 81.5q20 -3 31 -12q10 -8 10 -21q0 -14 -14 -30zM433 253l20 -248q-15 -5 -26 -5q-28 0 -28 24
l-1 132q-46 -89 -92 -125t-104 -36q-120 0 -120 131v191q0 64 -7 153q18 5 34 5q24 0 24 -22v-321q0 -93 73 -93q53 0 96.5 43.5t87.5 133.5l-3 254q25 5 34 5q16 0 21.5 -8t5.5 -32q0 -39 -15 -182z" />
    <glyph glyph-name="Wcircumflex" unicode="&#x174;" horiz-adv-x="1100" 
d="M416 820q-5 4 -16 23q17 14 31.5 28t24 24.5l28.5 31.5t34 37q20 21 35 21q14 0 32 -21q90 -102 111 -122q-15 -26 -35 -26q-10 0 -24 16q-42 47 -86 119q-36 -55 -93 -120q-22 -25 -42 -11zM975 713q42 -156 42 -373q0 -172 -59 -258.5t-186 -86.5q-81 0 -133 40
t-92 118q-61 -158 -235 -158q-224 0 -223 311q0 329 -6 414q58 17 58 -13q1 -47 1 -389q0 -277 179 -277q79 0 128.5 45t80.5 151v483q28 8 44.5 3t16.5 -29v-76v-81t-0.5 -68.5t-2.5 -75t-5 -62t-7.5 -67t-10.5 -54.5q43 -90 84.5 -129.5t121.5 -39.5q192 0 192 296
q0 28 -0.5 51.5t-2.5 48.5t-3 40.5t-5 41t-5.5 35.5t-7.5 39.5t-8 37.5t-10 44l-10 45q24 12 42 10.5t22 -17.5z" />
    <glyph glyph-name="wcircumflex" unicode="&#x175;" horiz-adv-x="769" 
d="M252 570q-5 4 -16 23q17 14 31.5 28t24 24.5l28.5 31.5t34 37q20 21 35 21q14 0 32 -21q90 -102 111 -122q-15 -26 -35 -26q-10 0 -24 16q-42 47 -86 119q-36 -55 -93 -120q-22 -25 -42 -11zM683 457q31 -75 31 -194q0 -134 -48 -201.5t-138 -67.5q-52 0 -90 26.5
t-58 71.5q-48 -98 -155 -98q-156 0 -156 168v148q0 107 -7 160q18 5 33 5q25 0 25 -28l-1 -288q0 -124 109 -124q47 0 77 22.5t55 72.5l-8 340q24 7 34 5q23 -4 23 -33q0 -129 -11 -268q15 -73 44 -106t87 -33q133 0 133 220q0 109 -37 212q16 8 29 8q22 0 29 -18z" />
    <glyph glyph-name="Ycircumflex" unicode="&#x176;" horiz-adv-x="586" 
d="M128 830q-5 4 -16 23q17 14 31.5 28t24 24.5l28.5 31.5t34 37q20 21 35 21q14 0 32 -21q90 -102 111 -122q-15 -26 -35 -26q-10 0 -24 16q-42 47 -86 119q-36 -55 -93 -120q-22 -25 -42 -11zM500 737q28 1 38 -13.5t1 -35.5q-17 -38 -101 -214.5t-108 -223.5l3 -250
q-17 -5 -25 -5q-16 0 -22 5.5t-6 18.5v237q-154 305 -242 455q18 24 39 24q14 0 21 -13q25 -42 54.5 -99.5t49.5 -99.5l55 -115.5t50 -104.5q88 156 193 434z" />
    <glyph glyph-name="ycircumflex" unicode="&#x177;" horiz-adv-x="523" 
d="M118 570q-5 4 -16 23q17 14 31.5 28t24 24.5l28.5 31.5t34 37q20 21 35 21q14 0 32 -21q90 -102 111 -122q-15 -26 -35 -26q-10 0 -24 16q-42 47 -86 119q-36 -55 -93 -120q-22 -25 -42 -11zM435 275l19 -231q9 -105 -49 -169t-152 -64q-45 0 -88 14t-70 36
q-20 15 -20 33q0 21 27 34q20 -27 58.5 -50t90.5 -23q82 0 122.5 51t33.5 135l-11 139q-81 -164 -181 -164q-125 0 -125 127q0 238 -7 327q18 5 33 5q24 0 24 -22v-303q0 -44 17 -66.5t59 -22.5q53 0 89 41.5t84 140.5l-3 227q15 5 31 5q18 0 23.5 -7.5t5.5 -32.5
q0 -13 -2 -38.5t-5 -62.5t-4 -59z" />
    <glyph glyph-name="Ydieresis" unicode="&#x178;" horiz-adv-x="586" 
d="M169 843q-39 0 -39 44t39 44t39 -44t-39 -44zM363 843q-39 0 -39 44t39 44t39 -44t-39 -44zM500 737q28 1 38 -13.5t1 -35.5q-17 -38 -101 -214.5t-108 -223.5l3 -250q-17 -5 -25 -5q-16 0 -22 5.5t-6 18.5v237q-154 305 -242 455q18 24 39 24q14 0 21 -13
q25 -42 54.5 -99.5t49.5 -99.5l55 -115.5t50 -104.5q88 156 193 434z" />
    <glyph glyph-name="Zacute" unicode="&#x179;" horiz-adv-x="608" 
d="M420 926l-103 -119q-13 4 -21 13.5t0 22.5q9 14 45 64.5t52 81.5q20 -3 31 -12q10 -8 10 -21q0 -14 -14 -30zM550 663l-439 -623q74 0 221.5 2t221.5 3q1 -29 -8.5 -39t-35.5 -10q-28 0 -440 4q-23 34 -5 61l439 622q-260 -9 -425 -8q-23 0 -29.5 10.5t-0.5 36.5
q181 -6 500 -2q9 -11 9.5 -27.5t-8.5 -29.5z" />
    <glyph glyph-name="zacute" unicode="&#x17a;" horiz-adv-x="446" 
d="M303 676l-103 -119q-13 4 -21 13.5t0 22.5q9 14 45 64.5t52 81.5q20 -3 31 -12q10 -7 10 -21t-14 -30zM407 43q11 -45 -24 -45q-205 0 -332 2q-16 27 -2 45q159 203 293 392q-163 -7 -277 -6q-31 0 -15 42q145 -8 348 -1q9 -32 -4 -48q-133 -164 -293 -389q205 0 306 8z
" />
    <glyph glyph-name="Zdotaccent" unicode="&#x17b;" horiz-adv-x="608" 
d="M355 853q-46 0 -46 50q0 48 47 48t47 -51q0 -47 -48 -47zM550 663l-439 -623q74 0 221.5 2t221.5 3q1 -29 -8.5 -39t-35.5 -10q-28 0 -440 4q-23 34 -5 61l439 622q-260 -9 -425 -8q-23 0 -29.5 10.5t-0.5 36.5q181 -6 500 -2q9 -11 9.5 -27.5t-8.5 -29.5z" />
    <glyph glyph-name="zdotaccent" unicode="&#x17c;" horiz-adv-x="446" 
d="M238 603q-46 0 -46 50q0 48 47 48t47 -51q0 -47 -48 -47zM407 43q11 -45 -24 -45q-205 0 -332 2q-16 27 -2 45q159 203 293 392q-163 -7 -277 -6q-31 0 -15 42q145 -8 348 -1q9 -32 -4 -48q-133 -164 -293 -389q205 0 306 8z" />
    <glyph glyph-name="Zcaron" unicode="&#x17d;" horiz-adv-x="608" 
d="M314 837q-90 102 -111 122q15 26 35 26q10 0 24 -16q43 -51 86 -119q36 55 93 120q22 25 42 11q5 -4 16 -23q-17 -14 -31.5 -28t-24 -24.5l-28.5 -31.5t-34 -37q-20 -21 -35 -21q-14 0 -32 21zM550 663l-439 -623q74 0 221.5 2t221.5 3q1 -29 -8.5 -39t-35.5 -10
q-28 0 -440 4q-23 34 -5 61l439 622q-260 -9 -425 -8q-23 0 -29.5 10.5t-0.5 36.5q181 -6 500 -2q9 -11 9.5 -27.5t-8.5 -29.5z" />
    <glyph glyph-name="zcaron" unicode="&#x17e;" horiz-adv-x="446" 
d="M197 587q-90 102 -111 122q15 26 35 26q10 0 24 -16q43 -51 86 -119q36 55 93 120q22 25 42 11q5 -4 16 -23q-17 -14 -31.5 -28t-24 -24.5l-28.5 -31.5t-34 -37q-20 -21 -35 -21q-14 0 -32 21zM407 43q11 -45 -24 -45q-205 0 -332 2q-16 27 -2 45q159 203 293 392
q-163 -7 -277 -6q-31 0 -15 42q145 -8 348 -1q9 -32 -4 -48q-133 -164 -293 -389q205 0 306 8z" />
    <glyph glyph-name="circumflex" unicode="&#x2c6;" horiz-adv-x="455" 
d="M244 714q90 -102 111 -122q-15 -26 -35 -26q-10 0 -24 16q-42 47 -86 119q-36 -55 -93 -120q-22 -25 -42 -11q-5 4 -16 23q17 14 31.5 28t24 24.5l28.5 31.5t34 37q20 21 35 21q14 0 32 -21z" />
    <glyph glyph-name="caron" unicode="&#x2c7;" horiz-adv-x="455" 
d="M374 731q5 -4 16 -23q-17 -14 -31.5 -28t-24 -24.5l-28.5 -31.5t-34 -37q-20 -21 -35 -21q-14 0 -32 21q-90 102 -111 122q15 26 35 26q10 0 24 -16q43 -51 86 -119q36 55 93 120q22 25 42 11z" />
    <glyph glyph-name="breve" unicode="&#x2d8;" horiz-adv-x="478" 
d="M380 698q0 -57 -40.5 -93.5t-104.5 -36.5q-51 0 -89.5 28t-46.5 75q-5 29 4.5 40t39.5 11q0 -117 92 -117q93 0 93 133q32 0 42 -9t10 -31z" />
    <glyph glyph-name="dotaccent" unicode="&#x2d9;" horiz-adv-x="261" 
d="M130 603q-46 0 -46 50q0 48 47 48t47 -51q0 -47 -48 -47z" />
    <glyph glyph-name="ring" unicode="&#x2da;" horiz-adv-x="398" 
d="M198 560q-50 0 -78 24.5t-28 68.5q0 43 28.5 67.5t77.5 24.5q50 0 78 -24.5t28 -67.5t-29 -68t-77 -25zM198 714q-26 0 -41.5 -16t-15.5 -45t15.5 -45.5t41.5 -16.5t41.5 16.5t15.5 45.5t-15.5 45t-41.5 16z" />
    <glyph glyph-name="ogonek" unicode="&#x2db;" horiz-adv-x="394" 
d="M194 5l34 -3q-41 -83 -41 -138q0 -47 34 -47q31 0 55 41q23 -10 23 -26q0 -20 -24 -42.5t-65 -22.5q-36 0 -56 21.5t-20 62.5q0 15 3 31t6 26.5t11 26.5t11.5 22.5t15 25t13.5 22.5z" />
    <glyph glyph-name="tilde" unicode="&#x2dc;" horiz-adv-x="500" 
d="M377 709q31 0 31 -53q0 -44 -23 -68t-63 -24q-48 0 -81 41q-10 13 -21.5 29.5t-17 24.5t-12.5 14t-15 6q-42 0 -27 -91q-15 -5 -26 -5q-17 0 -22.5 7t-5.5 28q0 44 22.5 68t61.5 24q24 0 39.5 -9t35.5 -35q46 -60 57 -67q6 -4 14 -4q34 0 34 57q0 22 -11 50q17 7 30 7z
" />
    <glyph glyph-name="hungarumlaut" unicode="&#x2dd;" horiz-adv-x="424" 
d="M199 676l-103 -119q-13 4 -21 13.5t0 22.5q9 14 45 64.5t52 81.5q20 -3 31 -12q10 -7 10 -21t-14 -30zM322 676l-103 -119q-13 4 -21 13.5t0 22.5q9 14 45 64.5t52 81.5q20 -3 31 -12q10 -7 10 -21t-14 -30z" />
    <glyph glyph-name="gravecomb" unicode="&#x300;" 
d="M-126 557l-103 119q-14 16 -14 30t10 21q11 9 31 12q16 -31 52 -81.5t45 -64.5q8 -13 0 -22.5t-21 -13.5z" />
    <glyph glyph-name="acutecomb" unicode="&#x301;" 
d="M-103 676l-103 -119q-13 4 -21 13.5t0 22.5q9 14 45 64.5t52 81.5q20 -3 31 -12q10 -7 10 -21t-14 -30z" />
    <glyph glyph-name="uni0302" unicode="&#x302;" 
d="M-172 714q90 -102 111 -122q-15 -26 -35 -26q-10 0 -24 16q-42 47 -86 119q-36 -55 -93 -120q-22 -25 -42 -11q-5 4 -16 23q17 14 31.5 28t24 24.5l28.5 31.5t34 37q20 21 35 21q14 0 32 -21z" />
    <glyph glyph-name="tildecomb" unicode="&#x303;" 
d="M-378 578q-28 0 -28 36q0 39 25.5 58t56.5 19q24 0 46.5 -13t36 -28.5t32 -28.5t35.5 -13q32 0 32 36q0 16 -8 37q18 7 30 7q28 0 28 -34q0 -38 -25 -58.5t-58 -20.5q-24 0 -45.5 13t-35.5 28.5t-32.5 28.5t-35.5 13q-32 0 -32 -36q0 -18 8 -37q-18 -7 -30 -7z" />
    <glyph glyph-name="uni0304" unicode="&#x304;" 
d="M-343 578q-4 25 2 35t32 10q39 0 115.5 -0.5t94.5 -0.5q6 -17 1.5 -28t-25.5 -11q-140 0 -220 -5z" />
    <glyph glyph-name="uni0306" unicode="&#x306;" 
d="M-98 698q0 -57 -40.5 -93.5t-104.5 -36.5q-51 0 -89.5 28t-46.5 75q-5 29 4.5 40t39.5 11q0 -117 92 -117q93 0 93 133q32 0 42 -9t10 -31z" />
    <glyph glyph-name="uni0307" unicode="&#x307;" 
d="M-131 603q-46 0 -46 50q0 48 47 48t47 -51q0 -47 -48 -47z" />
    <glyph glyph-name="uni0308" unicode="&#x308;" 
d="M-310 583q-39 0 -39 44t39 44t39 -44t-39 -44zM-116 583q-39 0 -39 44t39 44t39 -44t-39 -44z" />
    <glyph glyph-name="uni030A" unicode="&#x30a;" 
d="M-200 560q-50 0 -78 24.5t-28 68.5q0 43 28.5 67.5t77.5 24.5q50 0 78 -24.5t28 -67.5t-29 -68t-77 -25zM-200 714q-26 0 -41.5 -16t-15.5 -45t15.5 -45.5t41.5 -16.5t41.5 16.5t15.5 45.5t-15.5 45t-41.5 16z" />
    <glyph glyph-name="uni030B" unicode="&#x30b;" 
d="M-401 676l-103 -119q-13 4 -21 13.5t0 22.5q9 14 45 64.5t52 81.5q20 -3 31 -12q10 -7 10 -21t-14 -30zM-278 676l-103 -119q-13 4 -21 13.5t0 22.5q9 14 45 64.5t52 81.5q20 -3 31 -12q10 -7 10 -21t-14 -30z" />
    <glyph glyph-name="uni030C" unicode="&#x30c;" 
d="M-226 731q5 -4 16 -23q-17 -14 -31.5 -28t-24 -24.5l-28.5 -31.5t-34 -37q-20 -21 -35 -21q-14 0 -32 21q-90 102 -111 122q15 26 35 26q10 0 24 -16q43 -51 86 -119q36 55 93 120q22 25 42 11z" />
    <glyph glyph-name="uni0312" unicode="&#x312;" 
d="M-106 597q-22 -9 -40 -9q-12 0 -16 10t-4 34q0 36 10.5 97.5t23.5 103.5l24 -3q-10 -59 -10 -129q0 -63 12 -104z" />
    <glyph glyph-name="uni0326" unicode="&#x326;" 
d="M-196 -101q22 9 40 9q12 0 16 -10t4 -34q0 -36 -10.5 -97.5t-23.5 -103.5l-24 3q10 59 10 129q0 63 -12 104z" />
    <glyph glyph-name="uni0327" unicode="&#x327;" 
d="M-271 -229q-20 0 -28.5 5t-8.5 18q0 6 3 17q64 -5 100.5 11.5t36.5 49.5q0 52 -92 37l-1 21q35 8 64 8q73 0 73 -69q0 -46 -43.5 -72t-103.5 -26z" />
    <glyph glyph-name="uni0328" unicode="&#x328;" 
d="M-406 5l34 -3q-41 -83 -41 -138q0 -47 34 -47q31 0 55 41q23 -10 23 -26q0 -20 -24 -42.5t-65 -22.5q-36 0 -56 21.5t-20 62.5q0 15 3 31t6 26.5t11 26.5t11.5 22.5t15 25t13.5 22.5z" />
    <glyph glyph-name="uni0401" unicode="&#x401;" horiz-adv-x="560" 
d="M209 853q-39 0 -39 44t39 44t39 -44t-39 -44zM403 853q-39 0 -39 44t39 44t39 -44t-39 -44zM523 44q4 -18 -3 -30.5t-27 -13.5q-163 -4 -327 0q-27 1 -39 11.5t-13 35.5q-4 297 0 591q0 25 7 40q-44 0 -66 1q-12 39 13 39q219 3 439 3q5 -23 -8.5 -34t-55.5 -11
q-185 0 -277 1v-304q120 4 289 2q5 -19 -3.5 -29.5t-25.5 -10.5h-260v-295q247 0 357 4z" />
    <glyph glyph-name="uni0410" unicode="&#x410;" horiz-adv-x="696" 
d="M397 698l184 -545q3 -9 9.5 -30.5t10.5 -33t10 -28t12 -29t13 -22.5q-16 -16 -37 -16q-22 0 -28 17l-73 225q-204 -8 -306 -5l-51 -148q-16 -48 -20 -83q-13 -6 -33 -6q-14 0 -21 8.5t-3 20.5l226 634q13 35 20 63q28 6 41 6q37 0 46 -28zM351 689l-146 -421l282 3z" />
    <glyph glyph-name="uni0411" unicode="&#x411;" horiz-adv-x="587" 
d="M301 401q108 0 173 -51t65 -143q0 -99 -67.5 -150.5t-189.5 -56.5q-63 -3 -128 0q-45 1 -47 51q-4 295 0 590q0 26 9 39h-68q-10 40 28 40q50 1 210 -1t210 2q7 -42 -36 -43q-20 0 -301 2v-289q70 10 142 10zM293 40q192 9 192 164q0 157 -193 157q-67 0 -133 -14v-304
q67 -6 134 -3z" />
    <glyph glyph-name="uni0412" unicode="&#x412;" horiz-adv-x="625" 
d="M412 363q69 -14 109 -60.5t40 -114.5q0 -193 -260 -193q-82 0 -147 5q-17 1 -24.5 3.5t-13 11t-5.5 26.5q-5 300 0 600q0 28 11 43l-72 -8q-6 17 -2.5 30.5t16.5 14.5q111 9 195 9q266 0 266 -189q0 -114 -113 -178zM265 692q-57 0 -101 -4l-1 -311l217 -1
q44 26 68.5 68.5t24.5 92.5q0 155 -208 155zM299 35q210 0 210 149q0 99 -75.5 132.5t-270.5 18.5l1 -291q71 -9 135 -9z" />
    <glyph glyph-name="uni0413" unicode="&#x413;" horiz-adv-x="498" 
d="M464 721q5 -23 -8.5 -34t-55.5 -11q-161 0 -239 1q0 -566 2 -677q-9 -6 -24 -6q-31 0 -31 22v620q0 25 10 42q-45 0 -70 1q-12 39 16 39q73 2 200 2t200 1z" />
    <glyph glyph-name="uni0414" unicode="&#x414;" horiz-adv-x="757" 
d="M671 40h54v-137q0 -45 -51 -29v126h-554v-97q0 -23 -17.5 -29.5t-30.5 0.5v149q0 18 18 18q5 0 15.5 0.5t15.5 0.5l211 589q22 60 26 89q30 6 44 6q37 0 46 -28l184 -545q34 -102 39 -113zM180 43q31 0 432 -2l-210 648l-210 -606q-8 -22 -12 -40z" />
    <glyph glyph-name="uni0415" unicode="&#x415;" horiz-adv-x="560" 
d="M523 44q4 -18 -3 -30.5t-27 -13.5q-163 -4 -327 0q-27 1 -39 11.5t-13 35.5q-4 297 0 591q0 25 7 40q-44 0 -66 1q-12 39 13 39q219 3 439 3q5 -23 -8.5 -34t-55.5 -11q-185 0 -277 1v-304q120 4 289 2q5 -19 -3.5 -29.5t-25.5 -10.5h-260v-295q247 0 357 4z" />
    <glyph glyph-name="uni0416" unicode="&#x416;" horiz-adv-x="976" 
d="M869 311q0 -220 3 -311q-16 -6 -32 -6q-11 0 -17.5 7.5t-6.5 19.5q-1 53 0.5 148.5t1.5 126.5v10q-261 -4 -305 -4q0 -214 3 -302q-16 -6 -32 -6q-11 0 -17.5 7.5t-6.5 19.5q-1 53 0.5 148.5t1.5 126.5v6q-213 -2 -303 1q0 -215 3 -303q-16 -6 -32 -6q-11 0 -17.5 7.5
t-6.5 19.5q-1 53 0.5 148.5t1.5 126.5q0 142 -4 424q16 7 31 7q11 0 17.5 -6t6.5 -14v-366h303q0 127 -4 379q16 7 31 7q11 0 17.5 -6t6.5 -14v-366l305 3q0 126 -4 376q16 7 31 7q11 0 17.5 -6t6.5 -14v-396z" />
    <glyph glyph-name="uni0417" unicode="&#x417;" horiz-adv-x="551" 
d="M257 -8q-87 0 -161 32q-25 11 -34 19.5t-9 20.5q0 14 14 31q96 -63 188 -63q84 0 132.5 36t48.5 110q0 130 -202 133q-28 -7 -51 -7q-30 0 -36.5 17.5t4.5 32.5l115 -9q61 28 104.5 82t43.5 127q0 63 -39 99.5t-115 36.5q-63 0 -103 -32t-44 -101q-27 -5 -38 2
q-15 10 -8 46q12 57 67 91t129 34q97 0 151.5 -47t54.5 -129q0 -74 -43 -130.5t-114 -87.5q87 -15 133 -56t46 -104q0 -85 -63 -134.5t-171 -49.5z" />
    <glyph glyph-name="uni0418" unicode="&#x418;" horiz-adv-x="720" 
d="M275 -5q-41 0 -70.5 11.5t-47 30t-27.5 47t-13.5 57t-3.5 66.5v148.5v124t-0.5 82t-2.5 85t-6 71.5q20 9 36 9q25 0 25 -25v-503q0 -88 29 -126t85 -38q73 0 138.5 74t139.5 227v384q16 7 29 7q31 0 31 -41q0 -84 -17 -290l25 -394q-20 -7 -37 -7q-21 0 -21 24
q-4 141 -5 243q-66 -140 -134.5 -203.5t-152.5 -63.5z" />
    <glyph glyph-name="uni0419" unicode="&#x419;" horiz-adv-x="726" 
d="M202 890l261 7q9 0 13 -9t0.5 -18.5t-13.5 -9.5l-250 -1q-10 0 -12.5 10.5t1.5 20.5zM281 -5q-41 0 -70.5 11.5t-47 30t-27.5 47t-13.5 57t-3.5 66.5v148.5v124t-0.5 82t-2.5 85t-6 71.5q20 9 36 9q25 0 25 -25v-503q0 -88 29 -126t85 -38q73 0 138.5 74t139.5 227v384
q16 7 29 7q31 0 31 -41q0 -84 -17 -290l25 -394q-20 -7 -37 -7q-21 0 -21 24q-4 141 -5 243q-66 -140 -134.5 -203.5t-152.5 -63.5z" />
    <glyph glyph-name="uni041A" unicode="&#x41a;" horiz-adv-x="687" 
d="M613 702l-230 -367q100 -175 266 -305q-7 -37 -37 -37q-28 0 -62 33q-50 48 -106.5 132.5t-81.5 143.5l-175 -279q-17 -27 -41 -27q-18 0 -28.5 11.5t-10.5 26.5v686q13 6 29 6q23 0 23 -16v-328q0 -136 -4 -337l203 323q18 50 74 149t107 174q14 21 21.5 28t20.5 7
q22 0 32 -24z" />
    <glyph glyph-name="uni041B" unicode="&#x41b;" horiz-adv-x="696" 
d="M88 -6q-14 0 -21 8.5t-3 20.5l226 634q13 35 20 63q28 6 41 6q37 0 46 -28l184 -545q3 -9 9.5 -30.5t10.5 -33t10 -28t12 -29t13 -22.5q-16 -16 -37 -16q-22 0 -28 17l-220 678l-210 -606q-16 -48 -20 -83q-13 -6 -33 -6z" />
    <glyph glyph-name="uni041C" unicode="&#x41c;" horiz-adv-x="947" 
d="M784 679l61 -519q11 -101 28 -151q-20 -14 -40 -14q-14 0 -21 4t-8 8t-2 12q-12 114 -36 337t-35 325l-187 -547q-13 -39 -34 -128q-12 -6 -38 -6q-31 0 -41 29l-222 647l-58 -544q-9 -81 -6 -129q-17 -8 -30 -8q-20 0 -25.5 11t-2.5 37l58 530q13 127 13 147q22 6 50 6
q24 0 36 -9.5t20 -32.5l138 -408q48 -140 71 -220q25 89 69 218l108 325q22 65 33 120q37 7 53 7q43 0 48 -47z" />
    <glyph glyph-name="uni041D" unicode="&#x41d;" horiz-adv-x="709" 
d="M602 690q-1 -513 3 -690q-17 -5 -32 -5q-22 0 -22 22v289q-241 -15 -392 -9q0 -155 3 -297q-17 -5 -32 -5q-22 0 -22 22v141v136v114t-0.5 108.5t-1.5 83t-3 73.5t-4 47q12 6 33 6q16 0 22 -8t5 -28q0 -85 -0.5 -201t-0.5 -152q126 -3 393 7q0 300 -9 376q12 6 33 6
q16 0 22 -8t5 -28z" />
    <glyph glyph-name="uni041E" unicode="&#x41e;" horiz-adv-x="777" 
d="M388 -10q-142 0 -223 98.5t-81 268.5q0 171 82 272t222 101q141 0 223 -101t82 -272q0 -170 -81.5 -268.5t-223.5 -98.5zM399 36q114 4 179 91.5t60 238.5t-76 236.5t-185 81.5q-115 -5 -179 -95t-59 -241t75.5 -233.5t184.5 -78.5z" />
    <glyph glyph-name="uni041F" unicode="&#x41f;" horiz-adv-x="709" 
d="M602 699v-388q0 -220 3 -311q-16 -6 -32 -6q-11 0 -17.5 7.5t-6.5 19.5q-1 23 0 137.5t1 137.5q0 45 0.5 161.5t0.5 225.5l-389 -4v-368q0 -220 3 -311q-16 -6 -32 -6q-10 0 -16.5 7.5t-6.5 19.5q-2 23 -0.5 137.5t1.5 137.5q-1 57 -1 172t-1 173q-2 22 8 38l-68 -1
q-5 19 -0.5 30.5t17.5 11.5q257 6 513 0q10 0 16.5 -6t6.5 -15z" />
    <glyph glyph-name="uni0420" unicode="&#x420;" horiz-adv-x="578" 
d="M231 728q151 0 229.5 -50.5t78.5 -168.5q0 -111 -69 -172.5t-195 -61.5q-55 0 -115 12q0 -229 5 -286q-19 -7 -32 -7q-27 0 -27 21q-4 274 1 625q0 26 9 40q-49 -5 -67 -7q-5 17 0 31.5t18 15.5q101 8 164 8zM285 317q91 0 145.5 49.5t54.5 139.5q0 91 -55.5 135.5
t-200.5 44.5q-33 0 -70 -3v-352q64 -14 126 -14z" />
    <glyph glyph-name="uni0421" unicode="&#x421;" horiz-adv-x="649" 
d="M361 -5q-136 0 -213 90t-77 254q0 171 75.5 281t203.5 110q95 0 152 -64.5t57 -164.5q0 -37 -11.5 -47.5t-48.5 -3.5v57q0 92 -41 134.5t-107 42.5q-108 0 -167 -95.5t-59 -244.5q0 -148 65.5 -225.5t174.5 -77.5q104 0 203 124q44 -20 14 -63q-28 -41 -90.5 -74
t-130.5 -33z" />
    <glyph glyph-name="uni0422" unicode="&#x422;" horiz-adv-x="550" 
d="M509 722q6 -18 2.5 -29t-15.5 -11q-66 -1 -199 -1q1 -65 1.5 -241.5t2 -286.5t3.5 -148q-17 -10 -33 -10q-25 0 -25 22q-2 423 1 636q0 15 10 28q-145 0 -217 1q-11 38 19 38q85 1 242.5 1.5t207.5 0.5z" />
    <glyph glyph-name="uni0423" unicode="&#x423;" horiz-adv-x="618" 
d="M491 452l18 -206q10 -120 -53.5 -188t-175.5 -68q-103 0 -184 70q-15 13 -15 26q0 22 28 41q66 -93 171 -93q84 0 139 53t47 145l-14 168q-52 -79 -101 -113t-114 -34q-145 0 -145 167q0 230 -6 300q22 6 34 6q24 0 24 -22v-108t0.5 -114.5t0.5 -54.5q0 -67 23.5 -97.5
t76.5 -30.5q56 0 103 38.5t105 132.5v250q18 6 33 6q26 0 26 -24q0 -89 -21 -250z" />
    <glyph glyph-name="uni0424" unicode="&#x424;" horiz-adv-x="811" 
d="M727 364q0 -131 -74.5 -204t-218.5 -80q2 -74 3 -108q-18 -8 -32 -8q-27 0 -27 21v95q-144 6 -219 78.5t-75 203.5q0 117 63 191t181 92q33 6 50 -10q-2 92 -5 125q20 6 33 6q27 0 27 -18v-101q144 -6 219 -79t75 -204zM433 118q116 7 178 72t62 174q0 108 -62 173
t-178 72q-1 -76 -1 -231q0 -182 1 -260zM138 362q0 -108 62 -172.5t178 -71.5q1 86 1 259q0 155 -1 230q-240 -20 -240 -245z" />
    <glyph glyph-name="uni0425" unicode="&#x425;" horiz-adv-x="653" 
d="M578 662l-224 -302q210 -291 254 -340q-16 -29 -41 -29q-14 -1 -31 26q-104 155 -216 310l-153 -213q-58 -80 -79 -124q-35 1 -38 24q-3 14 11 34l234 314q-189 261 -258 344q15 23 42 23q2 0 4 -0.5l4 -1t4 -1.5t3 -2l3 -3l3 -3t3 -3.5t2.5 -3.5t2.5 -4t3 -4
q111 -159 217 -308l144 201q60 83 79 124q33 -2 38 -23q3 -16 -11 -35z" />
    <glyph glyph-name="uni0426" unicode="&#x426;" horiz-adv-x="762" 
d="M657 -184q2 24 6.5 66t7 70.5t2.5 45.5q-53 -13 -83.5 10.5t-29.5 80.5q0 74 1 123q-68 -110 -130 -166t-147 -56q-51 0 -86 16.5t-53 47.5t-25.5 67t-7.5 82q0 464 -6 517q16 7 33 7q25 0 25 -25v-507q0 -165 124 -165q79 0 137.5 60t130.5 188v442q16 7 29 7
q29 0 29 -29q0 -80 -11 -302l9 -309q1 -34 21.5 -43t83.5 3q0 -88 -9 -194q-2 -18 -5 -25t-13.5 -11t-32.5 -1z" />
    <glyph glyph-name="uni0427" unicode="&#x427;" horiz-adv-x="648" 
d="M541 311q0 -220 3 -311q-16 -6 -32 -6q-11 0 -17.5 7.5t-6.5 19.5q-1 53 0.5 148.5t1.5 126.5v93q-48 -74 -99 -108.5t-126 -34.5q-92 0 -140.5 46.5t-48.5 133.5q0 224 -4 304q21 6 33 6q23 0 23 -25v-281q0 -146 137 -146q75 0 128 46t96 119q0 1 -3 271q16 7 31 7
q11 0 17.5 -6t6.5 -14v-396z" />
    <glyph glyph-name="uni0428" unicode="&#x428;" horiz-adv-x="1149" 
d="M272 -10q-51 0 -86 16.5t-53 47.5t-25.5 67t-7.5 82q0 464 -6 517q16 7 33 7q25 0 25 -25v-507q0 -165 124 -165q82 0 141.5 63t124.5 209q0 369 -6 418q16 7 33 7q25 0 25 -25v-507q0 -165 124 -165q83 0 142.5 63.5t125.5 212.5v414q16 7 29 7q29 0 29 -29
q0 -80 -11 -302l12 -396q-20 -5 -32 -5q-10 0 -17 6t-7 16q0 104 2 215q-64 -129 -125.5 -185.5t-151.5 -56.5q-92 0 -132 54.5t-40 174.5q-62 -121 -122.5 -175t-147.5 -54z" />
    <glyph glyph-name="uni0429" unicode="&#x429;" horiz-adv-x="1208" 
d="M1048 242l3 -114q0 -36 3.5 -52t15 -25.5t33.5 -7t60 3.5q-6 -143 -11 -194q-2 -24 -14 -32.5t-44 -4.5q8 66 17 182q-61 -13 -85 17t-24 95l3 129q-66 -133 -128 -191t-153 -58q-92 0 -132 54.5t-40 174.5q-62 -121 -122.5 -175t-147.5 -54q-51 0 -86 16.5t-53 47.5
t-25.5 67t-7.5 82q0 464 -6 517q16 7 33 7q25 0 25 -25v-507q0 -165 124 -165q82 0 141.5 63t124.5 209q0 369 -6 418q16 7 33 7q25 0 25 -25v-507q0 -165 124 -165q83 0 142.5 63.5t125.5 212.5v414q16 7 29 7q29 0 29 -29q0 -80 -11 -302z" />
    <glyph glyph-name="uni042A" unicode="&#x42a;" horiz-adv-x="690" 
d="M375 -10q-129 0 -195 68t-66 177q0 39 10 77t22 67.5t40 66t46.5 59t60 60.5t62.5 56t70 59q-205 -15 -363 -6q-36 1 -19 47q193 -15 434 -2q19 -37 -2 -56q-12 -11 -50 -40.5t-65 -53.5t-63 -59t-66.5 -76.5t-53.5 -86.5q98 80 217 80q110 0 171 -58.5t61 -146.5
q0 -105 -68 -168.5t-183 -63.5zM375 28q89 0 143 46.5t54 147.5q0 76 -46 121.5t-132 45.5q-109 0 -221 -81q-5 -28 -5 -76q0 -98 56.5 -151t150.5 -53z" />
    <glyph glyph-name="uni042B" unicode="&#x42b;" horiz-adv-x="869" 
d="M342 -11q-116 0 -180 64t-66 175l-1 92q-1 90 -0.5 151.5t-1 126t-7.5 122.5q19 7 34 7q12 0 19 -6t7 -14v-333q96 84 218 84q107 0 168.5 -66.5t61.5 -166.5q0 -104 -66.5 -170t-185.5 -66zM735 -6q-25 0 -25 20l1 706q16 6 26 6q28 0 28 -15v-711q-13 -6 -30 -6z
M348 27q90 0 141 56t51 143q0 89 -51 141.5t-128 52.5q-118 0 -215 -89v-105q0 -97 58.5 -148t143.5 -51z" />
    <glyph glyph-name="uni042C" unicode="&#x42c;" horiz-adv-x="648" 
d="M342 -11q-116 0 -180 64t-66 175l-1 92q-1 90 -0.5 151.5t-1 126t-7.5 122.5q19 7 34 7q12 0 19 -6t7 -14v-333q96 84 218 84q107 0 168.5 -66.5t61.5 -166.5q0 -104 -66.5 -170t-185.5 -66zM348 27q90 0 141 56t51 143q0 89 -51 141.5t-128 52.5q-118 0 -215 -89v-105
q0 -97 58.5 -148t143.5 -51z" />
    <glyph glyph-name="uni042D" unicode="&#x42d;" horiz-adv-x="621" 
d="M283 730q124 0 189 -91t65 -274q0 -186 -68.5 -280.5t-198.5 -94.5q-63 0 -104 13.5t-85 40.5q-26 16 -26 38q0 16 19 30q83 -80 188 -80q107 0 160.5 71t59.5 223h-273v41h274v1q0 166 -49 243t-156 77q-77 0 -119.5 -33.5t-63.5 -112.5q-32 0 -40 15q-9 14 4 49
q50 124 224 124z" />
    <glyph glyph-name="uni042E" unicode="&#x42e;" horiz-adv-x="924" 
d="M555 730q137 0 211 -98t74 -275q0 -178 -73 -272.5t-212 -94.5q-135 0 -208 90.5t-76 261.5h-110v-342q-12 -6 -30 -6q-27 0 -27 20l7 314l-6 392q16 6 27 6q29 0 29 -15v-331h110q5 167 78.5 258.5t205.5 91.5zM555 28q106 0 168.5 84.5t62.5 244.5q0 166 -61.5 250.5
t-169.5 84.5t-169 -84t-61 -251q0 -160 62 -244.5t168 -84.5z" />
    <glyph glyph-name="uni042F" unicode="&#x42f;" horiz-adv-x="696" 
d="M623 304q-5 -105 11 -304q-15 -3 -33 -3q-21 0 -22 22q-2 35 -1.5 124.5t2.5 152.5q-79 -17 -112 -23q-154 -235 -353 -274q-20 -4 -40 -4q-26 0 -22 45q101 10 200.5 68t161.5 157q-27 -3 -54 -3q-136 0 -210 59.5t-74 178.5q0 104 67.5 167t186.5 63q88 0 147 -55.5
t59 -157.5q0 -113 -45 -203q39 8 90 21q19 5 30.5 -4t10.5 -27zM358 300q36 0 78 5q45 93 45 209q0 89 -42.5 133.5t-112.5 44.5q-89 0 -141 -48t-52 -145q0 -95 58 -147t167 -52z" />
    <glyph glyph-name="uni0430" unicode="&#x430;" horiz-adv-x="561" 
d="M466 255q10 -188 20 -251q-18 -9 -32 -9q-13 0 -20 4.5t-7.5 8t-0.5 9.5q-3 56 -1 133q-42 -90 -83.5 -125t-104.5 -35q-82 0 -131.5 60.5t-49.5 167.5q0 122 58 192t152 70q44 0 78 -18.5t76 -58.5l-2 80q16 4 34 4q26 0 26 -40q0 -24 -5.5 -97.5t-6.5 -94.5zM247 33
q55 0 91 41t85 141l-3 148q-44 38 -77.5 56t-73.5 18q-75 0 -120.5 -57t-40.5 -160q10 -187 139 -187z" />
    <glyph glyph-name="uni0431" unicode="&#x431;" horiz-adv-x="523" 
d="M117 661q95 -57 151.5 -97t106.5 -92.5t71.5 -111.5t21.5 -135q0 -109 -54.5 -172t-156.5 -63q-96 0 -152 60.5t-56 158.5q0 109 58 168t155 59q52 0 112 -38q-41 65 -108 118.5t-177 118.5q-15 8 -15 25q0 15 8 28q189 14 376 53q17 -38 -24 -46q-32 -7 -133.5 -18.5
t-183.5 -15.5zM260 28q155 0 155 199q0 76 -27 135q-59 36 -120 36q-75 0 -120.5 -48.5t-45.5 -139.5q0 -80 44 -131t114 -51z" />
    <glyph glyph-name="uni0432" unicode="&#x432;" horiz-adv-x="533" 
d="M299 383q85 -4 136 -55.5t51 -128.5q0 -95 -57.5 -152t-149.5 -57q-53 0 -92.5 21t-62 54.5t-36.5 83t-18.5 97.5t-4.5 108q0 382 218 382q80 0 122.5 -40.5t42.5 -112.5q0 -130 -149 -200zM282 694q-84 0 -122.5 -79t-42.5 -259v-5q53 15 90.5 28.5t75.5 33t60.5 42
t37 55t14.5 71.5q0 56 -29.5 84.5t-83.5 28.5zM279 34q65 0 109.5 43t44.5 120q0 151 -156 151q-27 0 -71.5 -14t-87.5 -39q6 -114 44.5 -187.5t116.5 -73.5z" />
    <glyph glyph-name="uni0433" unicode="&#x433;" horiz-adv-x="418" 
d="M199 -9q-65 0 -107.5 29.5t-42.5 85.5q0 29 11 52.5t34.5 42t42 29.5t50.5 26q45 22 57.5 28.5t33.5 21t26 27t5 30.5q0 37 -25.5 56t-69.5 19q-48 0 -79.5 -20.5t-44.5 -49.5q-22 8 -29.5 27t7.5 36t55 34t95 17q63 0 103.5 -26.5t40.5 -84.5q0 -49 -33 -78.5
t-117 -70.5q-28 -14 -43 -22.5t-33 -22.5t-26 -30.5t-8 -37.5q0 -74 100 -74q91 0 141 66q20 -7 26.5 -23t-10.5 -34q-20 -18 -63 -35.5t-97 -17.5z" />
    <glyph glyph-name="uni0434" unicode="&#x434;" horiz-adv-x="559" 
d="M464 264l17 -224q8 -114 -52.5 -173.5t-149.5 -59.5q-51 0 -103.5 18.5t-74.5 39.5q-12 12 -12 26q0 22 18 35q73 -76 166 -76q72 0 118.5 45t42.5 124l-8 144q-40 -79 -83 -111.5t-100 -32.5q-84 0 -135.5 57.5t-51.5 159.5q0 109 59 176.5t155 67.5q85 0 149 -67l-1 70
q18 4 31 4q17 0 23 -10t6 -34q0 -11 -14 -179zM248 63q56 0 94.5 37t80.5 124l-3 147q-42 37 -72.5 51t-70.5 14q-79 0 -125 -51t-43 -150q2 -88 40.5 -130t98.5 -42z" />
    <glyph glyph-name="uni0435" unicode="&#x435;" horiz-adv-x="486" 
d="M408 102q15 -10 16.5 -27t-9.5 -27q-53 -53 -148 -53q-98 0 -157.5 60.5t-59.5 172.5q0 111 57 181.5t156 70.5q92 0 136.5 -72t22.5 -170h-319v-4q0 -93 45 -143.5t121 -50.5q77 0 139 62zM254 435q-66 0 -103.5 -44.5t-45.5 -116.5l269 4q6 69 -25 113t-95 44z" />
    <glyph glyph-name="uni0436" unicode="&#x436;" horiz-adv-x="677" 
d="M576 476q26 0 26 -29v-447q-16 -6 -29 -6q-14 0 -19.5 6.5t-5.5 21.5l4 159q-101 -2 -183 -1v-180q-16 -6 -29 -6q-14 0 -19.5 6.5t-5.5 21.5l4 159q-129 2 -187 4v-185q-16 -6 -29 -6q-14 0 -19.5 6.5t-5.5 21.5l4 174q2 103 -7 274q16 6 31 6q26 0 26 -29v-227h187
q1 87 -7 250q16 6 31 6q26 0 26 -29v-227h183q1 87 -7 250q16 6 31 6z" />
    <glyph glyph-name="uni0437" unicode="&#x437;" horiz-adv-x="439" 
d="M250 140q68 -15 108.5 -55t40.5 -104q0 -80 -60 -127t-141 -47q-85 0 -145 34q-31 18 -31 39q0 19 22 35q61 -65 147 -65q66 0 110.5 32.5t44.5 102.5q0 67 -44.5 97t-123.5 40q-35 -7 -51 -7q-33 0 -33 25q0 11 6 22l109 -9q119 61 119 169q0 59 -36.5 87.5t-90.5 28.5
q-52 0 -85.5 -30t-32.5 -76q-26 -8 -39 6.5t-7 43.5q6 32 48.5 65t117.5 33q78 0 127.5 -39.5t49.5 -109.5q0 -53 -32.5 -105.5t-97.5 -85.5z" />
    <glyph glyph-name="uni0438" unicode="&#x438;" horiz-adv-x="528" 
d="M433 253l20 -248q-15 -5 -26 -5q-28 0 -28 24l-1 132q-46 -89 -92 -125t-104 -36q-120 0 -120 131v191q0 64 -7 153q18 5 34 5q24 0 24 -22v-321q0 -93 73 -93q53 0 96.5 43.5t87.5 133.5l-3 254q25 5 34 5q16 0 21.5 -8t5.5 -32q0 -39 -15 -182z" />
    <glyph glyph-name="uni0439" unicode="&#x439;" horiz-adv-x="528" 
d="M348 578q-121 0 -206 -5q-8 9 -5 20.5t13 11.5q84 3 203 -1q5 -7 3.5 -16.5t-8.5 -9.5zM433 253l20 -248q-15 -5 -26 -5q-28 0 -28 24l-1 132q-46 -89 -92 -125t-104 -36q-120 0 -120 131v191q0 64 -7 153q18 5 34 5q24 0 24 -22v-321q0 -93 73 -93q53 0 96.5 43.5
t87.5 133.5l-3 254q25 5 34 5q16 0 21.5 -8t5.5 -32q0 -39 -15 -182z" />
    <glyph glyph-name="uni043A" unicode="&#x43a;" horiz-adv-x="502" 
d="M450 453l-150 -225q75 -116 172 -202q-10 -31 -37 -31q-14 0 -31 17q-29 28 -67 85t-58 100l-121 -181q-14 -21 -38 -21q-35 0 -35 41v389q0 220 -9 295q12 6 33 6q17 0 23 -8t5 -28l-1 -297q0 -56 -1.5 -121t-3.5 -133.5t-3 -97.5l148 219q53 114 109 196q13 19 30 19
q19 0 35 -22z" />
    <glyph glyph-name="uni043B" unicode="&#x43b;" horiz-adv-x="490" 
d="M63 -4q-19 0 -26.5 9.5t-2.5 22.5l143 362q16 40 24 80q26 6 39 6q33 0 43 -26q45 -126 100 -262t78 -177q-16 -16 -40 -16q-18 0 -28 25q-32 77 -153 413l-99 -277q-43 -122 -46 -156q-20 -4 -32 -4z" />
    <glyph glyph-name="uni043C" unicode="&#x43c;" horiz-adv-x="662" 
d="M554 441l34 -322q10 -86 17 -113q-17 -11 -34 -11q-25 0 -27 27l-37 416q-107 -307 -145 -426q-17 -11 -36 -11q-31 0 -40 29l-135 408l-30 -327q-8 -81 -6 -111q-20 -5 -28 -5q-28 0 -25 26l27 234q19 170 15 214q33 7 47 7q41 0 52 -33l127 -391l105 307q27 79 33 111
q26 6 41 6q41 0 45 -35z" />
    <glyph glyph-name="uni043D" unicode="&#x43d;" horiz-adv-x="525" 
d="M442 447l-5 -241q-2 -107 6 -206q-16 -6 -32 -6q-24 0 -24 25v162q-84 -2 -250 4v-185q-16 -6 -29 -6q-14 0 -19.5 6.5t-5.5 21.5l4 174q2 103 -7 274q16 6 31 6q26 0 26 -29v-227h250v250q20 6 27 6q28 0 28 -29z" />
    <glyph glyph-name="uni043E" unicode="&#x43e;" horiz-adv-x="532" 
d="M266 -10q-97 0 -155 62.5t-58 180.5q0 107 60 177t153 70q97 0 155 -62.5t58 -180.5q0 -107 -60 -177t-153 -70zM266 34q73 0 117 52.5t44 148.5t-44 148.5t-117 52.5t-117 -52.5t-44 -148.5t44 -148.5t117 -52.5z" />
    <glyph glyph-name="uni043F" unicode="&#x43f;" horiz-adv-x="536" 
d="M111 -5q-32 0 -32 57q0 29 16 139q-5 147 -20 279q15 5 36 5q20 0 24 -17q3 -12 1 -132v-33q100 187 196 187q57 0 90.5 -32t32.5 -94l-2 -193q0 -95 9 -158q-17 -8 -32 -8q-27 0 -27 35q0 54 1 161t1 161q0 40 -23 62t-58 22q-87 0 -185 -215l3 -221q-18 -5 -31 -5z" />
    <glyph glyph-name="uni0440" unicode="&#x440;" horiz-adv-x="544" 
d="M327 480q69 0 115 -56t46 -172q0 -120 -54 -191t-164 -71q-84 0 -143 42l1 -221q-12 -4 -27 -4q-20 0 -27 11.5t-7 45.5q0 57 17 318l-21 288q24 6 34 6q28 0 28 -26q0 -82 -1 -155q42 87 88.5 136t114.5 49zM268 34q82 0 124.5 55.5t42.5 159.5q0 98 -34.5 142.5
t-84.5 44.5q-54 0 -98.5 -53t-90.5 -162v-142q76 -45 141 -45z" />
    <glyph glyph-name="uni0441" unicode="&#x441;" horiz-adv-x="477" 
d="M255 -5q-89 0 -144 61.5t-55 174.5q0 110 53 179.5t148 69.5q69 0 112 -38.5t43 -111.5q0 -36 -12.5 -44.5t-44.5 0.5l1 41q0 42 -24.5 75.5t-77.5 33.5q-70 0 -108 -57t-38 -143q0 -93 41 -144.5t111 -51.5q46 0 79.5 20t64.5 66q42 -18 20 -52t-67.5 -56.5
t-101.5 -22.5z" />
    <glyph glyph-name="uni0442" unicode="&#x442;" horiz-adv-x="846" 
d="M111 -5q-34 0 -34 47q0 32 16 149q-5 147 -20 279q15 5 36 5q20 0 24 -17q3 -12 1 -132v-33q98 187 196 187q53 0 84.5 -34.5t31.5 -103.5v-49q95 187 196 187q57 0 90 -31.5t33 -94.5l-1 -212q0 -80 8 -139q-21 -8 -32 -8q-27 0 -27 34q0 42 1 147.5t1 175.5
q0 40 -23 62t-58 22q-81 0 -185 -215q0 -148 8 -221q-20 -5 -34 -5q-30 0 -30 41q0 20 4.5 81t5.5 86v149q0 41 -22.5 62.5t-58.5 21.5q-43 0 -87.5 -54t-97.5 -161l3 -221q-15 -5 -29 -5z" />
    <glyph glyph-name="uni0443" unicode="&#x443;" horiz-adv-x="523" 
d="M435 275l19 -231q9 -105 -49 -169t-152 -64q-45 0 -88 14t-70 36q-20 15 -20 33q0 21 27 34q20 -27 58.5 -50t90.5 -23q82 0 122.5 51t33.5 135l-11 139q-81 -164 -181 -164q-125 0 -125 127q0 238 -7 327q18 5 33 5q24 0 24 -22v-303q0 -44 17 -66.5t59 -22.5
q53 0 89 41.5t84 140.5l-3 227q15 5 31 5q18 0 23.5 -7.5t5.5 -32.5q0 -13 -2 -38.5t-5 -62.5t-4 -59z" />
    <glyph glyph-name="uni0444" unicode="&#x444;" horiz-adv-x="675" 
d="M619 235q0 -111 -70 -175.5t-185 -65.5q0 -118 5 -182q-17 -5 -34 -5q-22 0 -22 24v163q-116 0 -186.5 65t-70.5 176q0 94 56 153.5t149 78.5q39 7 52 -6q-1 145 -6 259q21 6 33 6q24 0 24 -25v-227q115 0 185 -64.5t70 -174.5zM106 235q0 -91 56.5 -145.5t150.5 -56.5
v380v24q-93 -2 -150 -56.5t-57 -145.5zM364 33q93 2 149 56.5t56 144.5t-56 144.5t-149 56.5v-369v-33z" />
    <glyph glyph-name="uni0445" unicode="&#x445;" horiz-adv-x="456" 
d="M414 429l-158 -189q91 -127 168 -222q-16 -24 -38 -24q-14 0 -30 22q-15 21 -41 58.5t-48 69t-42 58.5l-96 -120q-39 -49 -58 -89q-37 3 -37 26q0 10 9 22l160 192q-84 116 -167 220q15 23 37 23q17 0 30 -20q6 -8 55 -78.5t76 -107.5l94 118q40 52 58 89q37 -3 37 -26
q0 -12 -9 -22z" />
    <glyph glyph-name="uni0446" unicode="&#x446;" horiz-adv-x="566" 
d="M472 -150l4 146q-44 -3 -60 19t-17 64l-1 76q-47 -87 -92 -123.5t-104 -36.5q-120 0 -120 131v191q0 64 -7 153q18 5 34 5q24 0 24 -22v-321q0 -93 73 -93q53 0 96.5 43.5t87.5 133.5l-3 254q25 5 34 5q16 0 21.5 -8t5.5 -32q0 -38 -15 -178l13 -170q2 -21 6 -32t21 -19
t49 -5q0 -14 -0.5 -69.5t-0.5 -87.5q0 -14 -14.5 -20t-34.5 -4z" />
    <glyph glyph-name="uni0447" unicode="&#x447;" horiz-adv-x="460" 
d="M406 101q20 -12 20 -35q0 -12 -9 -21q-21 -22 -73 -39t-100 -17q-84 0 -130.5 38.5t-46.5 113.5q0 74 56 138t202 156q-125 -10 -242 -7q-14 0 -21.5 7.5t-7.5 17.5q0 8 5 20q136 -8 330 -1v-1l1 1q12 -22 2 -35q-7 -9 -22 -20q-19 -14 -58.5 -40.5t-60 -41t-50 -39.5
t-44.5 -46t-26.5 -49.5t-11.5 -58.5q0 -109 127 -109q51 0 85 16.5t75 51.5z" />
    <glyph glyph-name="uni0448" unicode="&#x448;" horiz-adv-x="813" 
d="M202 -5q-120 0 -120 131v191q0 64 -7 153q18 5 34 5q24 0 24 -22v-321q0 -93 73 -93q56 0 94.5 42t82.5 139v250q15 6 27 6q30 0 30 -20q1 -58 -9 -174v-141q0 -102 82 -102q56 0 90 37.5t78 138.5v255q25 5 28 5q17 0 23 -6t6 -21q0 -64 -9 -161l7 -282q-18 -5 -28 -5
q-13 0 -19 5t-5 17q3 75 2 132q-45 -91 -79 -125t-96 -34q-70 0 -99 40.5t-27 117.5q-40 -89 -80 -123.5t-103 -34.5z" />
    <glyph glyph-name="uni0449" unicode="&#x449;" horiz-adv-x="834" 
d="M767 -150l4 146q-43 -3 -59 19t-17 64l-1 81q-46 -92 -91 -128.5t-102 -36.5q-63 0 -87.5 40t-22.5 118q-43 -87 -88.5 -122.5t-102.5 -35.5q-118 0 -118 131v191q0 64 -7 153q18 5 34 5q24 0 24 -22v-321q0 -93 71 -93q54 0 97 43.5t85 133.5v254q14 6 26 6q30 0 30 -20
q0 -68 -9 -174v-150q0 -93 72 -93q52 0 94.5 43t86.5 133l-3 255q23 5 31 5q17 0 23 -8.5t6 -31.5q0 -33 -14 -178l13 -170q1 -15 3.5 -24t9.5 -18.5t22.5 -12.5t39.5 -1q0 -14 -0.5 -69.5t-0.5 -87.5q0 -14 -14.5 -20t-34.5 -4z" />
    <glyph glyph-name="uni044A" unicode="&#x44a;" horiz-adv-x="467" 
d="M281 285q61 0 102 -37.5t41 -102.5q0 -69 -47.5 -112t-128.5 -43t-128 44t-47 119q0 41 13 76.5t44.5 72.5t58.5 62.5t80 70.5q-115 -10 -206 -7q-14 0 -21.5 7.5t-7.5 17.5q0 8 5 20q118 -7 285 -1q16 -26 -5 -44q-93 -78 -121.5 -107.5t-62.5 -88.5q63 53 146 53z
M248 31q57 0 90.5 28t33.5 84q0 46 -26 73.5t-79 27.5q-59 0 -139 -49q-3 -17 -3 -23q0 -141 123 -141z" />
    <glyph glyph-name="uni044B" unicode="&#x44b;" horiz-adv-x="696" 
d="M261 -10q-82 0 -130.5 46t-48.5 123q0 218 -7 309q19 7 32 7q24 0 24 -23v-205q81 60 149 60q73 0 117.5 -42.5t44.5 -112.5q0 -74 -51 -118t-130 -44zM589 -5q-22 0 -22 22q2 276 -5 453q18 5 31 5q24 0 24 -16q0 -340 4 -459q-17 -5 -32 -5zM266 34q55 0 89 29t34 86
t-31 86t-80 29q-29 0 -58.5 -10.5t-44 -19t-44.5 -28.5v-38q0 -64 36 -99t99 -35z" />
    <glyph glyph-name="uni044C" unicode="&#x44c;" horiz-adv-x="487" 
d="M261 -10q-82 0 -130.5 46t-48.5 123q0 218 -7 309q19 7 32 7q24 0 24 -23v-205q81 60 149 60q73 0 117.5 -42.5t44.5 -112.5q0 -74 -51 -118t-130 -44zM266 34q55 0 89 29t34 86t-31 86t-80 29q-29 0 -58.5 -10.5t-44 -19t-44.5 -28.5v-38q0 -64 36 -99t99 -35z" />
    <glyph glyph-name="uni044D" unicode="&#x44d;" horiz-adv-x="476" 
d="M227 480q93 0 143 -65t50 -177q0 -119 -54.5 -181t-142.5 -62q-57 0 -103 24t-68 58t20 52q32 -47 65 -68t77 -21q64 0 103.5 40.5t47.5 117.5l-132 -3q-39 -1 -33 41l167 -3v7q0 90 -34.5 143t-101.5 53q-50 0 -80.5 -30t-30.5 -80q0 -20 3 -40q-32 -9 -45.5 0t-13.5 44
q0 73 46 111.5t117 38.5z" />
    <glyph glyph-name="uni044E" unicode="&#x44e;" horiz-adv-x="702" 
d="M439 480q93 0 150 -62.5t57 -180.5q0 -107 -58.5 -177t-148.5 -70q-89 0 -145 57.5t-61 166.5h-98q0 -106 3 -214q-17 -5 -32 -5q-22 0 -22 22v141v136v114t-0.5 108.5t-1.5 83t-3 73.5t-4 47q12 6 33 6q16 0 22 -8t5 -28q-1 -297 0 -440l98 1q5 100 63 164.5t143 64.5z
M440 35q70 0 112 52t42 148t-42.5 148t-112.5 52t-112 -52t-42 -148q0 -95 42.5 -147.5t112.5 -52.5z" />
    <glyph glyph-name="uni044F" unicode="&#x44f;" horiz-adv-x="490" 
d="M438 188q-4 -101 7 -188q-18 -5 -31 -5q-24 0 -24 22q-2 90 2 163q-47 -8 -66 -10q-47 -70 -126 -122.5t-145 -52.5q-14 0 -18 9.5t-2 28.5q70 7 133.5 43t105.5 90q-209 -6 -209 159q0 76 46 115.5t122 39.5q69 0 109 -36.5t40 -106.5q0 -61 -36 -131q14 2 58 11
q17 4 26 -3t8 -26zM114 321q0 -136 185 -121q35 62 35 129q0 113 -103 113q-55 0 -86 -31.5t-31 -89.5z" />
    <glyph glyph-name="uni0451" unicode="&#x451;" horiz-adv-x="486" 
d="M185 581q-39 0 -39 44t39 44t39 -44t-39 -44zM379 581q-39 0 -39 44t39 44t39 -44t-39 -44zM408 102q15 -10 16.5 -27t-9.5 -27q-53 -53 -148 -53q-98 0 -157.5 60.5t-59.5 172.5q0 111 57 181.5t156 70.5q92 0 136.5 -72t22.5 -170h-319v-4q0 -93 45 -143.5t121 -50.5
q77 0 139 62zM254 435q-66 0 -103.5 -44.5t-45.5 -116.5l269 4q6 69 -25 113t-95 44z" />
    <glyph glyph-name="Wgrave" unicode="&#x1e80;" horiz-adv-x="1100" 
d="M572 807l-103 119q-14 16 -14 30q0 13 10 21q11 9 31 12q16 -31 52 -81.5t45 -64.5q8 -13 0 -22.5t-21 -13.5zM975 713q42 -156 42 -373q0 -172 -59 -258.5t-186 -86.5q-81 0 -133 40t-92 118q-61 -158 -235 -158q-224 0 -223 311q0 329 -6 414q58 17 58 -13
q1 -47 1 -389q0 -277 179 -277q79 0 128.5 45t80.5 151v483q28 8 44.5 3t16.5 -29v-76v-81t-0.5 -68.5t-2.5 -75t-5 -62t-7.5 -67t-10.5 -54.5q43 -90 84.5 -129.5t121.5 -39.5q192 0 192 296q0 28 -0.5 51.5t-2.5 48.5t-3 40.5t-5 41t-5.5 35.5t-7.5 39.5t-8 37.5t-10 44
l-10 45q24 12 42 10.5t22 -17.5z" />
    <glyph glyph-name="wgrave" unicode="&#x1e81;" horiz-adv-x="769" 
d="M408 557l-103 119q-14 16 -14 30t10 21q11 9 31 12q16 -31 52 -81.5t45 -64.5q8 -13 0 -22.5t-21 -13.5zM683 457q31 -75 31 -194q0 -134 -48 -201.5t-138 -67.5q-52 0 -90 26.5t-58 71.5q-48 -98 -155 -98q-156 0 -156 168v148q0 107 -7 160q18 5 33 5q25 0 25 -28
l-1 -288q0 -124 109 -124q47 0 77 22.5t55 72.5l-8 340q24 7 34 5q23 -4 23 -33q0 -129 -11 -268q15 -73 44 -106t87 -33q133 0 133 220q0 109 -37 212q16 8 29 8q22 0 29 -18z" />
    <glyph glyph-name="Wacute" unicode="&#x1e82;" horiz-adv-x="1100" 
d="M625 926l-103 -119q-13 4 -21 13.5t0 22.5q9 14 45 64.5t52 81.5q20 -3 31 -12q10 -8 10 -21q0 -14 -14 -30zM975 713q42 -156 42 -373q0 -172 -59 -258.5t-186 -86.5q-81 0 -133 40t-92 118q-61 -158 -235 -158q-224 0 -223 311q0 329 -6 414q58 17 58 -13q1 -47 1 -389
q0 -277 179 -277q79 0 128.5 45t80.5 151v483q28 8 44.5 3t16.5 -29v-76v-81t-0.5 -68.5t-2.5 -75t-5 -62t-7.5 -67t-10.5 -54.5q43 -90 84.5 -129.5t121.5 -39.5q192 0 192 296q0 28 -0.5 51.5t-2.5 48.5t-3 40.5t-5 41t-5.5 35.5t-7.5 39.5t-8 37.5t-10 44l-10 45
q24 12 42 10.5t22 -17.5z" />
    <glyph glyph-name="wacute" unicode="&#x1e83;" horiz-adv-x="769" 
d="M461 676l-103 -119q-13 4 -21 13.5t0 22.5q9 14 45 64.5t52 81.5q20 -3 31 -12q10 -7 10 -21t-14 -30zM683 457q31 -75 31 -194q0 -134 -48 -201.5t-138 -67.5q-52 0 -90 26.5t-58 71.5q-48 -98 -155 -98q-156 0 -156 168v148q0 107 -7 160q18 5 33 5q25 0 25 -28
l-1 -288q0 -124 109 -124q47 0 77 22.5t55 72.5l-8 340q24 7 34 5q23 -4 23 -33q0 -129 -11 -268q15 -73 44 -106t87 -33q133 0 133 220q0 109 -37 212q16 8 29 8q22 0 29 -18z" />
    <glyph glyph-name="Wdieresis" unicode="&#x1e84;" horiz-adv-x="1100" 
d="M457 833q-39 0 -39 44t39 44t39 -44t-39 -44zM651 833q-39 0 -39 44t39 44t39 -44t-39 -44zM975 713q42 -156 42 -373q0 -172 -59 -258.5t-186 -86.5q-81 0 -133 40t-92 118q-61 -158 -235 -158q-224 0 -223 311q0 329 -6 414q58 17 58 -13q1 -47 1 -389q0 -277 179 -277
q79 0 128.5 45t80.5 151v483q28 8 44.5 3t16.5 -29v-76v-81t-0.5 -68.5t-2.5 -75t-5 -62t-7.5 -67t-10.5 -54.5q43 -90 84.5 -129.5t121.5 -39.5q192 0 192 296q0 28 -0.5 51.5t-2.5 48.5t-3 40.5t-5 41t-5.5 35.5t-7.5 39.5t-8 37.5t-10 44l-10 45q24 12 42 10.5t22 -17.5z
" />
    <glyph glyph-name="wdieresis" unicode="&#x1e85;" horiz-adv-x="769" 
d="M293 583q-39 0 -39 44t39 44t39 -44t-39 -44zM487 583q-39 0 -39 44t39 44t39 -44t-39 -44zM683 457q31 -75 31 -194q0 -134 -48 -201.5t-138 -67.5q-52 0 -90 26.5t-58 71.5q-48 -98 -155 -98q-156 0 -156 168v148q0 107 -7 160q18 5 33 5q25 0 25 -28l-1 -288
q0 -124 109 -124q47 0 77 22.5t55 72.5l-8 340q24 7 34 5q23 -4 23 -33q0 -129 -11 -268q15 -73 44 -106t87 -33q133 0 133 220q0 109 -37 212q16 8 29 8q22 0 29 -18z" />
    <glyph glyph-name="Ygrave" unicode="&#x1ef2;" horiz-adv-x="586" 
d="M284 817l-103 119q-14 16 -14 30t10 21q11 9 31 12q16 -31 52 -81.5t45 -64.5q8 -13 0 -22.5t-21 -13.5zM500 737q28 1 38 -13.5t1 -35.5q-17 -38 -101 -214.5t-108 -223.5l3 -250q-17 -5 -25 -5q-16 0 -22 5.5t-6 18.5v237q-154 305 -242 455q18 24 39 24q14 0 21 -13
q25 -42 54.5 -99.5t49.5 -99.5l55 -115.5t50 -104.5q88 156 193 434z" />
    <glyph glyph-name="ygrave" unicode="&#x1ef3;" horiz-adv-x="523" 
d="M274 557l-103 119q-14 16 -14 30t10 21q11 9 31 12q16 -31 52 -81.5t45 -64.5q8 -13 0 -22.5t-21 -13.5zM435 275l19 -231q9 -105 -49 -169t-152 -64q-45 0 -88 14t-70 36q-20 15 -20 33q0 21 27 34q20 -27 58.5 -50t90.5 -23q82 0 122.5 51t33.5 135l-11 139
q-81 -164 -181 -164q-125 0 -125 127q0 238 -7 327q18 5 33 5q24 0 24 -22v-303q0 -44 17 -66.5t59 -22.5q53 0 89 41.5t84 140.5l-3 227q15 5 31 5q18 0 23.5 -7.5t5.5 -32.5q0 -13 -2 -38.5t-5 -62.5t-4 -59z" />
    <glyph glyph-name="endash" unicode="&#x2013;" horiz-adv-x="596" 
d="M516 221h-432q-5 0 -7 11.5t0 24.5h439q4 0 4 -13.5t-4 -22.5z" />
    <glyph glyph-name="emdash" unicode="&#x2014;" horiz-adv-x="896" 
d="M816 221h-732q-5 0 -7 11.5t0 24.5h739q4 0 4 -13.5t-4 -22.5z" />
    <glyph glyph-name="quoteleft" unicode="&#x2018;" horiz-adv-x="234" 
d="M153 490q-20 -16 -42 -16q-30 0 -30 48q0 36 12 96t28 102l28 -3q-16 -60 -16 -129q0 -59 20 -98z" />
    <glyph glyph-name="quoteright" unicode="&#x2019;" horiz-adv-x="234" 
d="M81 694q20 16 42 16q30 0 30 -48q0 -36 -12 -96t-28 -102l-28 3q16 60 16 129q0 59 -20 98z" />
    <glyph glyph-name="quotedblleft" unicode="&#x201c;" horiz-adv-x="368" 
d="M153 490q-20 -16 -42 -16q-30 0 -30 48q0 36 12 96t28 102l28 -3q-16 -60 -16 -129q0 -59 20 -98zM287 490q-20 -16 -42 -16q-30 0 -30 48q0 36 12 96t28 102l28 -3q-16 -60 -16 -129q0 -59 20 -98z" />
    <glyph glyph-name="quotedblright" unicode="&#x201d;" horiz-adv-x="368" 
d="M81 694q20 16 42 16q30 0 30 -48q0 -36 -12 -96t-28 -102l-28 3q16 60 16 129q0 59 -20 98zM215 694q20 16 42 16q30 0 30 -48q0 -36 -12 -96t-28 -102l-28 3q16 60 16 129q0 59 -20 98z" />
    <glyph glyph-name="quotedblbase" unicode="&#x201e;" horiz-adv-x="404" 
d="M102 84q20 16 42 16q30 0 30 -48q0 -36 -12 -96t-28 -102l-28 3q16 60 16 129q0 59 -20 98zM226 84q20 16 42 16q30 0 30 -48q0 -36 -12 -96t-28 -102l-28 3q16 60 16 129q0 59 -20 98z" />
    <glyph glyph-name="dagger" unicode="&#x2020;" horiz-adv-x="600" 
d="M515 523q4 -12 4 -21q0 -17 -14 -17h-186q0 -342 3 -485q-14 -6 -25 -6q-23 0 -23 20q0 60 0.5 138.5t1.5 179.5t1 153h-193q-3 12 -3 22q0 16 20 16h176q0 151 -2 208q16 6 26 6q19 0 19 -15q0 -123 -1 -199h196z" />
    <glyph glyph-name="daggerdbl" unicode="&#x2021;" horiz-adv-x="600" 
d="M319 254h196q4 -12 4 -21q0 -17 -14 -17h-186q2 -137 3 -216q-14 -6 -25 -6q-23 0 -23 20q0 130 1 202h-191q-3 12 -3 22q0 16 20 16h174q2 154 2 231h-193q-3 12 -3 22q0 16 20 16h176q0 151 -2 208q16 6 26 6q19 0 19 -15q0 -123 -1 -199h196q4 -12 4 -21
q0 -17 -14 -17h-186v-231z" />
    <glyph glyph-name="bullet" unicode="&#x2022;" horiz-adv-x="367" 
d="M184 282q-58 0 -58 57q0 26 16.5 44t44.5 18q55 0 55 -61q0 -26 -15 -42t-43 -16z" />
    <glyph glyph-name="ellipsis" unicode="&#x2026;" horiz-adv-x="646" 
d="M160 -10q-22 0 -34 15.5t-12 38.5q0 45 46 45q20 0 31.5 -13t11.5 -34q0 -23 -11.5 -37.5t-31.5 -14.5zM361 -10q-22 0 -34 15.5t-12 38.5q0 45 46 45q20 0 31.5 -13t11.5 -34q0 -23 -11.5 -37.5t-31.5 -14.5zM562 -10q-22 0 -34 15.5t-12 38.5q0 45 46 45q20 0 31.5 -13
t11.5 -34q0 -23 -11.5 -37.5t-31.5 -14.5z" />
    <glyph glyph-name="guilsinglleft" unicode="&#x2039;" horiz-adv-x="401" 
d="M98 218q76 -41 128.5 -89t52.5 -90q0 -39 -38 -39q-7 38 -26 70.5t-47.5 57.5t-47 37.5t-45.5 28.5l-5 46q175 94 194 227q42 -3 42 -32q0 -52 -68 -114.5t-140 -102.5z" />
    <glyph glyph-name="guilsinglright" unicode="&#x203a;" horiz-adv-x="401" 
d="M325 273l5 -46q-175 -94 -194 -227q-42 3 -42 32q0 52 68 114.5t140 102.5q-76 41 -128.5 89t-52.5 90q0 39 38 39q7 -38 26 -70.5t47.5 -57.5t47 -37.5t45.5 -28.5z" />
    <glyph glyph-name="Euro" unicode="&#x20ac;" horiz-adv-x="704" 
d="M654 96q2 -7 -3 -13q-25 -41 -80.5 -67t-132.5 -26q-118 0 -187.5 69t-87.5 200q-54 0 -116 -2q-2 25 3.5 32.5t31.5 7.5h76q-2 40 -2 63v10q-14 0 -41.5 -0.5t-39.5 -1.5q-2 15 -0.5 24t9 12.5t25.5 3.5h48q9 155 80.5 238.5t205.5 83.5q170 0 189 -138q4 -21 1.5 -51
t-14.5 -33q-21 -5 -41 0q2 31 0 67q-7 113 -132 113q-109 0 -166 -72.5t-65 -207.5q100 0 290 2q2 -22 -2 -30t-16 -8q-186 0 -273 -1v-7q0 -36 3 -67q83 1 261 1q2 -21 -2 -29t-17 -8q-159 0 -238 -1q18 -112 75 -170t150 -58q55 0 94.5 20t95.5 69q14 -11 18 -25z" />
    <glyph glyph-name="trademark" unicode="&#x2122;" horiz-adv-x="764" 
d="M649 694l39 -332q-18 -4 -28 -4t-14 5t-6 20l-29 271l-72 -257q-6 -23 -28 -23q-25 0 -32 23l-77 272l-29 -308q-10 -2 -19 -2q-11 0 -14 4.5t-2 17.5l32 335q13 6 33 6q16 0 23 -5t11 -19l77 -264l78 286q5 2 29 2t28 -28zM67 720h224q9 0 13 -11t-2 -25h-96l2 -319
q-12 -6 -24 -6q-14 0 -19 5.5t-4 20.5l3 299h-84q-12 0 -15.5 11.5t2.5 24.5z" />
    <glyph glyph-name="minus" unicode="&#x2212;" horiz-adv-x="498" 
d="M101 386h313q6 -22 3 -32t-19 -10h-316q-4 24 -0.5 33t19.5 9z" />
    <glyph glyph-name="uniF8FF" unicode="&#xf8ff;" horiz-adv-x="7191" 
d="M687 0h132v761h-132v-761zM1928 231q0 -70 18 -119.5t48.5 -73.5t61 -34.5t65.5 -10.5q63 0 102 23t65 83v-99h121v756h-129v-297h-3q-38 30 -125 30q-28 0 -54.5 -5.5t-58.5 -22.5t-55.5 -44t-39.5 -75t-16 -111zM2509 654q0 -45 21 -69t55 -24q32 0 60 23.5t28 61.5
q0 44 -22.5 66.5t-58.5 22.5q-83 0 -83 -81zM5430 408v63h-139v102q0 92 74 92q43 0 99 -15l3 63q-52 14 -110 14q-74 0 -110.5 -42.5t-36.5 -103.5v-110h-96v-63h96v-419q0 -57 -10 -74q-14 -24 -53 -24q-33 0 -85 18l-6 -56q57 -22 91 -22q77 0 110.5 44.5t33.5 113.5v419
h139zM50 617h51v-617h138v246q26 -4 100 -4q132 0 203.5 65t71.5 175q0 120 -71 175.5t-212 55.5h-281v-96zM3187 646h207v-646h91v646h209v67h-507v-67zM6859 687h-48v18h121v-18h-47v-153h-26v153zM7122 705v-3l19 -168h-25l-12 97l-4 48l-12 -48l-28 -98h-33l-29 98
l-12 48l-4 -48l-10 -97h-23l20 171h32l29 -96l11 -40q1 -3 2 -8t2 -7q1 2 2.5 7t1.5 8l11 40l25 96h37zM464 489q0 -72 -37.5 -111.5t-95.5 -39.5q-32 0 -92 8v271h100q55 0 90 -33.5t35 -94.5zM908 242q0 -60 17.5 -106.5t43.5 -72.5t60.5 -42.5t64 -22t58.5 -5.5
q27 0 55 5.5t61.5 22t58.5 42.5t42 72.5t17 106.5t-17.5 106t-43.5 71.5t-60 42t-62 22t-56 5.5t-56.5 -5.5t-62.5 -22t-59.5 -42t-43 -71.5t-17.5 -106zM4567 262q0 111 -46.5 165.5t-120.5 54.5q-65 0 -107 -31.5t-67 -94.5v133h-77v-658h77v200q55 -38 137 -38
q97 0 150.5 68.5t53.5 200.5zM5037 23l-3 61q-87 -36 -151 -36q-138 0 -143 169h294q11 52 11 99q0 46 -17.5 80t-46 52t-58 26t-61.5 8q-101 0 -156 -67t-55 -181q0 -241 225 -241q95 0 161 30zM5909 8l-5 55q-5 -1 -16 -4t-16 -3q-34 0 -34 39v232q0 85 -44 120t-125 35
q-85 0 -133 -30t-48 -85q0 -8 2 -18.5t2 -13.5l73 -19q-4 11 -4 30q0 35 25 56t75 21q53 0 74.5 -24t21.5 -80v-51q-16 -2 -51 -2.5t-59 -3.5q-177 -23 -177 -141q0 -60 35 -94t94 -34q100 0 166 87h3v-12q0 -71 77 -71q36 0 64 11zM5959 231q0 -113 59.5 -175.5
t160.5 -62.5q89 0 148 34l-4 57q-96 -32 -140 -32q-62 0 -101 47t-39 132q0 91 34.5 141.5t90.5 50.5q44 0 61 -21.5t17 -77.5q0 -6 -2 -17t-2 -17l77 8q0 9 2 27t2 25q0 63 -40.5 97.5t-114.5 34.5q-99 0 -154 -63t-55 -188zM6781 27l-3 57q-94 -36 -151 -36
q-137 0 -147 172h298q8 34 8 96q0 47 -17 81t-45 51.5t-57.5 25.5t-61.5 8q-103 0 -156 -65.5t-53 -182.5q0 -241 223 -241q105 0 162 34zM1877 471h-124q-4 -41 -14.5 -86.5t-21 -79t-35.5 -110.5q-19 -59 -29 -111h-3q-12 56 -27 111l-73 276h-136l148 -474h168l36 106
q10 31 32 91.5t35.5 98.5t26.5 88.5t17 89.5zM2659 471h-131v-471h131v471zM3202 471h-125q-6 -59 -20.5 -116t-48.5 -160q-19 -59 -29 -111h-4q-6 30 -27 111l-73 276h-136l148 -474h169l35 106q8 24 41 114.5t49 147t21 106.5zM3908 0l36 103q1 3 16 45t28 80t28 86.5
t24 90t9 66.5h-80q-1 -21 -4 -43t-5.5 -37.5t-10.5 -45t-12 -42t-16 -53t-17 -55.5l-44 -147h-4l-122 423h-84l135 -471h45q0 -13 -18 -58q-12 -30 -43.5 -40.5t-82.5 -10.5l12 -55q45 -9 66 -5q55 10 83.5 43.5t60.5 125.5zM4488 262q0 -104 -35.5 -157t-93.5 -53
q-59 0 -133 32v180q30 80 66.5 119.5t91.5 39.5q104 0 104 -161zM4954 272l-214 -4q3 77 32 116t90 39q44 0 69.5 -25.5t25.5 -73.5q0 -42 -3 -52zM6697 272h-217q11 151 122 151q47 0 73 -25t26 -74q0 -37 -4 -52zM1245 242q0 -162 -93 -162q-101 0 -101 162q0 156 96 156
q51 0 74.5 -38.5t23.5 -117.5zM2277 367v-172q-30 -60 -53.5 -87.5t-59.5 -27.5q-95 0 -95 151q0 167 123 167q49 0 85 -31zM5760 217v-82q-68 -83 -139 -83q-73 0 -73 73q0 36 27.5 56t89.5 28q12 0 27 1.5l35 3.5t33 3z" />
    <glyph glyph-name="X.001" horiz-adv-x="653" 
d="M578 662l-224 -302q210 -291 254 -340q-16 -29 -41 -29q-14 -1 -31 26q-104 155 -216 310l-153 -213q-58 -80 -79 -124q-35 1 -38 24q-3 14 11 34l234 314q-189 261 -258 344q15 23 42 23q2 0 4 -0.5l4 -1t4 -1.5t3 -2l3 -3l3 -3t3 -3.5t2.5 -3.5t2.5 -4t3 -4
q111 -159 217 -308l144 201q60 83 79 124q33 -2 38 -23q3 -16 -11 -35z" />
    <glyph glyph-name="grave.case" horiz-adv-x="316" 
d="M204 557l-103 119q-14 16 -14 30t10 21q11 9 31 12q16 -31 52 -81.5t45 -64.5q8 -13 0 -22.5t-21 -13.5z" />
    <glyph glyph-name="brevecombcy" 
 />
    <glyph glyph-name="coming_soon" horiz-adv-x="712" 
d="M567 0h-421q-40 0 -68 28t-28 68l1 539q0 40 27.5 67.5t67.5 27.5h421q40 0 67.5 -27.5t27.5 -67.5v-540q0 -40 -27.5 -67.5t-67.5 -27.5zM412 673q9 0 9 10q0 11 -8 11q-10 0 -10 -9q0 -12 9 -12zM558 550q18 0 26 11.5t7 27.5l-1 31q0 5 1.5 16.5t1.5 15.5q0 9 -7 9
q-5 0 -7 -1v-9q-8 8 -21 8q-14 0 -25 -9t-11 -31q0 -36 32 -36q15 0 25 16l1 -13q0 -26 -23 -26q-13 0 -25 11q-4 -3 -4 -7q-1 -1 1 -4q10 -10 29 -10zM142 580q15 0 25 8q3 3 3 4q0 4 -4 6q-13 -10 -23 -10q-22 0 -22 31t20 31q14 0 14 -15q0 -3 -1 -6q5 -2 9 0q5 2 4 10
q-2 20 -26 20q-34 0 -34 -41q0 -38 35 -38zM217 580q35 0 35 39q0 40 -35 40t-35 -40q0 -20 10 -29.5t25 -9.5zM279 580q1 0 3 0.5t3 0.5v41q11 28 25 28q12 0 12 -14v-21q-2 -18 -2 -25q0 -10 8 -10q1 0 3 0.5t3 0.5v41q11 28 25 28q12 0 12 -14v-51q0 -5 7 -5q2 0 4 0.5
t3 0.5q-1 4 -1 16v40q0 22 -24 22q-19 0 -28 -25v4q0 21 -20 21t-29 -25l1 19q0 6 -6 6q-3 0 -7 -2q2 -20 2 -42q-3 -24 -3 -25q0 -10 9 -10zM412 580h4l2 1v74q0 4 -6 4q-2 0 -4 -1h-2v-74q0 -4 6 -4zM449 580q4 0 6 1v41q11 28 25 28q12 0 12 -14v-48q0 -8 7 -8q3 0 7 2
q-1 5 -1 23v32q0 22 -22 22q-19 0 -30 -25l1 19q0 6 -6 6q-3 0 -7 -2q2 -20 2 -42q-2 -18 -2 -25q0 -10 8 -10zM217 589q-20 0 -20 30q0 31 20 31q21 0 21 -31q0 -30 -21 -30zM555 592q-19 0 -19 28q0 30 25 30q8 0 18 -5v-36q-13 -17 -24 -17zM132 453q0 4 2 11.5t2 11.5
q3 -2 7.5 -6.5l6.5 -6.5q3 -3 6 0q4 3 5 8q-4 1 -21 11q3 1 17 8q3 4 1 6q-2 5 -5 7l-17 -17q0 2 -0.5 6t-1 7.5t-1.5 5.5q0 6 -5 4l-8 -3l10 -21q-12 2 -18 2q-5 2 -5 -3v-9l23 3q-2 -3 -9 -17q-2 -3 2 -6q1 -1 4.5 -1.5t4.5 -0.5zM205 453l5 23q9 -9 14 -13q3 -3 6 0
q4 3 5 8q-3 1 -21 11q8 3 16 8q5 3 2 6q-4 6 -6 7l-17 -17q0 9 -2 19q-2 5 -5 4l-8 -3l9 -21q-10 2 -17 2q-4 1 -6 -3q0 -2 0.5 -5t0.5 -4l22 3l-8 -17q-2 -3 2 -6q1 -1 4 -1.5t4 -0.5zM279 453q1 4 2 11.5t2 11.5q3 -2 7 -6.5t7 -6.5q3 -3 7 0q2 2 4 8q-1 0 -4.5 2
t-8.5 4.5t-8 4.5q8 3 17 8q3 3 2 6q-4 6 -6 7l-17 -17q0 9 -2 19q-2 5 -6 4l-8 -3l10 -21q-12 2 -18 2q-5 2 -5 -3q0 -7 1 -9l22 3l-9 -17q-1 -3 2 -6q2 -1 5 -1t4 -1zM353 453q1 4 2 11.5t2 11.5q2 -2 7 -6.5t7 -6.5q3 -3 6 0t5 8q-4 1 -21 11q3 1 17 8q4 4 1 6q-1 3 -5 7
l-17 -17l-3 19q0 6 -5 4l-8 -3l9 -21q-10 2 -17 2q-5 2 -5 -3v-9l23 3q-2 -3 -9 -17q-2 -3 2 -6q1 0 2.5 -0.5l3 -1t3.5 -0.5zM426 453l5 23l13 -13q4 -3 7 0q4 4 4 8q-1 0 -4.5 2t-8.5 4.5t-8 4.5q8 3 17 8q4 2 2 6q-4 6 -6 7l-17 -17q0 9 -2 19q-2 5 -5 4q-2 -1 -5 -2
l-4 -1l10 -21q-10 2 -17 2q-5 1 -6 -3q0 -2 0.5 -5t0.5 -4l22 3q-7 -14 -8 -17q-3 -3 2 -6q1 -1 4 -1.5t4 -0.5zM500 453q0 4 2 11.5t2 11.5l6.5 -6.5t7.5 -6.5q3 -3 6 0q3 2 5 8q-1 0 -4.5 2t-8.5 4.5t-8 4.5q3 1 17 8q3 3 2 6q-4 6 -6 7l-5.5 -5.5t-6.5 -6t-5 -5.5
q0 3 -0.5 9.5t-1.5 9.5q-2 5 -6 4l-8 -3l10 -21q-12 2 -18 2q-5 2 -5 -3q0 -7 1 -9l22 3l-9 -17q-2 -3 2 -6q1 -1 4 -1t5 -1zM573 453q4 17 5 23q9 -9 14 -13q3 -3 6 0q4 3 5 8q-4 1 -21 11q6 2 16 8q5 3 2 6q-2 5 -6 7q-3 -3 -8 -8.5t-8 -8.5l-3 19q0 6 -5 4l-8 -3l9 -21
q-10 2 -17 2q-5 2 -5 -3v-9l23 3q-2 -3 -9 -17q-2 -3 2 -6q1 -1 4 -1.5t4 -0.5zM153 257q44 0 44 34q0 14 -10 22t-30 15q-24 7 -24 24q0 18 19 18q15 0 15 -15v-9q15 -4 20 0q4 1 4 11q0 31 -39 31q-44 0 -44 -37q0 -29 39 -42q24 -7 24 -20q0 -14 -17 -14q-23 0 -38 15
q-9 -7 -9 -14q0 -4 4 -8q18 -11 42 -11zM272 257q26 0 41 18t15 48t-15 47.5t-41 17.5q-27 0 -42 -17.5t-15 -47.5t15 -48t42 -18zM405 257q27 0 42 18t15 48t-15 47.5t-42 17.5q-26 0 -41 -17.5t-15 -47.5t15 -48t41 -18zM500 257q9 0 11 2v54q0 22 -3 43l1 1q8 -20 18 -34
l35 -59q4 -6 8 -6q10 -3 20 1l-1 66v56q0 7 -11 7q-6 0 -12 -2v-52q0 -18 2 -40h-1q-1 3 -4 8.5t-5 10t-4 7.5l-37 61q-4 7 -15 7q-5 0 -15 -2l1 -65v-54q0 -10 12 -10zM272 275q-30 0 -30 48q0 47 30 47t30 -47q0 -48 -30 -48zM405 275q-30 0 -30 48q0 47 30 47t30 -47
q0 -48 -30 -48z" />
    <glyph glyph-name="maina_period" horiz-adv-x="3523" 
d="M1984 573l-203 1q-5 7 -3.5 16.5t8.5 9.5l206 5q8 -9 5 -20.5t-13 -11.5zM1585 447q0 -24 -5.5 -97.5t-6.5 -94.5q10 -188 20 -251q-18 -9 -32 -9q-13 0 -20 4.5t-7.5 8t-0.5 9.5q-3 56 -1 133q-42 -90 -83.5 -125t-104.5 -35q-82 0 -131.5 60.5t-49.5 167.5
q0 122 58 192t152 70q44 0 78 -18.5t76 -58.5l-2 80q16 4 34 4q26 0 26 -40zM3153 447q0 -24 -5.5 -97.5t-6.5 -94.5q10 -188 20 -251q-18 -9 -32 -9q-13 0 -20 4.5t-7.5 8t-0.5 9.5q-3 56 -1 133q-42 -90 -83.5 -125t-104.5 -35q-82 0 -131.5 60.5t-49.5 167.5
q0 122 58 192t152 70q44 0 78 -18.5t76 -58.5l-2 80q16 4 34 4q26 0 26 -40zM1024 441l34 -322q10 -86 17 -113q-17 -11 -34 -11q-25 0 -27 27l-37 416q-107 -307 -145 -426q-17 -11 -36 -11q-31 0 -40 29l-135 408l-30 -327q-8 -81 -6 -111q-20 -5 -28 -5q-28 0 -25 26
l27 234q19 170 15 214q33 7 47 7q41 0 52 -33l127 -391l105 307q27 79 33 111q25 6 41 6q41 0 45 -35zM2601 447l-5 -241q-2 -107 6 -206q-16 -6 -32 -6q-24 0 -24 25v162q-84 -2 -250 4v-185q-16 -6 -29 -6q-14 0 -19.5 6.5t-5.5 21.5l4 174q2 103 -7 274q16 6 31 6
q26 0 26 -29v-227h250v250q20 6 27 6q28 0 28 -29zM2091 435q0 -39 -15 -182l20 -248q-15 -5 -26 -5q-28 0 -28 24l-1 132q-46 -89 -92 -125t-104 -36q-120 0 -120 131v191q0 64 -7 153q18 5 34 5q24 0 24 -22v-321q0 -93 73 -93q53 0 96.5 43.5t87.5 133.5l-3 254
q25 5 34 5q16 0 21.5 -8t5.5 -32zM1354 33q55 0 91 41t85 141l-3 148q-44 38 -77.5 56t-73.5 18q-75 0 -120.5 -57t-40.5 -160q10 -187 139 -187zM2922 33q55 0 91 41t85 141l-3 148q-44 38 -77.5 56t-73.5 18q-75 0 -120.5 -57t-40.5 -160q10 -187 139 -187zM144 100
q30 0 30 -48q0 -36 -12 -96t-28 -102l-28 3q16 60 16 129q0 59 -20 98q20 16 42 16zM3366 89q20 0 31.5 -13t11.5 -34q0 -23 -11.5 -37.5t-31.5 -14.5q-22 0 -34 15.5t-12 38.5q0 45 46 45z" />
    <glyph glyph-name="maina_comma" horiz-adv-x="3501" 
d="M1984 573l-203 1q-5 7 -3.5 16.5t8.5 9.5l206 5q8 -9 5 -20.5t-13 -11.5zM1585 447q0 -24 -5.5 -97.5t-6.5 -94.5q10 -188 20 -251q-18 -9 -32 -9q-13 0 -20 4.5t-7.5 8t-0.5 9.5q-3 56 -1 133q-42 -90 -83.5 -125t-104.5 -35q-82 0 -131.5 60.5t-49.5 167.5
q0 122 58 192t152 70q44 0 78 -18.5t76 -58.5l-2 80q16 4 34 4q26 0 26 -40zM3153 447q0 -24 -5.5 -97.5t-6.5 -94.5q10 -188 20 -251q-18 -9 -32 -9q-13 0 -20 4.5t-7.5 8t-0.5 9.5q-3 56 -1 133q-42 -90 -83.5 -125t-104.5 -35q-82 0 -131.5 60.5t-49.5 167.5
q0 122 58 192t152 70q44 0 78 -18.5t76 -58.5l-2 80q16 4 34 4q26 0 26 -40zM1024 441l34 -322q10 -86 17 -113q-17 -11 -34 -11q-25 0 -27 27l-37 416q-107 -307 -145 -426q-17 -11 -36 -11q-31 0 -40 29l-135 408l-30 -327q-8 -81 -6 -111q-20 -5 -28 -5q-28 0 -25 26
l27 234q19 170 15 214q33 7 47 7q41 0 52 -33l127 -391l105 307q27 79 33 111q25 6 41 6q41 0 45 -35zM2601 447l-5 -241q-2 -107 6 -206q-16 -6 -32 -6q-24 0 -24 25v162q-84 -2 -250 4v-185q-16 -6 -29 -6q-14 0 -19.5 6.5t-5.5 21.5l4 174q2 103 -7 274q16 6 31 6
q26 0 26 -29v-227h250v250q20 6 27 6q28 0 28 -29zM2091 435q0 -39 -15 -182l20 -248q-15 -5 -26 -5q-28 0 -28 24l-1 132q-46 -89 -92 -125t-104 -36q-120 0 -120 131v191q0 64 -7 153q18 5 34 5q24 0 24 -22v-321q0 -93 73 -93q53 0 96.5 43.5t87.5 133.5l-3 254
q25 5 34 5q16 0 21.5 -8t5.5 -32zM1354 33q55 0 91 41t85 141l-3 148q-44 38 -77.5 56t-73.5 18q-75 0 -120.5 -57t-40.5 -160q10 -187 139 -187zM2922 33q55 0 91 41t85 141l-3 148q-44 38 -77.5 56t-73.5 18q-75 0 -120.5 -57t-40.5 -160q10 -187 139 -187zM144 100
q30 0 30 -48q0 -36 -12 -96t-28 -102l-28 3q16 60 16 129q0 59 -20 98q20 16 42 16zM3365 100q30 0 30 -48q0 -36 -12 -96t-28 -102l-28 3q16 60 16 129q0 59 -20 98q20 16 42 16z" />
    <glyph glyph-name="Agravecy" horiz-adv-x="696" 
d="M368 807l-103 119q-14 16 -14 30q0 13 10 21q11 9 31 12q16 -31 52 -81.5t45 -64.5q8 -13 0 -22.5t-21 -13.5zM397 698l184 -545q3 -9 9.5 -30.5t10.5 -33t10 -28t12 -29t13 -22.5q-16 -16 -37 -16q-22 0 -28 17l-73 225q-204 -8 -306 -5l-51 -148q-16 -48 -20 -83
q-13 -6 -33 -6q-14 0 -21 8.5t-3 20.5l226 634q13 35 20 63q28 6 41 6q37 0 46 -28zM351 689l-146 -421l282 3z" />
    <glyph glyph-name="Hardsigngravecy" horiz-adv-x="690" 
d="M285 807l-103 119q-14 16 -14 30q0 13 10 21q11 9 31 12q16 -31 52 -81.5t45 -64.5q8 -13 0 -22.5t-21 -13.5zM375 -10q-129 0 -195 68t-66 177q0 39 10 77t22 67.5t40 66t46.5 59t60 60.5t62.5 56t70 59q-205 -15 -363 -6q-36 1 -19 47q193 -15 434 -2q19 -37 -2 -56
q-12 -11 -50 -40.5t-65 -53.5t-63 -59t-66.5 -76.5t-53.5 -86.5q98 80 217 80q110 0 171 -58.5t61 -146.5q0 -105 -68 -168.5t-183 -63.5zM375 28q89 0 143 46.5t54 147.5q0 76 -46 121.5t-132 45.5q-109 0 -221 -81q-5 -28 -5 -76q0 -98 56.5 -151t150.5 -53z" />
    <glyph glyph-name="Iagravecy" horiz-adv-x="696" 
d="M343 807l-103 119q-14 16 -14 30q0 13 10 21q11 9 31 12q16 -31 52 -81.5t45 -64.5q8 -13 0 -22.5t-21 -13.5zM623 304q-5 -105 11 -304q-15 -3 -33 -3q-21 0 -22 22q-2 35 -1.5 124.5t2.5 152.5q-79 -17 -112 -23q-154 -235 -353 -274q-20 -4 -40 -4q-26 0 -22 45
q101 10 200.5 68t161.5 157q-27 -3 -54 -3q-136 0 -210 59.5t-74 178.5q0 104 67.5 167t186.5 63q88 0 147 -55.5t59 -157.5q0 -113 -45 -203q39 8 90 21q19 5 30.5 -4t10.5 -27zM358 300q36 0 78 5q45 93 45 209q0 89 -42.5 133.5t-112.5 44.5q-89 0 -141 -48t-52 -145
q0 -95 58 -147t167 -52z" />
    <glyph glyph-name="Iugravecy" horiz-adv-x="924" 
d="M598 807l-103 119q-14 16 -14 30q0 13 10 21q11 9 31 12q16 -31 52 -81.5t45 -64.5q8 -13 0 -22.5t-21 -13.5zM555 730q137 0 211 -98t74 -275q0 -178 -73 -272.5t-212 -94.5q-135 0 -208 90.5t-76 261.5h-110v-342q-12 -6 -30 -6q-27 0 -27 20l7 314l-6 392q16 6 27 6
q29 0 29 -15v-331h110q5 167 78.5 258.5t205.5 91.5zM555 28q106 0 168.5 84.5t62.5 244.5q0 166 -61.5 250.5t-169.5 84.5t-169 -84t-61 -251q0 -160 62 -244.5t168 -84.5z" />
    <glyph glyph-name="Ogravecy" horiz-adv-x="777" 
d="M396 807l-103 119q-14 16 -14 30q0 13 10 21q11 9 31 12q16 -31 52 -81.5t45 -64.5q8 -13 0 -22.5t-21 -13.5zM388 -10q-142 0 -223 98.5t-81 268.5q0 171 82 272t222 101q141 0 223 -101t82 -272q0 -170 -81.5 -268.5t-223.5 -98.5zM399 36q114 4 179 91.5t60 238.5
t-76 236.5t-185 81.5q-115 -5 -179 -95t-59 -241t75.5 -233.5t184.5 -78.5z" />
    <glyph glyph-name="Ugravecy" horiz-adv-x="618" 
d="M313 807l-103 119q-14 16 -14 30q0 13 10 21q11 9 31 12q16 -31 52 -81.5t45 -64.5q8 -13 0 -22.5t-21 -13.5zM491 452l18 -206q10 -120 -53.5 -188t-175.5 -68q-103 0 -184 70q-15 13 -15 26q0 22 28 41q66 -93 171 -93q84 0 139 53t47 145l-14 168q-52 -79 -101 -113
t-114 -34q-145 0 -145 167q0 230 -6 300q22 6 34 6q24 0 24 -22v-108t0.5 -114.5t0.5 -54.5q0 -67 23.5 -97.5t76.5 -30.5q56 0 103 38.5t105 132.5v250q18 6 33 6q26 0 26 -24q0 -89 -21 -250z" />
    <glyph glyph-name="agravecy" horiz-adv-x="561" 
d="M299 567l-103 119q-14 16 -14 30t10 21q11 9 31 12q16 -31 52 -81.5t45 -64.5q8 -13 0 -22.5t-21 -13.5zM466 255q10 -188 20 -251q-18 -9 -32 -9q-13 0 -20 4.5t-7.5 8t-0.5 9.5q-3 56 -1 133q-42 -90 -83.5 -125t-104.5 -35q-82 0 -131.5 60.5t-49.5 167.5
q0 122 58 192t152 70q44 0 78 -18.5t76 -58.5l-2 80q16 4 34 4q26 0 26 -40q0 -24 -5.5 -97.5t-6.5 -94.5zM247 33q55 0 91 41t85 141l-3 148q-44 38 -77.5 56t-73.5 18q-75 0 -120.5 -57t-40.5 -160q10 -187 139 -187z" />
    <glyph glyph-name="hardsigngravecy" horiz-adv-x="473" 
d="M253 557l-103 119q-14 16 -14 30t10 21q11 9 31 12q16 -31 52 -81.5t45 -64.5q8 -13 0 -22.5t-21 -13.5zM281 285q61 0 102 -37.5t41 -102.5q0 -69 -47.5 -112t-128.5 -43t-128 44t-47 119q0 41 13 76.5t44.5 72.5t58.5 62.5t80 70.5q-115 -10 -206 -7q-14 0 -21.5 7.5
t-7.5 17.5q0 8 5 20q118 -7 285 -1q16 -26 -5 -44q-93 -78 -121.5 -107.5t-62.5 -88.5q63 53 146 53zM248 31q57 0 90.5 28t33.5 84q0 46 -26 73.5t-79 27.5q-59 0 -139 -49q-3 -17 -3 -23q0 -141 123 -141z" />
    <glyph glyph-name="iagravecy" horiz-adv-x="490" 
d="M265 557l-103 119q-14 16 -14 30t10 21q11 9 31 12q16 -31 52 -81.5t45 -64.5q8 -13 0 -22.5t-21 -13.5zM438 188q-4 -101 7 -188q-18 -5 -31 -5q-24 0 -24 22q-2 90 2 163q-47 -8 -66 -10q-47 -70 -126 -122.5t-145 -52.5q-14 0 -18 9.5t-2 28.5q70 7 133.5 43t105.5 90
q-209 -6 -209 159q0 76 46 115.5t122 39.5q69 0 109 -36.5t40 -106.5q0 -61 -36 -131q14 2 58 11q17 4 26 -3t8 -26zM114 321q0 -136 185 -121q35 62 35 129q0 113 -103 113q-55 0 -86 -31.5t-31 -89.5z" />
    <glyph glyph-name="iugravecy" horiz-adv-x="759" 
d="M470 557l-103 119q-14 16 -14 30t10 21q11 9 31 12q16 -31 52 -81.5t45 -64.5q8 -13 0 -22.5t-21 -13.5zM439 480q93 0 150 -62.5t57 -180.5q0 -107 -58.5 -177t-148.5 -70q-89 0 -145 57.5t-61 166.5h-98q0 -106 3 -214q-17 -5 -32 -5q-22 0 -22 22v141v136v114
t-0.5 108.5t-1.5 83t-3 73.5t-4 47q12 6 33 6q16 0 22 -8t5 -28q-1 -297 0 -440l98 1q5 100 63 164.5t143 64.5zM440 35q70 0 112 52t42 148t-42.5 148t-112.5 52t-112 -52t-42 -148q0 -95 42.5 -147.5t112.5 -52.5z" />
    <glyph glyph-name="ogravecy" horiz-adv-x="532" 
d="M288 567l-103 119q-14 16 -14 30t10 21q11 9 31 12q16 -31 52 -81.5t45 -64.5q8 -13 0 -22.5t-21 -13.5zM266 -10q-97 0 -155 62.5t-58 180.5q0 107 60 177t153 70q97 0 155 -62.5t58 -180.5q0 -107 -60 -177t-153 -70zM266 34q73 0 117 52.5t44 148.5t-44 148.5
t-117 52.5t-117 -52.5t-44 -148.5t44 -148.5t117 -52.5z" />
    <glyph glyph-name="ugravecy" horiz-adv-x="523" 
d="M273 557l-103 119q-14 16 -14 30t10 21q11 9 31 12q16 -31 52 -81.5t45 -64.5q8 -13 0 -22.5t-21 -13.5zM435 275l19 -231q9 -105 -49 -169t-152 -64q-45 0 -88 14t-70 36q-20 15 -20 33q0 21 27 34q20 -27 58.5 -50t90.5 -23q82 0 122.5 51t33.5 135l-11 139
q-81 -164 -181 -164q-125 0 -125 127q0 238 -7 327q18 5 33 5q24 0 24 -22v-303q0 -44 17 -66.5t59 -22.5q53 0 89 41.5t84 140.5l-3 227q15 5 31 5q18 0 23.5 -7.5t5.5 -32.5q0 -13 -2 -38.5t-5 -62.5t-4 -59z" />
    </font>
</defs>
</svg>
